<svg xmlns="http://www.w3.org/2000/svg" viewBox="0 0 404.64 80.11"><defs><style>.cls-1{fill:#93d5f6;}.cls-2{fill:#004a91;}.cls-3{fill:#0095d4;}</style></defs><title>logo participa</title><g id="Capa_2" data-name="Capa 2"><g id="Home_v.5" data-name="Home v.5"><polygon class="cls-1" points="32.73 14.02 23.75 19.21 12.14 25.91 12.14 31.31 12.14 39.3 12.14 52.7 12.14 66.72 0 59.71 0 39.3 0 18.89 17.67 8.69 32.73 0 32.73 14.02"/><polygon class="cls-2" points="68.07 61.22 53.02 69.91 35.35 80.11 24.29 73.73 24.29 59.71 35.35 66.09 46.95 59.4 55.93 54.21 68.07 61.22"/><polygon class="cls-3" points="37.97 0 53.02 8.69 70.69 18.89 70.69 39.3 70.69 56.68 58.55 49.67 58.55 39.3 58.55 25.91 46.95 19.21 37.97 14.02 37.97 0"/><polygon class="cls-1" points="35.35 26.55 40.87 29.74 46.38 32.93 46.38 39.3 46.38 45.67 40.87 48.86 35.35 52.05 29.83 48.86 24.31 45.67 24.31 39.3 24.31 32.93 29.83 29.74 35.35 26.55"/><path class="cls-2" d="M87.6,27.82H98.5c6.06,0,8.36,3.83,8.36,7.75s-2.3,7.75-8.36,7.75H92.91V52H87.6Zm5.31,11.37H97c2.44,0,4.67-.54,4.67-3.62S99.48,32,97,32H92.91Z"/><path class="cls-2" d="M105.37,52l11-24.13h5.35L132.48,52h-5.15L125,46.64H112.75L110.21,52Zm13.71-19.6L115,41.73h8l-3.93-9.34Z"/><path class="cls-2" d="M148.76,43.05l6.77,9H149l-6.1-8.7h-2.6V52H135V27.82h10.9c6.09,0,8.43,3.83,8.43,7.75,0,3.29-1.73,6.6-5.76,7.48ZM140.33,32v7.28h4.13c2.54,0,4.64-.58,4.64-3.66S147,32,144.46,32Z"/><path class="cls-2" d="M164.93,32.29h-7.68V27.86h20.61v4.46h-7.61V52h-5.32Z"/><path class="cls-2" d="M180.91,27.82h5.31V52h-5.31Z"/><path class="cls-2" d="M201.62,52.06a12.26,12.26,0,1,1,10.63-18.25c-2.06,1.09-2.23,1.19-4.54,2.31a7,7,0,0,0-6.09-3.49,7.18,7.18,0,0,0,0,14.35,7.06,7.06,0,0,0,6.3-3.76c2.3,1.19,2.37,1.32,4.53,2.3A12.14,12.14,0,0,1,201.62,52.06Z"/><path class="cls-2" d="M215.73,27.82h5.32V52h-5.32Z"/><path class="cls-2" d="M225.72,27.82h10.9c6.06,0,8.36,3.83,8.36,7.75s-2.3,7.75-8.36,7.75H231V52h-5.31ZM231,39.19h4.13c2.44,0,4.67-.54,4.67-3.62S237.6,32,235.16,32H231Z"/><path class="cls-2" d="M243.49,52l11-24.13h5.35L270.6,52h-5.15l-2.37-5.35H250.87L248.33,52Zm13.71-19.6-4.07,9.34h8l-3.93-9.34Z"/><path class="cls-2" d="M272.62,46.74h5.25V52h-5.25Z"/><path class="cls-2" d="M301.69,42.85c0,6.53-3.86,9.71-10.33,9.71s-10.29-3.11-10.29-9.71v-15h5.32v15c0,2.64.67,5.25,5,5.25,3.79,0,5-1.63,5-5.25v-15h5.32Z"/><path class="cls-2" d="M317.22,52.06a12.26,12.26,0,1,1,10.63-18.25c-2.07,1.09-2.24,1.19-4.54,2.31a7,7,0,0,0-6.09-3.49,7.18,7.18,0,1,0,0,14.35,7.06,7.06,0,0,0,6.3-3.76c2.3,1.19,2.37,1.32,4.53,2.3A12.15,12.15,0,0,1,317.22,52.06Z"/><path class="cls-2" d="M347.24,41.63H336V51.92h-5.18V27.69H336v8.76h11.2v-8.7h5.21V51.92h-5.21Z"/><path class="cls-2" d="M356.41,27.82h5.32V52h-5.32Z"/><path class="cls-2" d="M365.89,51.82V27.72h5.21V47.35h12.39v4.47Z"/><path class="cls-2" d="M391,42.34v5.15h13.64V52H385.86V27.72h17.63v4.47H391v5.45h11v4.7Z"/></g></g></svg>