<?xml version="1.0" encoding="UTF-8" standalone="no"?>
<svg
   viewBox="0 0 80.11 80.11"
   width="200"
   height="200"
   version="1.1"
   id="svg4"
   sodipodi:docname="participauchile_small.svg"
   inkscape:version="1.3 (0e150ed6c4, 2023-07-21)"
   inkscape:export-filename="participauchile_small.svg"
   inkscape:export-xdpi="96"
   inkscape:export-ydpi="96"
   xmlns:inkscape="http://www.inkscape.org/namespaces/inkscape"
   xmlns:sodipodi="http://sodipodi.sourceforge.net/DTD/sodipodi-0.dtd"
   xmlns="http://www.w3.org/2000/svg"
   xmlns:svg="http://www.w3.org/2000/svg"
   xmlns:rdf="http://www.w3.org/1999/02/22-rdf-syntax-ns#"
   xmlns:cc="http://creativecommons.org/ns#"
   xmlns:dc="http://purl.org/dc/elements/1.1/">
  <sodipodi:namedview
     id="namedview4"
     pagecolor="#ffffff"
     bordercolor="#000000"
     borderopacity="0.25"
     inkscape:showpageshadow="2"
     inkscape:pageopacity="0.0"
     inkscape:pagecheckerboard="0"
     inkscape:deskcolor="#d1d1d1"
     inkscape:zoom="3.885"
     inkscape:cx="100"
     inkscape:cy="59.330759"
     inkscape:window-width="1920"
     inkscape:window-height="991"
     inkscape:window-x="-9"
     inkscape:window-y="-9"
     inkscape:window-maximized="1"
     inkscape:current-layer="svg4" />
  <defs
     id="defs1">
    <style
       id="style1">&#10;            .cls-1 {&#10;                fill: #93d5f6;&#10;            }&#10;&#10;            .cls-2 {&#10;                fill: #004a91;&#10;            }&#10;&#10;            .cls-3 {&#10;                fill: #0095d4;&#10;            }&#10;        </style>
  </defs>
  <title
     id="title1">logo participa</title>
  <g
     id="Capa_2"
     data-name="Capa 2"
     transform="translate(4.9488803,0.10310167)">
    <g
       id="Home_v.5"
       data-name="Home v.5">
      <polygon
         class="cls-1"
         points="12.14,25.91 12.14,31.31 12.14,39.3 12.14,52.7 12.14,66.72 0,59.71 0,39.3 0,18.89 17.67,8.69 32.73,0 32.73,14.02 23.75,19.21 "
         id="polygon1" />
      <polygon
         class="cls-2"
         points="35.35,80.11 24.29,73.73 24.29,59.71 35.35,66.09 46.95,59.4 55.93,54.21 68.07,61.22 53.02,69.91 "
         id="polygon2" />
      <polygon
         class="cls-3"
         points="70.69,18.89 70.69,39.3 70.69,56.68 58.55,49.67 58.55,39.3 58.55,25.91 46.95,19.21 37.97,14.02 37.97,0 53.02,8.69 "
         id="polygon3" />
      <polygon
         class="cls-1"
         points="46.38,32.93 46.38,39.3 46.38,45.67 40.87,48.86 35.35,52.05 29.83,48.86 24.31,45.67 24.31,39.3 24.31,32.93 29.83,29.74 35.35,26.55 40.87,29.74 "
         id="polygon4" />
    </g>
  </g>
  <metadata
     id="metadata4">
    <rdf:RDF>
      <cc:Work
         rdf:about="">
        <dc:title>logo participa</dc:title>
      </cc:Work>
    </rdf:RDF>
  </metadata>
</svg>
