<?xml version="1.0" encoding="UTF-8" standalone="no"?>
<svg xmlns:dc="http://purl.org/dc/elements/1.1/" xmlns:cc="http://creativecommons.org/ns#" xmlns:rdf="http://www.w3.org/1999/02/22-rdf-syntax-ns#" xmlns:svg="http://www.w3.org/2000/svg" xmlns="http://www.w3.org/2000/svg" xmlns:sodipodi="http://sodipodi.sourceforge.net/DTD/sodipodi-0.dtd" xmlns:inkscape="http://www.inkscape.org/namespaces/inkscape" viewBox="0 0 429.32207 186.43305" version="1.1" id="svg96" sodipodi:docname="logo_ciberseguridad.svg" width="429.32205" height="186.43304" inkscape:version="0.92.4 5da689c313, 2019-01-14">
  <metadata id="metadata100">
    <rdf:RDF>
      <cc:Work rdf:about="">
        <dc:format>image/svg+xml</dc:format>
        <dc:type rdf:resource="http://purl.org/dc/dcmitype/StillImage"/>
        <dc:title>logo_ciberseguridad</dc:title>
      </cc:Work>
    </rdf:RDF>
  </metadata>
  <sodipodi:namedview pagecolor="#ffffff" bordercolor="#666666" borderopacity="1" objecttolerance="10" gridtolerance="10" guidetolerance="10" inkscape:pageopacity="0" inkscape:pageshadow="2" inkscape:window-width="2560" inkscape:window-height="1025" id="namedview98" showgrid="false" inkscape:zoom="1.7890441" inkscape:cx="203.20239" inkscape:cy="97.776342" inkscape:window-x="0" inkscape:window-y="27" inkscape:window-maximized="1" inkscape:current-layer="svg96" fit-margin-top="0" fit-margin-left="0" fit-margin-right="0" fit-margin-bottom="0"/>
  <defs id="defs4">
    <style id="style2">
      .cls-1 {
        fill: #195988;
      }

      .cls-2 {
        fill: #cb1517;
      }

      .cls-3 {
        fill: #d43c43;
      }

      .cls-4 {
        fill: #c76369;
      }

      .cls-5 {
        fill: #46799a;
      }

      .cls-6 {
        fill: #80a2b3;
      }
    </style>
  </defs>
  <title id="title6">logo_ciberseguridad</title>
  <rect style="fill:#ffffff;fill-opacity:1;stroke:none;stroke-width:18.38791084;stroke-linecap:round;stroke-linejoin:round;stroke-miterlimit:4;stroke-dasharray:none;stroke-opacity:1" id="rect846" width="429.32205" height="186.43304" x="0" y="0"/>
  <g id="Capa_2" data-name="Capa 2" transform="matrix(1.8958107,0,0,1.8958107,26.560599,38.990966)">
    <g id="Capa_1-2" data-name="Capa 1">
      <g id="g92">
        <path class="cls-1" d="m 72.29,23.34 -1,-5.09 h -0.07 l -1.12,5.09 z m -2.57,-6.69 h 3 L 75,27.18 h -2 l -0.49,-2.37 h -2.62 l -0.47,2.37 h -2 z" id="path8" inkscape:connector-curvature="0" style="fill:#195988"/>
        <polygon class="cls-1" points="81.89,25.51 81.89,27.18 76.63,27.18 76.63,16.65 78.64,16.65 78.64,25.51 " id="polygon10" style="fill:#195988"/>
        <rect class="cls-1" x="83.57" y="16.65" width="2.01" height="10.52" id="rect12" style="fill:#195988"/>
        <path class="cls-1" d="m 92,23.34 -1,-5.09 h -0.08 l -1.09,5.09 z m -2.56,-6.69 h 3 l 2.26,10.53 h -2 l -0.48,-2.37 h -2.61 l -0.47,2.37 h -2 z" id="path14" inkscape:connector-curvature="0" style="fill:#195988"/>
        <path class="cls-1" d="m 96.36,16.65 h 2.53 c 2.63,6.89 2.9,8 2.9,8 v 0 c 0,0 -0.09,-1.95 -0.09,-3.83 v -4.17 h 1.85 v 10.53 h -2.53 c -2.66,-6.95 -2.89,-8 -2.89,-8 h -0.06 c 0,0 0.08,2.1 0.09,4 v 4 h -1.8 z" id="path16" inkscape:connector-curvature="0" style="fill:#195988"/>
        <polygon class="cls-1" points="105.43,27.18 105.43,26.25 109.32,18.32 105.78,18.32 105.78,16.66 111.78,16.66 111.78,17.52 107.9,25.52 111.93,25.52 111.93,27.18 " id="polygon18" style="fill:#195988"/>
        <path class="cls-1" d="m 117.79,23.34 -1,-5.09 h -0.07 l -1.09,5.09 z m -2.57,-6.69 h 3 l 2.26,10.53 h -2 L 118,24.81 h -2.62 l -0.47,2.37 h -2 z" id="path20" inkscape:connector-curvature="0" style="fill:#195988"/>
        <path class="cls-1" d="m 131.68,26.93 a 9.15,9.15 0 0 1 -2.46,0.38 c -2.6,0 -3.72,-1.16 -3.72,-5.36 0,-3.77 0.85,-5.43 3.75,-5.43 a 8.44,8.44 0 0 1 2.37,0.33 l -0.27,1.53 a 9.53,9.53 0 0 0 -1.82,-0.2 c -1.46,0 -2,0.47 -2,3.77 0,3.3 0.5,3.7 2,3.7 a 10.31,10.31 0 0 0 1.84,-0.26 z" id="path22" inkscape:connector-curvature="0" style="fill:#195988"/>
        <polygon class="cls-1" points="135.48,22.56 135.48,27.18 133.47,27.18 133.47,16.65 135.48,16.65 135.48,20.9 138.32,20.9 138.32,16.65 140.32,16.65 140.32,27.18 138.32,27.18 138.32,22.56 " id="polygon24" style="fill:#195988"/>
        <rect class="cls-1" x="142.77" y="16.65" width="2.01" height="10.52" id="rect26" style="fill:#195988"/>
        <polygon class="cls-1" points="152.46,25.51 152.46,27.18 147.21,27.18 147.21,16.65 149.21,16.65 149.21,25.51 " id="polygon28" style="fill:#195988"/>
        <polygon class="cls-1" points="159.99,25.51 159.99,27.18 154.15,27.18 154.15,16.65 159.91,16.65 159.91,18.31 156.15,18.31 156.15,20.91 159.16,20.91 159.16,22.51 156.15,22.51 156.15,25.51 " id="polygon30" style="fill:#195988"/>
        <path class="cls-1" d="m 161.9,16.65 h 2.54 c 2.62,6.89 2.9,8 2.9,8 v 0 c 0,0 -0.09,-1.95 -0.09,-3.83 v -4.17 h 1.86 v 10.53 h -2.54 c -2.65,-6.95 -2.88,-8 -2.88,-8 h -0.06 c 0,0 0.07,2.1 0.09,4 v 4 h -1.82 z" id="path32" inkscape:connector-curvature="0" style="fill:#195988"/>
        <path class="cls-1" d="m 175.59,23.34 -1,-5.09 h -0.08 l -1.09,5.09 z M 173,16.65 h 3 l 2.26,10.53 h -2 l -0.48,-2.37 h -2.63 l -0.47,2.37 h -2 z" id="path34" inkscape:connector-curvature="0" style="fill:#195988"/>
        <path class="cls-1" d="m 186.09,25.51 c 2.06,0 2.47,-0.33 2.47,-3.63 0,-3.3 -0.52,-3.57 -2.45,-3.57 h -0.42 v 7.2 z m -2.41,1.67 V 16.65 h 2.26 c 3.75,0 4.61,1 4.61,5.24 0,4.24 -0.77,5.29 -4.59,5.29 z" id="path36" inkscape:connector-curvature="0" style="fill:#195988"/>
        <polygon class="cls-1" points="198.43,25.51 198.43,27.18 192.58,27.18 192.58,16.65 198.35,16.65 198.35,18.31 194.59,18.31 194.59,20.91 197.59,20.91 197.59,22.51 194.59,22.51 194.59,25.51 " id="polygon38" style="fill:#195988"/>
        <path class="cls-1" d="m 75.43,44.45 a 11.27,11.27 0 0 1 -3,0.45 c -3.14,0 -4.49,-1.4 -4.49,-6.47 0,-4.56 1,-6.57 4.52,-6.57 a 10.1,10.1 0 0 1 2.87,0.4 L 75,34.1 a 12.86,12.86 0 0 0 -2.19,-0.23 c -1.77,0 -2.44,0.56 -2.44,4.56 0,4 0.6,4.47 2.46,4.47 a 12.73,12.73 0 0 0 2.22,-0.31 z" id="path40" inkscape:connector-curvature="0" style="fill:#195988"/>
        <rect class="cls-1" x="77.599998" y="32.029999" width="2.4300001" height="12.71" id="rect42" style="fill:#195988"/>
        <path class="cls-1" d="m 86.61,42.77 c 1.53,0 2.21,-0.4 2.21,-1.84 0,-1.44 -0.55,-1.85 -2.23,-1.85 h -1.26 v 3.69 z m -0.38,-5.56 c 1.6,0 2.07,-0.42 2.07,-1.72 0,-1.3 -0.41,-1.59 -2.17,-1.59 h -0.8 v 3.31 z M 83,44.74 V 32 h 3.45 c 3,0 4.25,0.93 4.25,3.32 a 2.65,2.65 0 0 1 -1.55,2.59 2.87,2.87 0 0 1 2.06,3.09 c 0,2.7 -1.5,3.72 -4.42,3.72 z" id="path44" inkscape:connector-curvature="0" style="fill:#195988"/>
        <polygon class="cls-1" points="100.63,42.73 100.63,44.74 93.57,44.74 93.57,32.03 100.54,32.03 100.54,34.03 96,34.03 96,37.17 99.63,37.17 99.63,39.1 96,39.1 96,42.73 " id="polygon46" style="fill:#195988"/>
        <path class="cls-1" d="m 106.41,38.14 c 1.42,0 1.93,-0.61 1.93,-2.14 0,-1.53 -0.4,-2 -1.89,-2 h -1.08 v 4.11 z M 103,32 h 3.66 c 3,0 4.16,1 4.16,3.94 a 3.17,3.17 0 0 1 -1.82,3.24 3.67,3.67 0 0 1 1.43,2.13 l 1.22,3.43 h -2.56 l -1,-3.05 c -0.4,-1.22 -0.84,-1.55 -1.82,-1.55 h -0.9 v 4.6 H 103 Z" id="path48" inkscape:connector-curvature="0" style="fill:#195988"/>
        <path class="cls-1" d="m 113.21,42.42 a 14.66,14.66 0 0 0 3.07,0.48 c 1.42,0 1.84,-0.46 1.84,-1.63 0,-0.87 -0.26,-1.46 -1.5,-2 l -0.75,-0.33 C 114,38.17 113,37.32 113,35.22 c 0,-2.46 1.55,-3.36 3.74,-3.36 a 11.8,11.8 0 0 1 3.24,0.46 l -0.4,1.88 a 13.21,13.21 0 0 0 -2.59,-0.33 c -1,0 -1.62,0.33 -1.62,1.35 0,1.02 0.53,1.33 1.48,1.75 l 0.62,0.29 c 1.93,0.88 3,1.61 3,4 0,2.66 -1.1,3.64 -3.85,3.64 a 14.77,14.77 0 0 1 -3.77,-0.54 z" id="path50" inkscape:connector-curvature="0" style="fill:#195988"/>
        <polygon class="cls-1" points="129.92,42.73 129.92,44.74 122.86,44.74 122.86,32.03 129.83,32.03 129.83,34.03 125.28,34.03 125.28,37.17 128.91,37.17 128.91,39.1 125.28,39.1 125.28,42.73 " id="polygon52" style="fill:#195988"/>
        <path class="cls-1" d="m 136.24,31.86 a 13.57,13.57 0 0 1 3.23,0.46 l -0.33,1.86 a 20.66,20.66 0 0 0 -2.64,-0.31 c -1.66,0 -2.34,0.56 -2.34,4.47 0,3.91 0.64,4.56 2.32,4.56 a 4.37,4.37 0 0 0 1,-0.11 v -5 h 2.31 v 6.51 a 10.53,10.53 0 0 1 -3.55,0.6 c -3.14,0 -4.49,-1.4 -4.49,-6.56 0,-4.47 1,-6.48 4.5,-6.48" id="path54" inkscape:connector-curvature="0" style="fill:#195988"/>
        <path class="cls-1" d="m 142.26,32 h 2.43 v 9.32 c 0,1 0.47,1.6 1.69,1.6 1.22,0 1.72,-0.62 1.72,-1.6 V 32 h 2.42 v 9.3 c 0,2.51 -1.47,3.63 -4.14,3.63 -2.67,0 -4.12,-1.12 -4.12,-3.63 z" id="path56" inkscape:connector-curvature="0" style="fill:#195988"/>
        <path class="cls-1" d="m 156.85,38.14 c 1.42,0 1.93,-0.61 1.93,-2.14 0,-1.53 -0.4,-2 -1.89,-2 h -1.08 v 4.11 z M 153.38,32 h 3.67 c 3,0 4.16,1 4.16,3.94 a 3.17,3.17 0 0 1 -1.79,3.21 3.62,3.62 0 0 1 1.42,2.13 l 1.23,3.43 h -2.56 l -1,-3.05 c -0.4,-1.22 -0.84,-1.55 -1.83,-1.55 h -0.89 v 4.6 h -2.43 z" id="path58" inkscape:connector-curvature="0" style="fill:#195988"/>
        <rect class="cls-1" x="163.96001" y="32.029999" width="2.4200001" height="12.71" id="rect60" style="fill:#195988"/>
        <path class="cls-1" d="m 172.24,42.73 c 2.48,0 3,-0.4 3,-4.39 0,-3.99 -0.62,-4.31 -3,-4.31 h -0.51 v 8.7 z m -2.92,2 V 32 h 2.74 c 4.52,0 5.56,1.24 5.56,6.32 0,5.08 -0.93,6.39 -5.54,6.39 z" id="path62" inkscape:connector-curvature="0" style="fill:#195988"/>
        <path class="cls-1" d="M 184.79,40.11 183.54,34 h -0.09 l -1.31,6.15 z M 181.68,32 h 3.67 l 2.74,12.71 h -2.45 l -0.58,-2.86 h -3.18 l -0.56,2.86 h -2.39 z" id="path64" inkscape:connector-curvature="0" style="fill:#195988"/>
        <path class="cls-1" d="m 193,42.73 c 2.48,0 3,-0.4 3,-4.39 0,-3.99 -0.69,-4.34 -3,-4.34 h -0.51 v 8.7 z m -2.91,2 V 32 h 2.73 c 4.53,0 5.56,1.24 5.56,6.32 0,5.08 -0.93,6.39 -5.54,6.39 z" id="path66" inkscape:connector-curvature="0" style="fill:#195988"/>
        <path class="cls-2" d="m 29.81,56.69 a 1.73,1.73 0 0 0 0.41,-1.76 L 53,32.12 52,31 29.14,53.85 a 1.72,1.72 0 1 0 0.67,2.84" id="path68" inkscape:connector-curvature="0" style="fill:#cb1517"/>
        <path class="cls-3" d="M 29.81,50.72 A 1.75,1.75 0 0 0 30.22,49 L 47.05,32.12 46,31 29.14,47.88 a 1.72,1.72 0 1 0 0.67,2.84" id="path70" inkscape:connector-curvature="0" style="fill:#d43c43"/>
        <path class="cls-4" d="M 29.81,44.74 A 1.72,1.72 0 0 0 30.22,43 L 41.08,32.12 40,31 29.14,41.91 a 1.69,1.69 0 0 0 -1.76,0.41 1.7147376,1.7147376 0 0 0 2.43,2.42" id="path72" inkscape:connector-curvature="0" style="fill:#c76369"/>
        <path class="cls-4" d="M 27.39,12.45 A 1.71,1.71 0 0 0 27,14.21 L 16.11,25.07 17.18,26.15 28,15.28 a 1.71,1.71 0 1 0 -0.65,-2.83" id="path74" inkscape:connector-curvature="0" style="fill:#c76369"/>
        <path class="cls-3" d="M 27.39,6.48 A 1.7,1.7 0 0 0 27,8.23 L 10.13,25.07 11.21,26.15 28,9.31 A 1.71,1.71 0 1 0 27.35,6.48" id="path76" inkscape:connector-curvature="0" style="fill:#d43c43"/>
        <path class="cls-2" d="M 27.39,0.5 A 1.71,1.71 0 0 0 27,2.26 L 4.16,25.07 5.24,26.15 28,3.34 A 1.72,1.72 0 1 0 27.39,0.5" id="path78" inkscape:connector-curvature="0" style="fill:#cb1517"/>
        <path class="cls-1" d="m 0.5,27.38 a 1.72,1.72 0 0 0 1.76,2.84 L 25.07,53 26.14,52 3.34,29.15 A 1.72,1.72 0 0 0 0.5,27.38" id="path80" inkscape:connector-curvature="0" style="fill:#195988"/>
        <path class="cls-5" d="m 6.48,27.38 a 1.71,1.71 0 0 0 1.75,2.84 L 25.07,47.05 26.14,46 9.31,29.15 A 1.71,1.71 0 0 0 6.48,27.38" id="path82" inkscape:connector-curvature="0" style="fill:#46799a"/>
        <path class="cls-6" d="m 14.88,27.38 a 1.72,1.72 0 1 0 -0.67,2.84 L 25.07,41.08 26.14,40 15.29,29.15 a 1.75,1.75 0 0 0 -0.41,-1.77" id="path84" inkscape:connector-curvature="0" style="fill:#80a2b3"/>
        <path class="cls-6" d="M 43,27 32.12,16.11 31,17.18 41.91,28.05 A 1.68,1.68 0 0 0 42.32,29.81 1.71,1.71 0 1 0 43,27" id="path86" inkscape:connector-curvature="0" style="fill:#80a2b3"/>
        <path class="cls-5" d="M 49,27 32.12,10.14 31,11.21 47.88,28.05 A 1.71,1.71 0 1 0 49,27" id="path88" inkscape:connector-curvature="0" style="fill:#46799a"/>
        <path class="cls-1" d="M 54.93,27 32.12,4.16 31,5.24 53.85,28.05 A 1.71,1.71 0 1 0 54.93,27" id="path90" inkscape:connector-curvature="0" style="fill:#195988"/>
      </g>
    </g>
  </g>
</svg>