<?xml version="1.0" encoding="UTF-8" standalone="no"?>
<!-- Generator: Adobe Illustrator 16.0.0, SVG Export Plug-In . SVG Version: 6.00 Build 0)  -->

<svg
   xmlns:dc="http://purl.org/dc/elements/1.1/"
   xmlns:cc="http://creativecommons.org/ns#"
   xmlns:rdf="http://www.w3.org/1999/02/22-rdf-syntax-ns#"
   xmlns:svg="http://www.w3.org/2000/svg"
   xmlns="http://www.w3.org/2000/svg"
   xmlns:xlink="http://www.w3.org/1999/xlink"
   xmlns:sodipodi="http://sodipodi.sourceforge.net/DTD/sodipodi-0.dtd"
   xmlns:inkscape="http://www.inkscape.org/namespaces/inkscape"
   version="1.1"
   id="Capa_1"
   x="0px"
   y="0px"
   width="592.71661"
   height="253.4026"
   viewBox="0 0 592.7166 253.40261"
   enable-background="new 0 0 47.125 19.761"
   xml:space="preserve"
   sodipodi:docname="logo-uchile.svg"
   inkscape:version="0.92.2 2405546, 2018-03-11"><metadata
   id="metadata6854"><rdf:RDF><cc:Work
       rdf:about=""><dc:format>image/svg+xml</dc:format><dc:type
         rdf:resource="http://purl.org/dc/dcmitype/StillImage" /><dc:title /></cc:Work></rdf:RDF></metadata><defs
   id="defs6852">
	<defs
   id="defs6562">
		<rect
   height="19.761"
   width="47.125"
   id="SVGID_1_"
   x="0"
   y="0" />
	</defs>
	<clipPath
   id="SVGID_2_">
		<use
   id="use6564"
   overflow="visible"
   xlink:href="#SVGID_1_"
   style="overflow:visible"
   x="0"
   y="0"
   width="100%"
   height="100%" />
	</clipPath>
	
	
	
	
	
	
	
	
	
	
	
	
	
	
	
	
	
	
	
	
	
	
	
	
	
	
	
	
	
	
	
	
	
	
	
	
	
	
</defs><sodipodi:namedview
   pagecolor="#ffffff"
   bordercolor="#666666"
   borderopacity="1"
   objecttolerance="10"
   gridtolerance="10"
   guidetolerance="10"
   inkscape:pageopacity="0"
   inkscape:pageshadow="2"
   inkscape:window-width="1401"
   inkscape:window-height="480"
   id="namedview6850"
   showgrid="false"
   inkscape:zoom="0.35355339"
   inkscape:cx="375.00531"
   inkscape:cy="268.26754"
   inkscape:window-x="0"
   inkscape:window-y="22"
   inkscape:window-maximized="0"
   inkscape:current-layer="Capa_1"
   fit-margin-top="0"
   fit-margin-left="0"
   fit-margin-right="0"
   fit-margin-bottom="0" />
<path
   style="fill:#ffffff"
   inkscape:connector-curvature="0"
   id="path6567"
   d="m 14.247,10.536 c -0.055,0 -0.097,0.016 -0.126,0.046 -0.029,0.031 -0.049,0.068 -0.06,0.113 -0.011,0.043 -0.017,0.091 -0.017,0.142 v 0.138 1.915 c 0,0.443 -0.121,0.781 -0.363,1.015 -0.244,0.233 -0.584,0.351 -1.022,0.351 -0.442,0 -0.783,-0.119 -1.024,-0.357 -0.241,-0.236 -0.362,-0.575 -0.362,-1.018 v -2.075 c 0,-0.08 -0.008,-0.145 -0.027,-0.195 -0.018,-0.049 -0.075,-0.073 -0.17,-0.073 H 10.994 V 10.48 h 1.019 v 0.056 c -0.058,0 -0.105,0.002 -0.14,0.005 -0.035,0.004 -0.062,0.016 -0.082,0.033 -0.02,0.019 -0.034,0.046 -0.041,0.082 -0.007,0.037 -0.011,0.087 -0.011,0.148 v 2.085 c 0,0.336 0.077,0.603 0.233,0.797 0.155,0.196 0.408,0.293 0.758,0.293 0.322,0 0.571,-0.09 0.747,-0.272 0.178,-0.184 0.266,-0.434 0.266,-0.75 v -1.982 -0.187 c 0,-0.056 -0.008,-0.101 -0.024,-0.138 -0.017,-0.035 -0.045,-0.064 -0.085,-0.084 -0.04,-0.021 -0.099,-0.03 -0.176,-0.03 V 10.48 h 0.872 v 0.056 z"
   clip-path="url(#SVGID_2_)"
   transform="scale(12.89187)" /><path
   style="fill:#ffffff"
   inkscape:connector-curvature="0"
   id="path6569"
   d="m 18.168,10.56 c -0.041,0.016 -0.069,0.041 -0.085,0.074 -0.017,0.032 -0.026,0.074 -0.027,0.126 -0.002,0.052 -0.003,0.11 -0.003,0.181 v 3.275 h -0.28 l -2.195,-3.145 v 2.668 c 0,0.069 0,0.128 0.002,0.178 0.002,0.049 0.011,0.09 0.027,0.123 0.017,0.033 0.045,0.057 0.085,0.071 0.04,0.014 0.097,0.021 0.17,0.021 v 0.054 H 14.98 v -0.054 c 0.077,0 0.136,-0.007 0.176,-0.021 0.04,-0.015 0.069,-0.037 0.088,-0.068 0.018,-0.031 0.028,-0.071 0.029,-0.12 0.002,-0.05 0.003,-0.111 0.003,-0.184 V 10.764 C 15.254,10.717 15.236,10.678 15.222,10.647 15.207,10.616 15.19,10.592 15.172,10.575 15.154,10.559 15.131,10.549 15.104,10.543 15.076,10.538 15.035,10.534 14.98,10.534 V 10.48 h 0.724 c 0.335,0.508 0.676,1.006 1.024,1.496 0.346,0.489 0.688,0.987 1.023,1.495 v -2.53 c 0,-0.072 0,-0.135 -0.002,-0.187 -0.002,-0.052 -0.011,-0.093 -0.028,-0.126 -0.016,-0.033 -0.045,-0.057 -0.087,-0.071 -0.042,-0.014 -0.101,-0.022 -0.178,-0.022 V 10.48 h 0.887 v 0.055 c -0.077,0 -0.135,0.008 -0.175,0.025"
   clip-path="url(#SVGID_2_)"
   transform="scale(12.89187)" /><path
   style="fill:#ffffff"
   inkscape:connector-curvature="0"
   id="path6571"
   d="m 19.017,14.188 v -0.056 c 0.062,0 0.112,-10e-4 0.15,-0.005 0.039,-0.003 0.069,-0.013 0.091,-0.029 0.022,-0.016 0.036,-0.043 0.044,-0.079 0.007,-0.037 0.011,-0.088 0.011,-0.153 v -3.062 c 0,-0.066 -0.004,-0.117 -0.011,-0.153 -0.008,-0.037 -0.022,-0.063 -0.044,-0.08 -0.022,-0.017 -0.052,-0.026 -0.091,-0.03 -0.038,-0.003 -0.088,-0.005 -0.15,-0.005 v -0.055 h 1.062 v 0.055 c -0.062,0 -0.112,0.002 -0.15,0.005 -0.038,0.004 -0.069,0.014 -0.091,0.03 -0.022,0.016 -0.036,0.043 -0.044,0.08 -0.007,0.036 -0.01,0.087 -0.01,0.153 v 3.062 c 0,0.065 0.003,0.116 0.01,0.153 0.008,0.036 0.022,0.062 0.044,0.079 0.022,0.017 0.053,0.026 0.091,0.029 0.038,0.004 0.088,0.005 0.15,0.005 v 0.056 z"
   clip-path="url(#SVGID_2_)"
   transform="scale(12.89187)" /><path
   style="fill:#ffffff"
   inkscape:connector-curvature="0"
   id="path6573"
   d="m 23.986,10.601 c -0.035,0.045 -0.065,0.098 -0.09,0.159 l -1.342,3.466 H 22.329 L 20.916,10.771 C 20.887,10.701 20.852,10.646 20.81,10.603 20.768,10.562 20.708,10.54 20.632,10.535 V 10.48 h 0.969 v 0.055 c -0.036,0 -0.071,0.002 -0.104,0.004 -0.033,0.002 -0.06,0.009 -0.082,0.021 -0.022,0.014 -0.036,0.032 -0.041,0.057 -0.006,0.027 0.001,0.062 0.019,0.104 l 1.117,2.815 1.03,-2.694 c 0.04,-0.103 0.049,-0.177 0.027,-0.226 -0.022,-0.047 -0.091,-0.074 -0.208,-0.082 V 10.48 h 0.79 v 0.055 c -0.074,0 -0.128,0.022 -0.163,0.066"
   clip-path="url(#SVGID_2_)"
   transform="scale(12.89187)" /><path
   style="fill:#ffffff"
   inkscape:connector-curvature="0"
   id="path6575"
   d="m 26.77,14.188 h -2.496 v -0.056 c 0.113,0 0.184,-0.014 0.213,-0.046 0.029,-0.03 0.045,-0.104 0.045,-0.221 v -3.062 c 0,-0.117 -0.016,-0.191 -0.045,-0.223 -0.029,-0.032 -0.1,-0.046 -0.213,-0.046 v -0.055 h 2.441 l 0.006,0.563 H 26.645 C 26.627,10.903 26.584,10.818 26.516,10.788 26.448,10.757 26.35,10.741 26.223,10.741 h -1.105 c -0.062,0 -0.098,0.006 -0.107,0.02 -0.01,0.013 -0.014,0.049 -0.014,0.106 v 1.254 h 1.111 c 0.059,0 0.109,-0.002 0.154,-0.008 0.043,-0.006 0.078,-0.018 0.105,-0.035 0.027,-0.019 0.049,-0.046 0.064,-0.083 0.014,-0.037 0.025,-0.085 0.031,-0.147 h 0.072 v 0.826 H 26.462 C 26.456,12.609 26.444,12.558 26.431,12.522 26.415,12.485 26.394,12.457 26.367,12.437 26.34,12.416 26.306,12.404 26.263,12.398 26.222,12.393 26.169,12.39 26.107,12.39 h -1.111 v 1.43 c 0,0.032 0.01,0.057 0.029,0.073 0.021,0.017 0.045,0.026 0.072,0.029 0.025,0.005 0.057,0.006 0.088,0.003 0.031,-0.002 0.057,-0.003 0.078,-0.003 h 0.904 c 0.088,0 0.164,-0.004 0.227,-0.013 0.064,-0.009 0.123,-0.029 0.174,-0.058 0.051,-0.029 0.096,-0.068 0.137,-0.117 0.039,-0.05 0.078,-0.116 0.115,-0.2 h 0.088 z"
   clip-path="url(#SVGID_2_)"
   transform="scale(12.89187)" /><path
   style="fill:#ffffff"
   inkscape:connector-curvature="0"
   id="path6577"
   d="M 29.702,14.188 C 29.614,13.995 29.526,13.821 29.438,13.666 29.35,13.51 29.254,13.365 29.153,13.23 29.051,13.094 28.94,12.965 28.819,12.84 28.698,12.716 28.561,12.587 28.409,12.452 l -0.395,0.005 v 1.408 c 0,0.061 0.004,0.11 0.012,0.146 0.006,0.036 0.02,0.065 0.037,0.082 0.018,0.02 0.045,0.03 0.082,0.034 0.037,0.003 0.084,0.004 0.143,0.004 v 0.056 h -0.996 v -0.056 c 0.055,0 0.1,-10e-4 0.133,-0.007 0.035,-0.006 0.062,-0.018 0.08,-0.035 0.018,-0.019 0.031,-0.045 0.035,-0.081 0.006,-0.034 0.01,-0.083 0.01,-0.144 v -3.062 c 0,-0.059 -0.004,-0.106 -0.01,-0.143 -0.004,-0.036 -0.018,-0.064 -0.035,-0.082 -0.017,-0.018 -0.045,-0.031 -0.08,-0.036 -0.033,-0.005 -0.078,-0.008 -0.133,-0.008 V 10.48 H 28.6 c 0.16,0 0.314,0.019 0.463,0.053 0.148,0.035 0.277,0.091 0.391,0.167 0.113,0.077 0.205,0.177 0.271,0.302 0.068,0.124 0.102,0.277 0.102,0.46 0,0.138 -0.025,0.259 -0.076,0.364 -0.051,0.103 -0.121,0.19 -0.209,0.263 -0.088,0.071 -0.188,0.128 -0.299,0.172 -0.115,0.043 -0.234,0.075 -0.357,0.094 0.105,0.088 0.191,0.161 0.256,0.225 0.066,0.061 0.125,0.121 0.174,0.178 0.049,0.057 0.098,0.115 0.145,0.174 0.047,0.062 0.104,0.132 0.17,0.211 0.072,0.093 0.143,0.195 0.209,0.311 0.064,0.115 0.127,0.222 0.184,0.323 0.055,0.101 0.107,0.186 0.154,0.255 0.049,0.068 0.094,0.103 0.139,0.103 v 0.056 h -0.615 z m -1.688,-1.993 h 0.264 c 0.131,0 0.26,-0.013 0.385,-0.035 0.127,-0.025 0.24,-0.066 0.342,-0.126 0.104,-0.062 0.186,-0.143 0.248,-0.244 0.061,-0.103 0.092,-0.229 0.092,-0.383 0,-0.136 -0.025,-0.247 -0.076,-0.334 C 29.218,10.984 29.15,10.917 29.064,10.867 28.978,10.818 28.88,10.784 28.771,10.765 28.662,10.747 28.55,10.738 28.437,10.738 h -0.109 c -0.037,0 -0.076,0.002 -0.115,0.006 -0.041,0.004 -0.078,0.013 -0.113,0.027 -0.033,0.015 -0.062,0.035 -0.084,0.061 v 1.363 z"
   clip-path="url(#SVGID_2_)"
   transform="scale(12.89187)" /><path
   style="fill:#ffffff"
   inkscape:connector-curvature="0"
   id="path6579"
   d="m 30.977,14.115 c -0.02,0.017 -0.027,0.039 -0.027,0.067 h -0.066 l -0.027,-0.799 0.012,-0.017 h 0.049 c 0.066,0.157 0.154,0.283 0.266,0.378 0.112,0.095 0.229,0.164 0.354,0.206 0.123,0.042 0.25,0.059 0.379,0.052 0.127,-0.008 0.242,-0.038 0.346,-0.094 0.105,-0.055 0.189,-0.13 0.252,-0.228 0.064,-0.096 0.096,-0.211 0.096,-0.342 0,-0.157 -0.043,-0.288 -0.129,-0.395 -0.086,-0.105 -0.191,-0.201 -0.32,-0.287 -0.127,-0.086 -0.268,-0.168 -0.418,-0.246 -0.152,-0.079 -0.291,-0.166 -0.42,-0.263 -0.127,-0.098 -0.234,-0.21 -0.32,-0.341 -0.086,-0.129 -0.127,-0.291 -0.127,-0.483 0,-0.144 0.029,-0.271 0.09,-0.382 0.061,-0.11 0.139,-0.207 0.238,-0.286 0.098,-0.081 0.211,-0.142 0.338,-0.185 0.125,-0.041 0.254,-0.062 0.385,-0.062 0.076,0 0.152,0.006 0.227,0.02 0.076,0.012 0.148,0.029 0.223,0.051 0.006,0.004 0.027,0.011 0.061,0.02 0.031,0.01 0.068,0.02 0.105,0.031 0.039,0.01 0.074,0.021 0.107,0.029 0.033,0.01 0.051,0.014 0.055,0.014 0.062,-0.008 0.098,-0.042 0.104,-0.104 h 0.061 c 0.016,0.135 0.029,0.273 0.041,0.416 0.014,0.143 0.016,0.281 0.008,0.416 h -0.059 c -0.049,-0.139 -0.119,-0.254 -0.215,-0.345 -0.094,-0.092 -0.199,-0.161 -0.314,-0.208 -0.115,-0.048 -0.234,-0.072 -0.359,-0.072 -0.119,0 -0.23,0.022 -0.33,0.066 -0.102,0.044 -0.182,0.109 -0.248,0.197 -0.062,0.088 -0.096,0.195 -0.096,0.322 0,0.1 0.027,0.187 0.08,0.26 0.053,0.076 0.115,0.145 0.189,0.207 0.094,0.075 0.195,0.147 0.301,0.213 0.105,0.066 0.213,0.128 0.322,0.187 l -0.037,-0.017 c 0.119,0.062 0.236,0.13 0.348,0.203 0.111,0.071 0.211,0.154 0.299,0.246 0.088,0.091 0.156,0.194 0.207,0.31 0.051,0.116 0.078,0.247 0.078,0.396 0,0.158 -0.035,0.298 -0.105,0.42 -0.068,0.122 -0.16,0.226 -0.27,0.31 -0.113,0.084 -0.238,0.147 -0.375,0.191 -0.141,0.044 -0.281,0.066 -0.424,0.066 -0.152,0 -0.299,-0.019 -0.438,-0.055 -0.139,-0.037 -0.281,-0.075 -0.428,-0.115 -0.03,0.005 -0.051,0.014 -0.069,0.032"
   clip-path="url(#SVGID_2_)"
   transform="scale(12.89187)" /><path
   style="fill:#ffffff"
   inkscape:connector-curvature="0"
   id="path6581"
   d="m 33.594,14.188 v -0.056 c 0.062,0 0.113,-10e-4 0.15,-0.005 0.037,-0.003 0.068,-0.013 0.09,-0.029 0.023,-0.017 0.037,-0.043 0.045,-0.079 0.008,-0.037 0.01,-0.088 0.01,-0.153 v -3.062 c 0,-0.066 -0.002,-0.117 -0.01,-0.153 -0.008,-0.037 -0.021,-0.063 -0.045,-0.08 -0.021,-0.017 -0.053,-0.026 -0.09,-0.03 -0.037,-0.003 -0.088,-0.005 -0.15,-0.005 v -0.055 h 1.062 v 0.055 c -0.062,0 -0.113,0.002 -0.15,0.005 -0.039,0.004 -0.068,0.014 -0.09,0.03 -0.023,0.017 -0.037,0.043 -0.045,0.08 -0.008,0.036 -0.01,0.087 -0.01,0.153 v 3.062 c 0,0.065 0.002,0.116 0.01,0.153 0.008,0.036 0.021,0.062 0.045,0.079 0.021,0.017 0.051,0.026 0.09,0.029 0.037,0.004 0.088,0.005 0.15,0.005 v 0.056 z"
   clip-path="url(#SVGID_2_)"
   transform="scale(12.89187)" /><path
   style="fill:#ffffff"
   inkscape:connector-curvature="0"
   id="path6583"
   d="m 35.34,14.133 c 0.055,0 0.102,-10e-4 0.137,-0.005 0.037,-0.004 0.064,-0.016 0.084,-0.033 0.018,-0.019 0.029,-0.046 0.037,-0.082 0.008,-0.036 0.012,-0.086 0.012,-0.148 v -3.061 c 0,-0.062 -0.004,-0.112 -0.012,-0.148 -0.008,-0.037 -0.02,-0.063 -0.037,-0.082 -0.02,-0.019 -0.047,-0.029 -0.084,-0.033 -0.035,-0.004 -0.082,-0.006 -0.137,-0.006 v -0.054 h 1.271 c 0.303,0 0.58,0.037 0.83,0.112 0.25,0.074 0.465,0.189 0.643,0.342 0.18,0.152 0.318,0.348 0.416,0.581 0.1,0.233 0.148,0.508 0.148,0.827 0,0.266 -0.043,0.515 -0.127,0.747 -0.084,0.231 -0.229,0.437 -0.438,0.616 -0.211,0.183 -0.449,0.309 -0.711,0.378 -0.264,0.068 -0.531,0.104 -0.807,0.104 H 35.34 Z m 0.735,-0.339 c 0,0.031 0.014,0.059 0.039,0.076 0.025,0.019 0.057,0.031 0.092,0.04 0.037,0.011 0.074,0.016 0.111,0.018 0.035,0.002 0.062,0.003 0.082,0.003 0.266,0 0.508,-0.031 0.727,-0.091 0.221,-0.061 0.406,-0.154 0.559,-0.284 0.154,-0.13 0.273,-0.296 0.357,-0.499 0.084,-0.202 0.125,-0.447 0.125,-0.731 0,-0.27 -0.039,-0.505 -0.119,-0.703 -0.082,-0.198 -0.195,-0.364 -0.344,-0.496 -0.146,-0.131 -0.326,-0.229 -0.535,-0.293 -0.211,-0.063 -0.445,-0.096 -0.705,-0.096 -0.064,0 -0.133,0.006 -0.203,0.016 -0.068,0.012 -0.131,0.039 -0.186,0.082 z"
   clip-path="url(#SVGID_2_)"
   transform="scale(12.89187)" /><path
   style="fill:#ffffff"
   inkscape:connector-curvature="0"
   id="path6585"
   d="m 41.342,14.188 v -0.055 c 0.084,0 0.146,-0.015 0.188,-0.047 0.039,-0.03 0.039,-0.092 0,-0.183 L 41.19,13.07 h -1.648 l -0.307,0.767 c -0.041,0.096 -0.053,0.168 -0.035,0.22 0.016,0.051 0.082,0.076 0.199,0.076 v 0.055 h -0.766 v -0.055 c 0.043,-0.004 0.08,-0.016 0.111,-0.038 0.031,-0.021 0.059,-0.048 0.082,-0.076 0.023,-0.029 0.045,-0.063 0.061,-0.1 0.016,-0.037 0.031,-0.072 0.047,-0.108 l 1.402,-3.368 h 0.301 l 1.457,3.51 c 0.039,0.099 0.117,0.159 0.234,0.181 v 0.055 h -0.986 z m -0.968,-3.17 -0.723,1.785 h 1.445 z"
   clip-path="url(#SVGID_2_)"
   transform="scale(12.89187)" /><path
   style="fill:#ffffff"
   inkscape:connector-curvature="0"
   id="path6587"
   d="m 42.668,14.133 c 0.055,0 0.1,-10e-4 0.137,-0.005 0.035,-0.004 0.064,-0.016 0.082,-0.033 0.018,-0.019 0.031,-0.046 0.039,-0.082 0.006,-0.036 0.01,-0.086 0.01,-0.148 v -3.061 c 0,-0.062 -0.004,-0.112 -0.01,-0.148 -0.008,-0.037 -0.021,-0.063 -0.039,-0.082 -0.018,-0.019 -0.047,-0.029 -0.082,-0.033 -0.037,-0.004 -0.082,-0.006 -0.137,-0.006 v -0.054 h 1.271 c 0.303,0 0.578,0.037 0.828,0.112 0.25,0.074 0.465,0.189 0.645,0.342 0.178,0.152 0.316,0.348 0.416,0.581 0.098,0.233 0.148,0.508 0.148,0.827 0,0.266 -0.043,0.515 -0.127,0.747 -0.084,0.231 -0.23,0.437 -0.438,0.616 -0.213,0.183 -0.449,0.309 -0.713,0.378 -0.262,0.068 -0.531,0.104 -0.805,0.104 h -1.227 v -0.055 z m 0.735,-0.339 c 0,0.031 0.012,0.059 0.037,0.076 0.025,0.019 0.057,0.031 0.094,0.04 0.037,0.011 0.072,0.016 0.109,0.018 0.037,0.002 0.064,0.003 0.082,0.003 0.268,0 0.51,-0.031 0.729,-0.091 0.219,-0.061 0.406,-0.154 0.559,-0.284 0.154,-0.13 0.271,-0.296 0.355,-0.499 0.084,-0.202 0.127,-0.447 0.127,-0.731 0,-0.27 -0.041,-0.505 -0.121,-0.703 -0.08,-0.198 -0.193,-0.364 -0.342,-0.496 -0.148,-0.131 -0.326,-0.229 -0.537,-0.293 -0.209,-0.063 -0.445,-0.096 -0.703,-0.096 -0.066,0 -0.133,0.006 -0.203,0.016 -0.068,0.012 -0.131,0.039 -0.186,0.082 z"
   clip-path="url(#SVGID_2_)"
   transform="scale(12.89187)" /><path
   style="fill:#ffffff"
   inkscape:connector-curvature="0"
   id="path6589"
   d="m 11.01,19.304 c 0.055,0 0.101,-0.002 0.137,-0.005 0.036,-0.004 0.064,-0.016 0.082,-0.033 0.018,-0.02 0.031,-0.046 0.038,-0.082 0.008,-0.036 0.012,-0.086 0.012,-0.149 v -3.06 c 0,-0.063 -0.004,-0.112 -0.012,-0.149 -0.007,-0.036 -0.02,-0.062 -0.038,-0.082 -0.018,-0.018 -0.046,-0.028 -0.082,-0.031 -0.036,-0.004 -0.082,-0.007 -0.137,-0.007 v -0.054 h 1.271 c 0.302,0 0.579,0.037 0.829,0.112 0.25,0.075 0.465,0.188 0.644,0.342 0.178,0.153 0.317,0.347 0.416,0.581 0.098,0.233 0.148,0.508 0.148,0.826 0,0.266 -0.042,0.516 -0.126,0.748 -0.084,0.23 -0.23,0.437 -0.438,0.616 -0.212,0.183 -0.449,0.309 -0.712,0.378 -0.263,0.068 -0.531,0.104 -0.805,0.104 H 11.01 Z m 0.734,-0.339 c 0,0.031 0.013,0.058 0.038,0.076 0.026,0.019 0.057,0.031 0.093,0.04 0.037,0.01 0.074,0.016 0.11,0.018 0.036,0.002 0.064,0.003 0.082,0.003 0.266,0 0.51,-0.031 0.728,-0.091 0.22,-0.062 0.406,-0.155 0.559,-0.284 0.153,-0.13 0.272,-0.296 0.356,-0.499 0.084,-0.202 0.126,-0.447 0.126,-0.731 0,-0.27 -0.04,-0.505 -0.121,-0.703 -0.08,-0.199 -0.194,-0.364 -0.342,-0.495 -0.148,-0.132 -0.327,-0.229 -0.537,-0.293 -0.21,-0.064 -0.444,-0.098 -0.703,-0.098 -0.066,0 -0.134,0.006 -0.203,0.018 -0.069,0.011 -0.131,0.039 -0.186,0.082 z"
   clip-path="url(#SVGID_2_)"
   transform="scale(12.89187)" /><path
   style="fill:#ffffff"
   inkscape:connector-curvature="0"
   id="path6591"
   d="m 17.275,19.359 h -2.498 v -0.056 c 0.114,0 0.185,-0.015 0.214,-0.046 0.029,-0.03 0.044,-0.104 0.044,-0.222 v -3.061 c 0,-0.117 -0.015,-0.191 -0.044,-0.222 -0.029,-0.032 -0.1,-0.047 -0.214,-0.047 V 15.65 h 2.443 l 0.006,0.562 H 17.149 C 17.13,16.074 17.088,15.989 17.02,15.959 16.952,15.927 16.855,15.912 16.727,15.912 h -1.106 c -0.062,0 -0.098,0.006 -0.107,0.02 -0.009,0.013 -0.013,0.048 -0.013,0.106 v 1.254 h 1.111 c 0.059,0 0.11,-0.003 0.153,-0.008 0.044,-0.006 0.08,-0.018 0.107,-0.036 0.028,-0.018 0.049,-0.045 0.063,-0.082 0.015,-0.037 0.026,-0.086 0.033,-0.147 h 0.071 v 0.826 H 16.968 C 16.961,17.78 16.95,17.729 16.935,17.693 16.921,17.656 16.9,17.628 16.872,17.608 16.845,17.587 16.81,17.575 16.768,17.569 16.726,17.564 16.674,17.561 16.612,17.561 h -1.111 v 1.43 c 0,0.032 0.009,0.057 0.029,0.073 0.02,0.016 0.044,0.025 0.072,0.029 0.027,0.005 0.056,0.006 0.088,0.003 0.03,-0.002 0.057,-0.003 0.079,-0.003 h 0.903 c 0.088,0 0.164,-0.005 0.228,-0.013 0.063,-0.009 0.121,-0.029 0.172,-0.058 0.051,-0.029 0.097,-0.068 0.137,-0.117 0.04,-0.05 0.079,-0.116 0.115,-0.2 h 0.088 z"
   clip-path="url(#SVGID_2_)"
   transform="scale(12.89187)" /><path
   style="fill:#ffffff"
   inkscape:connector-curvature="0"
   id="path6593"
   d="m 21.856,19.324 c -0.21,0.066 -0.43,0.102 -0.66,0.102 -0.292,0 -0.552,-0.047 -0.78,-0.14 -0.228,-0.094 -0.423,-0.225 -0.583,-0.393 -0.161,-0.168 -0.284,-0.37 -0.368,-0.604 -0.084,-0.236 -0.126,-0.496 -0.126,-0.78 0,-0.274 0.044,-0.529 0.132,-0.764 0.088,-0.235 0.213,-0.441 0.375,-0.613 0.162,-0.174 0.358,-0.309 0.586,-0.406 0.228,-0.096 0.483,-0.145 0.764,-0.145 0.194,0 0.387,0.021 0.58,0.064 0.022,0.009 0.051,0.017 0.085,0.025 0.035,0.009 0.071,0.019 0.107,0.03 0.036,0.012 0.072,0.02 0.104,0.026 0.033,0.009 0.06,0.013 0.082,0.013 0.07,0 0.114,-0.033 0.132,-0.1 h 0.06 v 0.203 c 0,0.073 -0.001,0.148 -0.003,0.225 -0.002,0.076 -0.005,0.151 -0.01,0.225 -0.006,0.073 -0.016,0.136 -0.031,0.191 -0.128,-0.208 -0.27,-0.366 -0.427,-0.474 -0.157,-0.108 -0.361,-0.162 -0.613,-0.162 -0.245,0 -0.457,0.045 -0.635,0.135 -0.179,0.09 -0.326,0.209 -0.441,0.358 -0.115,0.15 -0.201,0.325 -0.258,0.526 -0.056,0.2 -0.085,0.412 -0.085,0.635 0,0.23 0.03,0.445 0.088,0.646 0.058,0.201 0.147,0.375 0.266,0.524 0.118,0.147 0.268,0.264 0.449,0.349 0.18,0.087 0.395,0.13 0.643,0.13 0.088,0 0.183,-0.003 0.285,-0.006 0.102,-0.004 0.203,-0.013 0.304,-0.029 0.1,-0.018 0.196,-0.042 0.288,-0.077 0.09,-0.034 0.173,-0.083 0.246,-0.146 l 0.022,0.094 c -0.176,0.157 -0.368,0.27 -0.578,0.338"
   clip-path="url(#SVGID_2_)"
   transform="scale(12.89187)" /><path
   style="fill:#ffffff"
   inkscape:connector-curvature="0"
   id="path6595"
   d="m 25.051,19.359 v -0.056 c 0.059,0 0.105,-0.003 0.143,-0.007 0.037,-0.006 0.064,-0.018 0.082,-0.037 0.018,-0.017 0.031,-0.044 0.039,-0.079 0.008,-0.033 0.01,-0.083 0.01,-0.145 V 17.6 h -1.791 v 1.435 c 0,0.062 0.003,0.111 0.009,0.145 0.005,0.035 0.017,0.062 0.035,0.079 0.019,0.02 0.045,0.031 0.08,0.037 0.034,0.004 0.081,0.007 0.14,0.007 v 0.056 h -1.003 v -0.056 c 0.059,0 0.106,-0.003 0.143,-0.007 0.036,-0.006 0.064,-0.018 0.082,-0.037 0.019,-0.017 0.031,-0.044 0.038,-0.079 0.008,-0.033 0.011,-0.083 0.011,-0.145 v -3.061 c 0,-0.062 -0.003,-0.11 -0.011,-0.146 -0.007,-0.034 -0.02,-0.061 -0.038,-0.079 -0.018,-0.019 -0.046,-0.031 -0.082,-0.037 -0.037,-0.004 -0.084,-0.007 -0.143,-0.007 V 15.65 h 1.003 v 0.055 c -0.059,0 -0.105,0.003 -0.14,0.007 -0.035,0.006 -0.062,0.019 -0.08,0.037 -0.018,0.018 -0.03,0.045 -0.035,0.082 -0.006,0.036 -0.009,0.084 -0.009,0.143 v 1.347 h 1.791 v -1.347 c 0,-0.062 -0.002,-0.11 -0.01,-0.146 -0.008,-0.034 -0.021,-0.061 -0.039,-0.079 -0.018,-0.018 -0.045,-0.031 -0.082,-0.037 -0.037,-0.004 -0.084,-0.007 -0.143,-0.007 V 15.65 h 1.008 v 0.055 c -0.059,0 -0.105,0.003 -0.141,0.007 -0.033,0.006 -0.061,0.019 -0.082,0.037 -0.02,0.019 -0.031,0.045 -0.037,0.082 -0.006,0.036 -0.008,0.084 -0.008,0.143 v 3.061 c 0,0.062 0.002,0.111 0.008,0.145 0.006,0.035 0.018,0.062 0.037,0.079 0.021,0.02 0.049,0.031 0.082,0.037 0.035,0.004 0.082,0.007 0.141,0.007 v 0.056 z"
   clip-path="url(#SVGID_2_)"
   transform="scale(12.89187)" /><path
   style="fill:#ffffff"
   inkscape:connector-curvature="0"
   id="path6597"
   d="m 26.743,19.359 v -0.056 c 0.062,0 0.113,-0.002 0.152,-0.005 0.037,-0.003 0.068,-0.013 0.09,-0.029 0.022,-0.016 0.035,-0.043 0.043,-0.079 0.008,-0.037 0.012,-0.088 0.012,-0.154 v -3.061 c 0,-0.066 -0.004,-0.117 -0.012,-0.153 -0.008,-0.037 -0.021,-0.064 -0.043,-0.08 -0.022,-0.016 -0.053,-0.027 -0.09,-0.029 -0.039,-0.004 -0.09,-0.006 -0.152,-0.006 v -0.055 h 1.062 v 0.055 c -0.061,0 -0.111,0.002 -0.15,0.006 -0.037,0.002 -0.068,0.014 -0.09,0.029 -0.022,0.015 -0.037,0.043 -0.043,0.08 -0.008,0.036 -0.012,0.087 -0.012,0.153 v 3.061 c 0,0.066 0.004,0.117 0.012,0.154 0.006,0.036 0.021,0.062 0.043,0.079 0.022,0.017 0.053,0.026 0.09,0.029 0.039,0.003 0.09,0.005 0.15,0.005 v 0.056 z"
   clip-path="url(#SVGID_2_)"
   transform="scale(12.89187)" /><path
   style="fill:#ffffff"
   inkscape:connector-curvature="0"
   id="path6599"
   d="M 30.959,19.359 H 28.49 v -0.056 c 0.059,0 0.105,-0.003 0.139,-0.007 0.035,-0.006 0.062,-0.018 0.08,-0.037 0.018,-0.017 0.029,-0.044 0.035,-0.079 0.006,-0.033 0.008,-0.083 0.008,-0.145 v -3.061 c 0,-0.059 -0.002,-0.106 -0.008,-0.143 -0.006,-0.037 -0.018,-0.063 -0.035,-0.082 -0.017,-0.019 -0.045,-0.031 -0.08,-0.037 -0.033,-0.004 -0.08,-0.007 -0.139,-0.007 V 15.65 h 1.008 v 0.055 c -0.059,0 -0.107,0.003 -0.143,0.007 -0.037,0.006 -0.064,0.019 -0.084,0.037 -0.021,0.019 -0.035,0.045 -0.041,0.079 -0.008,0.035 -0.012,0.083 -0.012,0.146 v 3.018 c 0,0.032 0.01,0.057 0.029,0.073 0.019,0.016 0.045,0.025 0.072,0.029 0.027,0.005 0.057,0.006 0.086,0.003 0.033,-0.002 0.059,-0.003 0.08,-0.003 h 0.799 c 0.1,0 0.188,-0.004 0.264,-0.01 0.076,-0.008 0.145,-0.024 0.203,-0.052 0.059,-0.028 0.109,-0.07 0.156,-0.126 0.045,-0.057 0.09,-0.133 0.133,-0.229 l 0.072,0.018 z"
   clip-path="url(#SVGID_2_)"
   transform="scale(12.89187)" /><path
   style="fill:#ffffff"
   inkscape:connector-curvature="0"
   id="path6601"
   d="m 33.879,19.359 h -2.498 v -0.056 c 0.113,0 0.184,-0.015 0.215,-0.046 0.027,-0.03 0.043,-0.104 0.043,-0.222 v -3.061 c 0,-0.117 -0.016,-0.191 -0.043,-0.222 -0.031,-0.032 -0.102,-0.047 -0.215,-0.047 V 15.65 h 2.443 l 0.006,0.562 H 33.752 C 33.734,16.074 33.691,15.989 33.623,15.959 33.557,15.927 33.459,15.912 33.33,15.912 h -1.105 c -0.062,0 -0.098,0.006 -0.107,0.02 -0.008,0.013 -0.014,0.048 -0.014,0.106 v 1.254 h 1.113 c 0.057,0 0.109,-0.003 0.152,-0.008 0.043,-0.006 0.08,-0.018 0.107,-0.036 0.027,-0.018 0.047,-0.045 0.062,-0.082 0.014,-0.037 0.025,-0.086 0.033,-0.147 h 0.07 v 0.826 h -0.07 C 33.563,17.78 33.551,17.729 33.538,17.693 33.522,17.656 33.503,17.628 33.476,17.608 33.449,17.587 33.414,17.575 33.371,17.569 33.33,17.564 33.277,17.561 33.217,17.561 h -1.113 v 1.43 c 0,0.032 0.01,0.057 0.031,0.073 0.02,0.017 0.043,0.025 0.07,0.029 0.027,0.005 0.057,0.006 0.088,0.003 0.031,-0.002 0.059,-0.003 0.08,-0.003 h 0.902 c 0.088,0 0.164,-0.005 0.229,-0.013 0.062,-0.009 0.121,-0.029 0.172,-0.058 0.051,-0.029 0.098,-0.068 0.137,-0.117 0.041,-0.05 0.078,-0.116 0.115,-0.2 h 0.088 z"
   clip-path="url(#SVGID_2_)"
   transform="scale(12.89187)" /><path
   style="fill:#ececec"
   inkscape:connector-curvature="0"
   id="path6603"
   d="m 7.124,7.481 v 0 C 7.166,7.451 7.136,7.341 7.061,7.235 L 2.429,0.861 C 2.353,0.757 2.257,0.696 2.216,0.727 2.174,0.756 2.203,0.866 2.28,0.97 L 6.911,7.347 C 6.987,7.45 7.083,7.512 7.124,7.481"
   clip-path="url(#SVGID_2_)"
   transform="scale(12.89187)" /><path
   style="fill:#1d1d1b;stroke-width:0.03878413;stroke-miterlimit:4;stroke-dasharray:none;stroke:#afafaf;stroke-opacity:1"
   inkscape:connector-curvature="0"
   id="path6605"
   d="M 7.098,7.493 C 7.048,7.493 6.971,7.434 6.909,7.347 L 2.277,0.972 C 2.219,0.893 2.187,0.808 2.195,0.758 2.198,0.743 2.203,0.73 2.214,0.723 2.222,0.717 2.232,0.715 2.242,0.715 c 0.05,0 0.127,0.058 0.19,0.145 L 7.064,7.235 C 7.122,7.314 7.154,7.399 7.146,7.45 7.143,7.465 7.137,7.477 7.126,7.484 7.118,7.49 7.109,7.493 7.098,7.493 M 2.242,0.722 C 2.233,0.722 2.225,0.724 2.219,0.729 2.21,0.735 2.204,0.745 2.202,0.759 2.195,0.807 2.227,0.891 2.283,0.968 l 4.631,6.376 c 0.06,0.083 0.137,0.142 0.184,0.142 0.01,0 0.018,-0.003 0.024,-0.007 C 7.13,7.473 7.137,7.463 7.138,7.448 7.146,7.401 7.114,7.316 7.058,7.238 L 2.427,0.864 C 2.366,0.781 2.29,0.722 2.242,0.722"
   clip-path="url(#SVGID_2_)"
   transform="scale(12.89187)" /><path
   style="fill:#ececec"
   inkscape:connector-curvature="0"
   id="path6607"
   d="m 0.447,5.211 v 0 C 0.432,5.163 0.521,5.093 0.646,5.055 L 8.181,2.75 C 8.305,2.712 8.419,2.721 8.434,2.77 8.449,2.819 8.36,2.889 8.235,2.928 L 0.7,5.231 C 0.575,5.269 0.462,5.26 0.447,5.211"
   clip-path="url(#SVGID_2_)"
   transform="scale(12.89187)" /><path
   style="fill:#1d1d1b;stroke-width:0.03878413;stroke-miterlimit:4;stroke-dasharray:none;stroke:#afafaf;stroke-opacity:1"
   inkscape:connector-curvature="0"
   id="path6609"
   d="M 0.556,5.259 C 0.494,5.259 0.453,5.242 0.445,5.213 0.429,5.162 0.517,5.09 0.645,5.051 L 8.181,2.747 C 8.232,2.732 8.282,2.723 8.325,2.723 8.388,2.723 8.429,2.74 8.438,2.769 8.453,2.821 8.365,2.892 8.237,2.93 L 0.701,5.234 C 0.65,5.25 0.599,5.259 0.556,5.259 M 8.325,2.73 C 8.282,2.73 8.233,2.738 8.183,2.753 L 0.646,5.057 C 0.525,5.094 0.438,5.164 0.451,5.21 0.459,5.236 0.498,5.251 0.556,5.251 0.599,5.251 0.649,5.243 0.699,5.228 L 8.235,2.924 C 8.358,2.886 8.445,2.818 8.43,2.771 8.422,2.746 8.384,2.73 8.325,2.73"
   clip-path="url(#SVGID_2_)"
   transform="scale(12.89187)" /><path
   style="fill:#ececec"
   inkscape:connector-curvature="0"
   id="path6611"
   d="m 2.036,7.481 v 0 C 1.994,7.451 2.023,7.341 2.099,7.235 L 6.73,0.861 C 6.806,0.757 6.903,0.696 6.943,0.727 6.986,0.756 6.957,0.866 6.88,0.97 L 2.249,7.347 C 2.171,7.45 2.078,7.512 2.036,7.481"
   clip-path="url(#SVGID_2_)"
   transform="scale(12.89187)" /><path
   style="fill:#1d1d1b;stroke-width:0.03878413;stroke-miterlimit:4;stroke-dasharray:none;stroke:#afafaf;stroke-opacity:1"
   inkscape:connector-curvature="0"
   id="path6613"
   d="M 2.062,7.493 C 2.05,7.493 2.041,7.49 2.034,7.484 2.022,7.477 2.018,7.465 2.015,7.45 2.006,7.399 2.039,7.315 2.097,7.235 L 6.729,0.86 C 6.792,0.773 6.868,0.715 6.918,0.715 6.93,0.715 6.94,0.717 6.948,0.723 6.957,0.73 6.964,0.743 6.966,0.758 6.975,0.808 6.942,0.893 6.884,0.972 L 2.25,7.347 C 2.188,7.434 2.111,7.493 2.062,7.493 M 6.917,0.722 C 6.87,0.722 6.795,0.781 6.734,0.864 L 2.103,7.238 C 2.045,7.316 2.014,7.401 2.021,7.449 c 0.003,0.014 0.008,0.024 0.017,0.03 0.006,0.004 0.013,0.007 0.024,0.007 0.046,0 0.123,-0.059 0.184,-0.142 L 6.877,0.968 C 6.934,0.891 6.966,0.807 6.958,0.759 6.956,0.745 6.95,0.735 6.942,0.729 6.936,0.724 6.928,0.722 6.917,0.722"
   clip-path="url(#SVGID_2_)"
   transform="scale(12.89187)" /><path
   style="fill:#ececec"
   inkscape:connector-curvature="0"
   id="path6615"
   d="m 4.593,0.003 v 0 c 0.051,0 0.092,0.105 0.092,0.236 v 7.306 c 0,0.131 -0.041,0.236 -0.092,0.236 -0.051,0 -0.092,-0.105 -0.092,-0.236 V 0.239 c 0,-0.131 0.041,-0.236 0.092,-0.236"
   clip-path="url(#SVGID_2_)"
   transform="scale(12.89187)" /><path
   style="fill:#1d1d1b;stroke-width:0.03878413;stroke-miterlimit:4;stroke-dasharray:none;stroke:#afafaf;stroke-opacity:1"
   inkscape:connector-curvature="0"
   id="path6617"
   d="M 4.593,7.784 C 4.54,7.784 4.496,7.68 4.496,7.545 V 0.239 C 4.496,0.105 4.541,0 4.593,0 4.647,0 4.689,0.105 4.689,0.239 v 7.306 c 0,0.135 -0.042,0.239 -0.096,0.239 m 0,-7.776 c -0.048,0 -0.089,0.103 -0.089,0.231 v 7.306 c 0,0.129 0.041,0.232 0.089,0.232 0.049,0 0.088,-0.103 0.088,-0.232 V 0.239 C 4.681,0.111 4.642,0.008 4.593,0.008"
   clip-path="url(#SVGID_2_)"
   transform="scale(12.89187)" /><path
   style="fill:#ececec"
   inkscape:connector-curvature="0"
   id="path6619"
   d="m 8.7,5.228 v 0 C 8.715,5.18 8.626,5.109 8.502,5.072 L 0.966,2.768 C 0.842,2.729 0.729,2.739 0.714,2.788 0.7,2.836 0.788,2.907 0.913,2.944 L 8.448,5.248 C 8.573,5.287 8.685,5.278 8.7,5.228"
   clip-path="url(#SVGID_2_)"
   transform="scale(12.89187)" /><path
   style="fill:#1d1d1b;stroke-width:0.03878413;stroke-miterlimit:4;stroke-dasharray:none;stroke:#afafaf;stroke-opacity:1"
   inkscape:connector-curvature="0"
   id="path6621"
   d="m 8.592,5.275 v 0 C 8.548,5.275 8.499,5.266 8.448,5.252 L 0.912,2.947 C 0.818,2.918 0.741,2.871 0.717,2.826 0.71,2.812 0.707,2.797 0.711,2.786 0.72,2.757 0.761,2.74 0.823,2.74 c 0.044,0 0.094,0.008 0.145,0.024 L 8.503,5.068 C 8.598,5.097 8.674,5.145 8.698,5.189 8.705,5.204 8.707,5.217 8.703,5.229 8.695,5.259 8.654,5.275 8.592,5.275 M 0.823,2.747 c -0.057,0 -0.097,0.016 -0.105,0.041 -0.003,0.011 -0.001,0.021 0.005,0.034 0.023,0.043 0.1,0.091 0.191,0.119 L 8.45,5.245 C 8.5,5.26 8.55,5.268 8.592,5.268 8.65,5.268 8.689,5.253 8.698,5.228 8.699,5.217 8.698,5.205 8.692,5.194 8.669,5.15 8.592,5.102 8.5,5.074 L 0.966,2.77 C 0.916,2.755 0.866,2.747 0.823,2.747"
   clip-path="url(#SVGID_2_)"
   transform="scale(12.89187)" /><path
   style="fill:#ececec"
   inkscape:connector-curvature="0"
   id="path6623"
   d="m 2.129,3.92 c 0,-0.047 0.106,-0.085 0.236,-0.085 h 4.417 c 0.131,0 0.236,0.038 0.236,0.085 0,0.046 -0.105,0.083 -0.236,0.083 H 2.365 C 2.235,4.003 2.129,3.966 2.129,3.92"
   clip-path="url(#SVGID_2_)"
   transform="scale(12.89187)" /><path
   style="fill:#1d1d1b;stroke:#afafaf;stroke-opacity:1;stroke-width:0.03878413;stroke-miterlimit:4;stroke-dasharray:none"
   inkscape:connector-curvature="0"
   id="path6625"
   d="M 6.782,4.008 H 2.365 c -0.135,0 -0.24,-0.038 -0.24,-0.087 0,-0.05 0.105,-0.089 0.24,-0.089 h 4.417 c 0.134,0 0.239,0.039 0.239,0.089 0,0.049 -0.105,0.087 -0.239,0.087 M 2.365,3.839 C 2.239,3.839 2.133,3.876 2.133,3.921 2.133,3.964 2.239,4 2.365,4 H 6.782 C 6.91,4 7.014,3.964 7.014,3.92 7.014,3.875 6.908,3.838 6.782,3.838 H 2.365 Z"
   clip-path="url(#SVGID_2_)"
   transform="scale(12.89187)" /><path
   style="fill:#ececec"
   inkscape:connector-curvature="0"
   id="path6627"
   d="M 2.572,2.566 C 2.599,2.531 2.706,2.56 2.813,2.633 L 6.432,5.168 C 6.539,5.242 6.604,5.334 6.577,5.372 6.55,5.409 6.442,5.379 6.336,5.306 L 2.716,2.771 C 2.61,2.697 2.545,2.605 2.572,2.566"
   clip-path="url(#SVGID_2_)"
   transform="scale(12.89187)" /><path
   style="fill:#1d1d1b;stroke:#afafaf;stroke-opacity:1;stroke-width:0.03878413;stroke-miterlimit:4;stroke-dasharray:none"
   inkscape:connector-curvature="0"
   id="path6629"
   d="M 6.533,5.391 C 6.484,5.391 6.407,5.36 6.334,5.307 L 2.715,2.774 C 2.605,2.698 2.541,2.605 2.569,2.566 2.577,2.554 2.593,2.548 2.615,2.548 c 0.05,0 0.127,0.031 0.2,0.083 L 6.434,5.164 C 6.486,5.201 6.529,5.242 6.557,5.281 6.586,5.321 6.593,5.354 6.58,5.373 6.571,5.385 6.555,5.391 6.533,5.391 M 2.615,2.555 c -0.02,0 -0.033,0.005 -0.041,0.014 -0.024,0.038 0.04,0.126 0.144,0.199 l 3.62,2.534 c 0.072,0.05 0.148,0.083 0.195,0.083 0.02,0 0.034,-0.007 0.04,-0.016 C 6.586,5.352 6.577,5.321 6.551,5.285 6.525,5.246 6.48,5.205 6.43,5.17 L 2.812,2.637 C 2.739,2.586 2.664,2.555 2.615,2.555"
   clip-path="url(#SVGID_2_)"
   transform="scale(12.89187)" /><path
   style="fill:#ececec"
   inkscape:connector-curvature="0"
   id="path6631"
   d="m 3.847,1.633 c 0.045,-0.013 0.111,0.076 0.15,0.2 L 5.288,6.057 C 5.326,6.181 5.321,6.294 5.276,6.307 5.233,6.32 5.166,6.231 5.128,6.107 L 3.834,1.883 C 3.798,1.758 3.803,1.646 3.847,1.633"
   clip-path="url(#SVGID_2_)"
   transform="scale(12.89187)" /><path
   style="fill:#1d1d1b;stroke-width:0.03878413;stroke-miterlimit:4;stroke-dasharray:none;stroke:#afafaf;stroke-opacity:1"
   inkscape:connector-curvature="0"
   id="path6633"
   d="M 5.269,6.313 C 5.222,6.313 5.16,6.224 5.125,6.108 L 3.833,1.885 C 3.793,1.756 3.8,1.645 3.846,1.631 3.893,1.615 3.96,1.707 4,1.833 L 5.293,6.056 C 5.331,6.185 5.325,6.297 5.278,6.311 5.274,6.312 5.271,6.313 5.269,6.313 M 3.856,1.636 c -0.004,0 -0.006,0 -0.009,0.001 C 3.805,1.65 3.802,1.761 3.839,1.882 l 1.292,4.224 c 0.034,0.112 0.094,0.2 0.137,0.2 0.002,0 0.005,-0.001 0.007,-0.002 C 5.317,6.291 5.32,6.179 5.285,6.059 L 3.993,1.835 C 3.959,1.723 3.898,1.636 3.856,1.636"
   clip-path="url(#SVGID_2_)"
   transform="scale(12.89187)" /><path
   style="fill:#ececec"
   inkscape:connector-curvature="0"
   id="path6635"
   d="M 5.286,1.633 C 5.242,1.62 5.176,1.709 5.137,1.833 L 3.845,6.058 C 3.807,6.182 3.813,6.295 3.857,6.308 3.902,6.321 3.969,6.232 4.006,6.108 L 5.298,1.884 C 5.336,1.758 5.33,1.646 5.286,1.633"
   clip-path="url(#SVGID_2_)"
   transform="scale(12.89187)" /><path
   style="fill:#1d1d1b;stroke:#afafaf;stroke-opacity:1;stroke-width:0.03878413;stroke-miterlimit:4;stroke-dasharray:none"
   inkscape:connector-curvature="0"
   id="path6637"
   d="M 3.866,6.313 C 3.862,6.313 3.86,6.312 3.857,6.311 3.833,6.304 3.819,6.273 3.817,6.224 3.815,6.177 3.824,6.118 3.843,6.056 L 5.134,1.833 C 5.173,1.707 5.241,1.617 5.288,1.631 5.334,1.645 5.34,1.756 5.301,1.885 L 4.01,6.108 C 3.975,6.224 3.913,6.313 3.866,6.313 M 5.278,1.636 C 5.235,1.636 5.175,1.723 5.14,1.835 L 3.849,6.059 c -0.018,0.06 -0.027,0.118 -0.025,0.165 0.002,0.045 0.015,0.074 0.035,0.08 0.002,10e-4 0.004,0.002 0.007,0.002 0.043,0 0.103,-0.088 0.137,-0.2 L 5.295,1.882 C 5.332,1.761 5.328,1.65 5.286,1.637 5.283,1.636 5.28,1.636 5.278,1.636"
   clip-path="url(#SVGID_2_)"
   transform="scale(12.89187)" /><path
   style="fill:#ececec"
   inkscape:connector-curvature="0"
   id="path6639"
   d="M 6.609,2.566 C 6.583,2.531 6.476,2.56 6.368,2.633 L 2.75,5.167 C 2.644,5.242 2.579,5.333 2.605,5.372 2.631,5.409 2.739,5.38 2.846,5.306 L 6.465,2.771 C 6.571,2.697 6.635,2.605 6.609,2.566"
   clip-path="url(#SVGID_2_)"
   transform="scale(12.89187)" /><path
   style="fill:#1d1d1b;stroke-width:0.03878413;stroke-miterlimit:4;stroke-dasharray:none;stroke:#afafaf;stroke-opacity:1"
   inkscape:connector-curvature="0"
   id="path6641"
   d="m 2.648,5.391 v 0 C 2.625,5.391 2.61,5.385 2.602,5.373 2.573,5.333 2.637,5.241 2.747,5.164 L 6.366,2.631 C 6.439,2.579 6.515,2.548 6.567,2.548 6.588,2.548 6.604,2.554 6.612,2.566 6.64,2.605 6.577,2.698 6.467,2.774 L 2.849,5.307 C 2.775,5.36 2.697,5.391 2.648,5.391 M 6.567,2.555 C 6.518,2.555 6.442,2.586 6.37,2.637 L 2.751,5.17 C 2.649,5.242 2.583,5.333 2.608,5.369 c 0.007,0.009 0.021,0.016 0.04,0.016 0.048,0 0.124,-0.033 0.195,-0.083 L 6.463,2.768 C 6.567,2.695 6.632,2.607 6.607,2.569 6.6,2.56 6.586,2.555 6.567,2.555"
   clip-path="url(#SVGID_2_)"
   transform="scale(12.89187)" />
<g
   id="g6711"
   transform="scale(12.89187)">
	<defs
   id="defs6646">
		<polygon
   id="SVGID_3_"
   points="5.333,4.172 6.512,3.314 5.053,3.311 4.601,1.925 4.149,3.311 2.69,3.314 3.87,4.172 3.421,5.559 4.601,4.704 5.783,5.559 " />
	</defs>
	<clipPath
   id="SVGID_4_">
		<use
   xlink:href="#SVGID_3_"
   overflow="visible"
   id="use6648"
   style="overflow:visible"
   x="0"
   y="0"
   width="100%"
   height="100%" />
	</clipPath>
	<path
   clip-path="url(#SVGID_4_)"
   d="m 6.806,3.741 c 0,-1.218 -0.987,-2.205 -2.205,-2.205 -1.216,0 -2.204,0.987 -2.204,2.205 0,1.216 0.988,2.205 2.204,2.205 1.218,0 2.205,-0.988 2.205,-2.205 M 6.732,3.742 v 0 c 0,1.176 -0.955,2.129 -2.131,2.129 -1.175,0 -2.13,-0.953 -2.13,-2.129 0,-1.176 0.955,-2.13 2.13,-2.13 1.176,0 2.131,0.954 2.131,2.13"
   id="path6651"
   inkscape:connector-curvature="0"
   style="fill:#e5e3e1" />
	<path
   clip-path="url(#SVGID_4_)"
   d="m 6.732,3.745 c 0,-1.176 -0.955,-2.13 -2.131,-2.13 -1.175,0 -2.13,0.954 -2.13,2.13 0,1.176 0.955,2.13 2.13,2.13 1.176,0 2.131,-0.955 2.131,-2.13 M 6.656,3.742 v 0 c 0,1.135 -0.92,2.056 -2.055,2.056 -1.135,0 -2.055,-0.921 -2.055,-2.056 0,-1.135 0.92,-2.055 2.055,-2.055 1.135,10e-4 2.055,0.92 2.055,2.055"
   id="path6653"
   inkscape:connector-curvature="0"
   style="fill:#e6e4e2" />
	<path
   clip-path="url(#SVGID_4_)"
   d="m 6.657,3.745 c 0,-1.134 -0.921,-2.056 -2.055,-2.056 -1.135,0 -2.055,0.922 -2.055,2.056 0,1.135 0.92,2.056 2.055,2.056 C 5.735,5.8 6.657,4.879 6.657,3.745 M 6.583,3.742 v 0 c 0,1.093 -0.887,1.98 -1.981,1.98 -1.093,0 -1.981,-0.887 -1.981,-1.98 0,-1.093 0.888,-1.98 1.981,-1.98 1.093,0 1.981,0.887 1.981,1.98"
   id="path6655"
   inkscape:connector-curvature="0"
   style="fill:#e7e5e3" />
	<path
   clip-path="url(#SVGID_4_)"
   d="m 6.583,3.745 c 0,-1.094 -0.887,-1.98 -1.981,-1.98 -1.093,0 -1.981,0.886 -1.981,1.98 0,1.093 0.888,1.98 1.981,1.98 1.093,0 1.981,-0.888 1.981,-1.98 M 6.507,3.742 v 0 c 0,1.052 -0.853,1.906 -1.906,1.906 -1.052,0 -1.905,-0.854 -1.905,-1.906 0,-1.052 0.853,-1.905 1.905,-1.905 1.053,0 1.906,0.853 1.906,1.905"
   id="path6657"
   inkscape:connector-curvature="0"
   style="fill:#e7e6e4" />
	<path
   clip-path="url(#SVGID_4_)"
   d="m 6.508,3.741 c 0,-1.052 -0.853,-1.907 -1.907,-1.907 -1.051,0 -1.904,0.855 -1.904,1.907 0,1.052 0.853,1.905 1.904,1.905 1.054,0 1.907,-0.853 1.907,-1.905 M 6.433,3.742 v 0 c 0,1.011 -0.82,1.831 -1.832,1.831 -1.009,0 -1.83,-0.82 -1.83,-1.831 0,-1.01 0.821,-1.831 1.83,-1.831 1.012,10e-4 1.832,0.821 1.832,1.831"
   id="path6659"
   inkscape:connector-curvature="0"
   style="fill:#e8e7e5" />
	<path
   clip-path="url(#SVGID_4_)"
   d="m 6.433,3.741 c 0,-1.011 -0.82,-1.832 -1.831,-1.832 -1.01,0 -1.831,0.821 -1.831,1.832 0,1.011 0.821,1.831 1.831,1.831 1.01,0 1.831,-0.82 1.831,-1.831 M 6.357,3.742 v 0 c 0,0.969 -0.786,1.756 -1.756,1.756 -0.97,0 -1.756,-0.787 -1.756,-1.756 0,-0.969 0.786,-1.756 1.756,-1.756 0.97,0 1.756,0.787 1.756,1.756"
   id="path6661"
   inkscape:connector-curvature="0"
   style="fill:#eae8e6" />
	<path
   clip-path="url(#SVGID_4_)"
   d="M 6.357,3.741 C 6.357,2.77 5.572,1.984 4.601,1.984 3.632,1.984 2.845,2.77 2.845,3.741 2.845,4.71 3.632,5.496 4.601,5.496 5.572,5.497 6.357,4.71 6.357,3.741 M 6.283,3.742 v 0 C 6.283,4.671 5.53,5.424 4.601,5.424 3.673,5.424 2.92,4.671 2.92,3.742 2.92,2.814 3.673,2.061 4.601,2.061 5.53,2.062 6.283,2.814 6.283,3.742"
   id="path6663"
   inkscape:connector-curvature="0"
   style="fill:#ebe9e7" />
	<path
   clip-path="url(#SVGID_4_)"
   d="M 6.283,3.741 C 6.283,2.812 5.53,2.06 4.601,2.06 3.673,2.06 2.92,2.812 2.92,3.741 c 0,0.927 0.753,1.682 1.681,1.682 0.929,0 1.682,-0.755 1.682,-1.682 M 6.208,3.742 v 0 c 0,0.887 -0.719,1.606 -1.607,1.606 -0.887,0 -1.606,-0.719 -1.606,-1.606 0,-0.888 0.719,-1.606 1.606,-1.606 0.888,0 1.607,0.718 1.607,1.606"
   id="path6665"
   inkscape:connector-curvature="0"
   style="fill:#eceae8" />
	<path
   clip-path="url(#SVGID_4_)"
   d="m 6.208,3.741 c 0,-0.888 -0.72,-1.607 -1.607,-1.607 -0.887,0 -1.607,0.719 -1.607,1.607 0,0.886 0.72,1.606 1.607,1.606 0.887,10e-4 1.607,-0.72 1.607,-1.606 M 6.133,3.742 v 0 c 0,0.845 -0.687,1.532 -1.532,1.532 -0.846,0 -1.532,-0.687 -1.532,-1.532 0,-0.846 0.686,-1.532 1.532,-1.532 0.845,0 1.532,0.686 1.532,1.532"
   id="path6667"
   inkscape:connector-curvature="0"
   style="fill:#edebe9" />
	<path
   clip-path="url(#SVGID_4_)"
   d="M 6.134,3.745 C 6.134,2.9 5.447,2.214 4.601,2.214 3.756,2.214 3.07,2.9 3.07,3.745 3.07,4.591 3.756,5.277 4.601,5.277 5.447,5.276 6.134,4.59 6.134,3.745 M 6.059,3.742 v 0 C 6.059,4.546 5.407,5.2 4.601,5.2 3.797,5.2 3.144,4.546 3.144,3.742 3.144,2.937 3.797,2.284 4.601,2.284 5.407,2.285 6.059,2.938 6.059,3.742"
   id="path6669"
   inkscape:connector-curvature="0"
   style="fill:#edeceb" />
	<path
   clip-path="url(#SVGID_4_)"
   d="m 6.059,3.745 c 0,-0.804 -0.652,-1.457 -1.457,-1.457 -0.805,0 -1.458,0.653 -1.458,1.457 0,0.804 0.653,1.457 1.458,1.457 0.804,0 1.457,-0.654 1.457,-1.457 M 5.984,3.742 v 0 c 0,0.763 -0.619,1.383 -1.383,1.383 -0.763,0 -1.383,-0.62 -1.383,-1.383 0,-0.763 0.62,-1.383 1.383,-1.383 0.764,0 1.383,0.62 1.383,1.383"
   id="path6671"
   inkscape:connector-curvature="0"
   style="fill:#eeedec" />
	<path
   clip-path="url(#SVGID_4_)"
   d="m 5.984,3.745 c 0,-0.764 -0.619,-1.383 -1.383,-1.383 -0.763,0 -1.382,0.619 -1.382,1.383 0,0.764 0.619,1.382 1.382,1.382 C 5.365,5.126 5.984,4.508 5.984,3.745 M 5.909,3.742 v 0 C 5.909,4.464 5.323,5.05 4.601,5.05 3.879,5.05 3.293,4.464 3.293,3.742 3.293,3.02 3.879,2.434 4.601,2.434 5.323,2.435 5.909,3.021 5.909,3.742"
   id="path6673"
   inkscape:connector-curvature="0"
   style="fill:#efedec" />
	<path
   clip-path="url(#SVGID_4_)"
   d="m 5.909,3.741 c 0,-0.722 -0.586,-1.308 -1.308,-1.308 -0.722,0 -1.308,0.587 -1.308,1.308 0,0.721 0.586,1.308 1.308,1.308 0.722,0 1.308,-0.587 1.308,-1.308 M 5.835,3.742 v 0 c 0,0.682 -0.554,1.233 -1.234,1.233 -0.68,0 -1.233,-0.551 -1.233,-1.233 0,-0.681 0.553,-1.233 1.233,-1.233 0.68,0 1.234,0.553 1.234,1.233"
   id="path6675"
   inkscape:connector-curvature="0"
   style="fill:#f0eeee" />
	<path
   clip-path="url(#SVGID_4_)"
   d="m 5.835,3.741 c 0,-0.682 -0.554,-1.234 -1.234,-1.234 -0.68,0 -1.233,0.552 -1.233,1.234 0,0.681 0.553,1.232 1.233,1.232 0.68,0.001 1.234,-0.551 1.234,-1.232 M 5.76,3.742 v 0 C 5.76,4.382 5.24,4.9 4.601,4.9 3.962,4.9 3.443,4.382 3.443,3.742 c 0,-0.641 0.519,-1.158 1.158,-1.158 0.639,0 1.159,0.518 1.159,1.158"
   id="path6677"
   inkscape:connector-curvature="0"
   style="fill:#f1efef" />
	<path
   clip-path="url(#SVGID_4_)"
   d="m 5.761,3.741 c 0,-0.641 -0.52,-1.159 -1.159,-1.159 -0.64,0 -1.158,0.518 -1.158,1.159 0,0.639 0.518,1.158 1.158,1.158 0.639,0 1.159,-0.519 1.159,-1.158 M 5.685,3.742 v 0 c 0,0.599 -0.485,1.083 -1.083,1.083 -0.599,0 -1.084,-0.484 -1.084,-1.083 0,-0.599 0.485,-1.084 1.084,-1.084 0.598,0 1.083,0.486 1.083,1.084"
   id="path6679"
   inkscape:connector-curvature="0"
   style="fill:#f2f0f0" />
	<path
   clip-path="url(#SVGID_4_)"
   d="M 5.685,3.741 C 5.685,3.142 5.2,2.657 4.601,2.657 c -0.598,0 -1.083,0.485 -1.083,1.084 0,0.599 0.485,1.083 1.083,1.083 0.599,0 1.084,-0.484 1.084,-1.083 M 5.611,3.742 v 0 c 0,0.557 -0.453,1.009 -1.01,1.009 -0.556,0 -1.009,-0.452 -1.009,-1.009 0,-0.557 0.453,-1.009 1.009,-1.009 0.557,0 1.01,0.453 1.01,1.009"
   id="path6681"
   inkscape:connector-curvature="0"
   style="fill:#f3f1f1" />
	<path
   clip-path="url(#SVGID_4_)"
   d="m 5.611,3.741 c 0,-0.557 -0.452,-1.009 -1.01,-1.009 -0.556,0 -1.008,0.452 -1.008,1.009 0,0.557 0.452,1.009 1.008,1.009 0.558,0 1.01,-0.452 1.01,-1.009 M 5.536,3.742 v 0 c 0,0.516 -0.418,0.934 -0.935,0.934 -0.515,0 -0.934,-0.418 -0.934,-0.934 0,-0.516 0.419,-0.935 0.934,-0.935 0.517,10e-4 0.935,0.42 0.935,0.935"
   id="path6683"
   inkscape:connector-curvature="0"
   style="fill:#f3f3f2" />
	<path
   clip-path="url(#SVGID_4_)"
   d="M 5.535,3.745 C 5.535,3.229 5.117,2.81 4.601,2.81 4.085,2.81 3.666,3.229 3.666,3.745 3.666,4.26 4.085,4.679 4.601,4.679 5.117,4.678 5.535,4.259 5.535,3.745 M 5.461,3.742 v 0 c 0,0.475 -0.385,0.859 -0.86,0.859 -0.474,0 -0.859,-0.384 -0.859,-0.859 0,-0.475 0.385,-0.859 0.859,-0.859 0.475,0 0.86,0.385 0.86,0.859"
   id="path6685"
   inkscape:connector-curvature="0"
   style="fill:#f4f3f3" />
	<path
   clip-path="url(#SVGID_4_)"
   d="m 5.462,3.745 c 0,-0.476 -0.386,-0.859 -0.861,-0.859 -0.473,0 -0.859,0.383 -0.859,0.859 0,0.474 0.386,0.859 0.859,0.859 0.475,0 0.861,-0.386 0.861,-0.859 M 5.387,3.742 v 0 c 0,0.433 -0.353,0.785 -0.786,0.785 -0.432,0 -0.784,-0.352 -0.784,-0.785 0,-0.434 0.352,-0.785 0.784,-0.785 0.433,0.001 0.786,0.352 0.786,0.785"
   id="path6687"
   inkscape:connector-curvature="0"
   style="fill:#f5f4f4" />
	<path
   clip-path="url(#SVGID_4_)"
   d="m 5.387,3.745 c 0,-0.434 -0.352,-0.784 -0.785,-0.784 -0.433,0 -0.785,0.35 -0.785,0.784 0,0.433 0.352,0.785 0.785,0.785 0.433,0 0.785,-0.353 0.785,-0.785 M 5.312,3.742 v 0 c 0,0.393 -0.318,0.71 -0.71,0.71 -0.392,0 -0.71,-0.317 -0.71,-0.71 0,-0.392 0.318,-0.71 0.71,-0.71 0.392,0 0.71,0.319 0.71,0.71"
   id="path6689"
   inkscape:connector-curvature="0"
   style="fill:#f6f5f5" />
	<path
   clip-path="url(#SVGID_4_)"
   d="m 5.312,3.741 c 0,-0.392 -0.318,-0.71 -0.711,-0.71 -0.391,0 -0.709,0.318 -0.709,0.71 0,0.392 0.318,0.709 0.709,0.709 0.393,0 0.711,-0.317 0.711,-0.709 M 5.238,3.742 v 0 c 0,0.351 -0.286,0.635 -0.637,0.635 -0.35,0 -0.635,-0.284 -0.635,-0.635 0,-0.35 0.285,-0.634 0.635,-0.634 0.351,0 0.637,0.285 0.637,0.634"
   id="path6691"
   inkscape:connector-curvature="0"
   style="fill:#f7f6f6" />
	<path
   clip-path="url(#SVGID_4_)"
   d="m 5.238,3.741 c 0,-0.351 -0.285,-0.635 -0.637,-0.635 -0.35,0 -0.635,0.284 -0.635,0.635 0,0.35 0.285,0.636 0.635,0.636 0.352,0 0.637,-0.286 0.637,-0.636 M 5.162,3.742 v 0 c 0,0.31 -0.251,0.561 -0.561,0.561 -0.309,0 -0.56,-0.251 -0.56,-0.561 0,-0.309 0.251,-0.56 0.56,-0.56 0.31,10e-4 0.561,0.252 0.561,0.56"
   id="path6693"
   inkscape:connector-curvature="0"
   style="fill:#f8f7f7" />
	<path
   clip-path="url(#SVGID_4_)"
   d="m 5.162,3.741 c 0,-0.31 -0.251,-0.561 -0.561,-0.561 -0.309,0 -0.56,0.251 -0.56,0.561 0,0.31 0.251,0.56 0.56,0.56 0.31,0 0.561,-0.25 0.561,-0.56 M 5.087,3.742 v 0 c 0,0.268 -0.217,0.486 -0.486,0.486 -0.267,0 -0.486,-0.218 -0.486,-0.486 0,-0.268 0.219,-0.486 0.486,-0.486 0.269,0 0.486,0.219 0.486,0.486"
   id="path6695"
   inkscape:connector-curvature="0"
   style="fill:#f9f8f8" />
	<path
   clip-path="url(#SVGID_4_)"
   d="m 5.087,3.741 c 0,-0.269 -0.217,-0.487 -0.486,-0.487 -0.267,0 -0.485,0.218 -0.485,0.487 0,0.268 0.218,0.484 0.485,0.484 C 4.87,4.226 5.087,4.009 5.087,3.741 M 5.013,3.742 v 0 c 0,0.227 -0.185,0.412 -0.412,0.412 -0.226,0 -0.41,-0.185 -0.41,-0.412 0,-0.227 0.184,-0.411 0.41,-0.411 0.227,10e-4 0.412,0.185 0.412,0.411"
   id="path6697"
   inkscape:connector-curvature="0"
   style="fill:#f9f9f9" />
	<path
   clip-path="url(#SVGID_4_)"
   d="m 5.013,3.745 c 0,-0.228 -0.184,-0.411 -0.411,-0.411 -0.227,0 -0.412,0.183 -0.412,0.411 0,0.226 0.184,0.412 0.411,0.412 0.227,0 0.412,-0.187 0.412,-0.412 M 4.938,3.742 v 0 c 0,0.185 -0.15,0.336 -0.336,0.336 -0.185,0 -0.336,-0.151 -0.336,-0.336 0,-0.186 0.151,-0.336 0.336,-0.336 0.186,0 0.336,0.151 0.336,0.336"
   id="path6699"
   inkscape:connector-curvature="0"
   style="fill:#fafafa" />
	<path
   clip-path="url(#SVGID_4_)"
   d="m 4.938,3.745 c 0,-0.186 -0.151,-0.336 -0.337,-0.336 -0.185,0 -0.336,0.15 -0.336,0.336 0,0.186 0.151,0.336 0.336,0.336 0.186,0 0.337,-0.15 0.337,-0.336 M 4.864,3.742 v 0 c 0,0.144 -0.118,0.261 -0.263,0.261 -0.144,0 -0.261,-0.117 -0.261,-0.261 0,-0.145 0.117,-0.261 0.261,-0.261 0.145,0 0.263,0.117 0.263,0.261"
   id="path6701"
   inkscape:connector-curvature="0"
   style="fill:#fbfbfb" />
	<path
   clip-path="url(#SVGID_4_)"
   d="M 4.864,3.745 C 4.864,3.6 4.746,3.483 4.602,3.483 4.457,3.482 4.34,3.6 4.34,3.745 4.34,3.89 4.457,4.007 4.602,4.007 4.746,4.006 4.864,3.89 4.864,3.745 M 4.789,3.742 v 0 c 0,0.103 -0.083,0.187 -0.187,0.187 -0.104,0 -0.188,-0.084 -0.188,-0.187 0,-0.103 0.084,-0.187 0.188,-0.187 0.104,0 0.187,0.085 0.187,0.187"
   id="path6703"
   inkscape:connector-curvature="0"
   style="fill:#fcfcfc" />
	<path
   clip-path="url(#SVGID_4_)"
   d="m 4.789,3.745 c 0,-0.103 -0.083,-0.186 -0.187,-0.186 -0.103,0 -0.187,0.083 -0.187,0.186 0,0.103 0.084,0.186 0.187,0.186 0.104,0 0.187,-0.083 0.187,-0.186 M 4.713,3.742 v 0 c 0,0.062 -0.05,0.112 -0.112,0.112 -0.061,0 -0.112,-0.05 -0.112,-0.112 0,-0.062 0.051,-0.111 0.112,-0.111 0.063,0 0.112,0.05 0.112,0.111"
   id="path6705"
   inkscape:connector-curvature="0"
   style="fill:#fdfdfd" />
	<path
   clip-path="url(#SVGID_4_)"
   d="m 4.713,3.741 c 0,-0.063 -0.05,-0.113 -0.112,-0.113 -0.061,0 -0.111,0.05 -0.111,0.113 0,0.061 0.05,0.111 0.111,0.111 0.062,0.001 0.112,-0.05 0.112,-0.111 M 4.638,3.742 v 0 c 0,0.021 -0.016,0.037 -0.037,0.037 -0.021,0 -0.037,-0.015 -0.037,-0.037 0,-0.021 0.016,-0.037 0.037,-0.037 0.021,0 0.037,0.016 0.037,0.037"
   id="path6707"
   inkscape:connector-curvature="0"
   style="fill:#fdffff" />
	<path
   clip-path="url(#SVGID_4_)"
   d="M 4.638,3.741 C 4.638,3.72 4.622,3.704 4.601,3.704 4.58,3.704 4.564,3.72 4.564,3.741 c 0,0.02 0.016,0.037 0.037,0.037 0.021,0 0.037,-0.017 0.037,-0.037"
   id="path6709"
   inkscape:connector-curvature="0"
   style="fill:#ffffff" />
</g>
<g
   id="g6847"
   transform="scale(12.89187)">
	<defs
   id="defs6714">
		<rect
   id="SVGID_5_"
   width="47.125"
   height="19.761"
   x="0"
   y="0" />
	</defs>
	<clipPath
   id="SVGID_6_">
		<use
   xlink:href="#SVGID_5_"
   overflow="visible"
   id="use6716"
   style="overflow:visible"
   x="0"
   y="0"
   width="100%"
   height="100%" />
	</clipPath>
	<path
   clip-path="url(#SVGID_6_)"
   d="M 5.789,5.569 5.78,5.562 4.607,4.711 H 4.603 V 4.709 L 4.601,4.708 3.412,5.569 3.417,5.558 3.866,4.174 2.679,3.311 H 2.69 L 4.146,3.309 4.601,1.913 4.605,1.924 5.056,3.309 6.447,3.311 6.449,3.31 V 3.311 H 6.524 L 6.515,3.316 5.338,4.174 Z M 3.87,4.183 3.427,5.55 3.451,5.532 3.448,5.53 4.589,3.941 H 4.588 Z M 5.767,5.544 5.776,5.55 5.33,4.17 5.332,4.169 6.502,3.317 6.449,3.316 4.607,3.936 4.613,3.943 5.331,4.178 5.328,4.183 4.619,3.953 5.77,5.543 Z M 4.61,4.706 5.756,5.537 4.608,3.947 H 4.607 Z M 4.595,3.944 3.46,5.527 4.601,4.698 4.603,4.701 4.6,3.946 Z M 2.702,3.317 3.873,4.17 3.872,4.175 4.576,3.939 2.77,3.35 2.772,3.343 4.588,3.935 4.596,3.932 4.149,3.314 Z M 5.05,3.312 4.607,3.927 6.426,3.316 5.051,3.314 Z M 4.154,3.308 4.6,3.925 4.592,1.972 H 4.599 L 4.607,3.916 5.047,3.304 5.048,3.306 4.601,1.936 Z"
   id="path6719"
   inkscape:connector-curvature="0"
   style="fill:#1d1d1b;stroke:#c6c6c6;stroke-opacity:1;stroke-width:0.03878413;stroke-miterlimit:4;stroke-dasharray:none" />
	<path
   clip-path="url(#SVGID_6_)"
   d="m 9.143,7.582 v 11.262 c 0,0.297 -0.188,0.568 -0.575,0.568 h -3.59 c -0.422,0 -0.387,0.244 -0.387,0.244 0,-0.176 -0.128,-0.244 -0.414,-0.244 H 0.539 C 0.197,19.412 0,19.125 0,18.843 V 7.582 Z"
   id="path6721"
   inkscape:connector-curvature="0"
   style="fill:#1d1d1b" />
	<polygon
   clip-path="url(#SVGID_6_)"
   points="0.074,13.446 0.074,7.642 4.556,7.656 4.556,13.446 "
   id="polygon6723"
   style="fill:#007957" />
	<rect
   x="4.6279998"
   y="7.6560001"
   clip-path="url(#SVGID_6_)"
   width="4.441"
   height="5.79"
   id="rect6725"
   style="fill:#f2d454" />
	<path
   clip-path="url(#SVGID_6_)"
   d="M 0.578,19.337 C 0.3,19.337 0.074,19.12 0.074,18.843 v -5.324 h 4.482 v 5.892 c 0,0 -0.032,-0.054 -0.21,-0.073 H 0.578 Z"
   id="path6727"
   inkscape:connector-curvature="0"
   style="fill:#c5452e" />
	<path
   clip-path="url(#SVGID_6_)"
   d="m 8.568,19.337 c 0.278,0 0.501,-0.217 0.501,-0.494 v -5.324 h -4.44 v 5.892 c 0,0 0.023,-0.054 0.201,-0.073 h 3.738 z"
   id="path6729"
   inkscape:connector-curvature="0"
   style="fill:#004e93" />
	<polygon
   clip-path="url(#SVGID_6_)"
   points="2.261,8.206 2.111,12.154 2.479,12.154 "
   id="polygon6731"
   style="fill:#ffffff" />
	<path
   clip-path="url(#SVGID_6_)"
   d="M 2.498,12.17 H 2.092 V 12.152 L 2.245,8.204 H 2.277 Z M 2.127,12.136 H 2.461 L 2.264,8.565 Z"
   id="path6733"
   inkscape:connector-curvature="0"
   style="fill:#1d1d1b" />
	<rect
   x="1.656"
   y="11.363"
   clip-path="url(#SVGID_6_)"
   width="1.227"
   height="0.186"
   id="rect6735"
   style="fill:#ffffff" />
	<path
   clip-path="url(#SVGID_6_)"
   d="M 2.9,11.566 H 1.639 v -0.22 H 2.9 Z M 1.674,11.531 h 1.193 v -0.15 H 1.674 Z"
   id="path6737"
   inkscape:connector-curvature="0"
   style="fill:#1d1d1b" />
	<path
   clip-path="url(#SVGID_6_)"
   d="m 1.891,12.169 c 0,0 -0.032,0.403 0.42,0.403 0,0 0.386,-0.018 0.386,-0.42 z"
   id="path6739"
   inkscape:connector-curvature="0"
   style="fill:#ffffff" />
	<path
   clip-path="url(#SVGID_6_)"
   d="m 2.311,12.589 v 0 c -0.147,0 -0.26,-0.042 -0.336,-0.125 -0.113,-0.122 -0.101,-0.29 -0.101,-0.297 l 10e-4,-0.014 0.016,-0.001 0.824,-0.019 v 0.02 c 0,0.414 -0.398,0.436 -0.404,0.436 z M 1.908,12.187 c 0,0.042 0.007,0.165 0.092,0.257 0.069,0.074 0.174,0.112 0.311,0.112 0.019,-10e-4 0.36,-0.022 0.369,-0.387 z"
   id="path6741"
   inkscape:connector-curvature="0"
   style="fill:#1d1d1b" />
	<path
   clip-path="url(#SVGID_6_)"
   d="M 2.121,12.116 2.099,12.09 2.444,11.795 2.466,11.82 Z m 0.017,-0.269 -0.021,-0.026 0.319,-0.276 0.021,0.024 z"
   id="path6743"
   inkscape:connector-curvature="0"
   style="fill:#1d1d1b" />
	<path
   clip-path="url(#SVGID_6_)"
   d="M 3.454,8.777 2.984,9.92 H 3.942 Z M 1.103,8.826 0.615,9.936 H 1.573 Z M 1.119,8.541 0.464,9.919 c 0,0 0.033,0.621 0.621,0.621 0,0 0.605,-0.033 0.605,-0.604 L 1.168,8.709 H 3.353 L 2.867,9.936 c 0,0 -0.017,0.604 0.621,0.604 0,0 0.588,-0.084 0.588,-0.604 L 3.421,8.541 Z"
   id="path6745"
   inkscape:connector-curvature="0"
   style="clip-rule:evenodd;fill:#ffffff;fill-rule:evenodd" />
	<path
   clip-path="url(#SVGID_6_)"
   d="m 3.488,10.558 v 0 C 3.29,10.558 3.132,10.498 3.021,10.384 2.843,10.203 2.849,9.946 2.849,9.935 L 2.851,9.929 3.329,8.726 H 1.195 l 0.511,1.209 c 0,0.305 -0.168,0.457 -0.31,0.531 -0.153,0.082 -0.304,0.09 -0.31,0.09 C 0.773,10.558 0.616,10.383 0.54,10.239 0.457,10.081 0.447,9.927 0.447,9.92 L 0.446,9.916 0.449,9.913 1.108,8.525 h 2.323 l 0.004,0.009 0.657,1.401 c 0,0.529 -0.596,0.621 -0.602,0.621 z M 0.481,9.921 C 0.485,9.98 0.538,10.525 1.085,10.525 1.108,10.523 1.67,10.484 1.673,9.939 L 1.145,8.693 H 3.379 L 2.883,9.939 c 0,0.029 0.004,0.263 0.162,0.425 0.104,0.106 0.253,0.159 0.44,0.161 C 3.5,10.521 3.637,10.498 3.773,10.42 3.962,10.309 4.057,10.149 4.059,9.94 L 3.41,8.558 H 1.129 Z M 1.597,9.953 H 0.59 L 1.102,8.785 Z M 0.64,9.919 H 1.547 L 1.103,8.87 Z M 3.966,9.935 H 2.959 L 3.454,8.734 Z M 3.008,9.902 H 3.916 L 3.454,8.82 Z"
   id="path6747"
   inkscape:connector-curvature="0"
   style="fill:#1d1d1b" />
	<polygon
   clip-path="url(#SVGID_6_)"
   points="5.428,17.339 8.255,17.118 8.582,17.305 7.782,18.245 7.782,18.79 5.079,18.048 5.118,17.664 "
   id="polygon6749"
   style="fill:#f6cd48" />
	<path
   clip-path="url(#SVGID_6_)"
   d="M 7.8,18.81 5.06,18.059 5.103,17.656 5.42,17.323 H 5.428 L 8.26,17.099 8.264,17.102 8.608,17.301 8.594,17.316 7.8,18.251 Z m -2.703,-0.773 2.669,0.73 V 18.238 L 7.77,18.232 8.555,17.31 8.25,17.135 l -2.815,0.219 -0.3,0.317 z"
   id="path6751"
   inkscape:connector-curvature="0"
   style="fill:#1d1d1b" />
	<polygon
   clip-path="url(#SVGID_6_)"
   points="8.248,17.218 8.256,16.932 7.597,17.739 7.613,18.177 8.403,17.266 "
   id="polygon6753"
   style="fill:#ffffff" />
	<path
   clip-path="url(#SVGID_6_)"
   d="m 7.597,18.221 -0.018,-0.489 0.005,-0.005 0.69,-0.843 -0.01,0.32 0.168,0.054 z M 7.613,17.745 7.628,18.134 8.374,17.273 8.23,17.229 8.237,16.98 Z"
   id="path6755"
   inkscape:connector-curvature="0"
   style="fill:#1d1d1b" />
	<polygon
   clip-path="url(#SVGID_6_)"
   points="7.774,18.251 7.774,18.773 8.712,17.739 8.581,17.639 8.556,17.323 "
   id="polygon6757"
   style="fill:#ffffff" />
	<path
   clip-path="url(#SVGID_6_)"
   d="M 7.757,18.817 V 18.244 L 8.57,17.28 8.597,17.632 8.736,17.737 8.725,17.75 Z M 7.792,18.258 V 18.73 L 8.688,17.74 8.565,17.649 8.543,17.364 Z"
   id="path6759"
   inkscape:connector-curvature="0"
   style="fill:#1d1d1b" />
	<polygon
   clip-path="url(#SVGID_6_)"
   points="5.957,17.908 5.665,17.842 5.665,18.22 5.632,18.22 5.632,17.833 5.131,17.723 5.139,17.69 7.754,18.276 7.747,18.309 7.025,18.148 7.025,18.561 6.992,18.561 6.992,18.141 5.99,17.915 5.99,18.299 5.957,18.299 "
   id="polygon6761"
   style="fill:#1d1d1b" />
	<path
   clip-path="url(#SVGID_6_)"
   d="m 6.924,14.554 c 0,0 -0.103,0.133 -0.112,0.228 0,0 -0.063,0.141 -0.117,-0.058 0,0 -0.067,0.121 0.021,0.226 0,0 -0.039,0.11 -0.144,-0.057 0,0 -0.059,0.146 0.108,0.247 0,0 -0.028,0.092 -0.141,0.009 0,0 0.272,0.451 0.739,-0.009 0,0 -0.16,0.045 -0.123,-0.032 0,0 0.128,-0.089 0.091,-0.207 0,0 -0.152,0.123 -0.128,0.007 0.025,-0.116 0,0.014 0,0.014 0,0 0.091,-0.043 0.037,-0.174 0,0 -0.112,0.147 -0.12,0.034 0,0 -0.021,-0.138 -0.083,-0.196 z"
   id="path6763"
   inkscape:connector-curvature="0"
   style="fill:#f6cd48" />
	<path
   clip-path="url(#SVGID_6_)"
   d="m 6.875,15.364 c -0.223,0 -0.344,-0.198 -0.35,-0.205 L 6.55,15.135 c 0.028,0.021 0.053,0.031 0.072,0.031 0.019,0 0.03,-0.01 0.037,-0.019 -0.161,-0.104 -0.102,-0.26 -0.102,-0.262 l 0.013,-0.03 0.016,0.028 c 0.049,0.077 0.077,0.086 0.087,0.086 0.012,0 0.02,-0.011 0.023,-0.018 -0.082,-0.11 -0.015,-0.234 -0.015,-0.236 l 0.021,-0.036 0.009,0.039 c 0.025,0.092 0.048,0.095 0.051,0.095 0.012,0 0.027,-0.022 0.034,-0.036 0.011,-0.098 0.11,-0.228 0.115,-0.234 l 0.012,-0.016 0.043,0.049 c 0.063,0.059 0.085,0.197 0.085,0.202 10e-4,0.015 0.005,0.028 0.01,0.028 0.019,0 0.059,-0.041 0.081,-0.068 l 0.018,-0.022 0.011,0.025 c 0.049,0.121 -0.016,0.177 -0.039,0.191 0.001,0.014 0.003,0.009 0.003,0.009 0.027,0 0.075,-0.034 0.1,-0.054 l 0.02,-0.015 0.007,0.023 c 0.036,0.117 -0.07,0.205 -0.093,0.223 -0.003,0.006 -0.002,0.012 -0.002,0.013 0.001,10e-4 0.01,0.005 0.029,0.005 0.034,0 0.078,-0.012 0.078,-0.012 l 0.016,0.028 c -0.142,0.14 -0.282,0.212 -0.415,0.212 M 6.599,15.197 c 0.051,0.057 0.146,0.133 0.276,0.133 0.112,0 0.228,-0.054 0.349,-0.16 -0.009,0 -0.019,10e-4 -0.028,10e-4 C 7.167,15.171 7.148,15.164 7.14,15.15 7.131,15.135 7.131,15.12 7.141,15.1 l 0.001,-0.005 0.003,-0.001 c 0.002,-0.002 0.1,-0.07 0.09,-0.166 -0.026,0.021 -0.068,0.046 -0.097,0.046 -0.017,0 -0.025,-0.007 -0.03,-0.013 C 7.105,14.956 7.103,14.953 7.101,14.947 L 7.096,14.95 7.099,14.931 c 0,-0.007 10e-4,-0.018 0.003,-0.027 0.014,-0.062 0.014,-0.062 0.027,-0.062 h 0.008 l 0.005,0.006 c 0.003,0.005 0.005,0.007 0.002,0.021 0.011,-0.02 0.016,-0.049 0.005,-0.088 -0.023,0.024 -0.059,0.06 -0.088,0.06 -0.014,0 -0.039,-0.009 -0.043,-0.06 0,0 -0.02,-0.13 -0.078,-0.184 L 6.925,14.579 c -0.027,0.038 -0.09,0.134 -0.096,0.203 l -10e-4,0.005 c -0.002,0.007 -0.028,0.057 -0.066,0.057 -0.027,0 -0.048,-0.021 -0.068,-0.07 -0.011,0.042 -0.014,0.105 0.035,0.164 l 0.006,0.007 -0.003,0.01 c -0.007,0.016 -0.026,0.047 -0.059,0.047 -0.029,0 -0.059,-0.022 -0.093,-0.069 -0.005,0.047 0.003,0.131 0.108,0.193 l 0.011,0.006 -0.003,0.012 C 6.69,15.165 6.667,15.201 6.622,15.201 6.615,15.201 6.607,15.2 6.599,15.197"
   id="path6765"
   inkscape:connector-curvature="0"
   style="fill:#1d1d1b" />
	<polygon
   clip-path="url(#SVGID_6_)"
   points="7.898,16.802 5.56,17.014 5.314,17.282 5.324,17.632 7.621,18.177 7.604,17.747 8.288,16.917 "
   id="polygon6767"
   style="fill:#f6cd48" />
	<path
   clip-path="url(#SVGID_6_)"
   d="M 7.638,18.199 7.617,18.194 5.306,17.644 5.298,17.275 5.551,16.997 h 0.007 l 2.341,-0.212 0.003,0.001 0.415,0.121 -0.695,0.846 z M 5.339,17.619 7.604,18.157 7.587,17.741 7.59,17.737 8.258,16.925 7.896,16.818 5.567,17.03 5.331,17.288 Z"
   id="path6769"
   inkscape:connector-curvature="0"
   style="fill:#1d1d1b" />
	<path
   clip-path="url(#SVGID_6_)"
   d="m 5.592,15.882 c 0,0 0.179,-0.051 0.276,-0.04 l 1.898,-0.223 c 0,0 0.339,-0.046 0.358,-0.096 v 1.669 c 0,0 -0.993,-0.195 -1.286,-0.009 0,0 -0.245,-0.188 -1.254,0.097 z"
   id="path6771"
   inkscape:connector-curvature="0"
   style="fill:#ffffff" />
	<path
   clip-path="url(#SVGID_6_)"
   d="m 5.567,17.304 0.008,-1.436 0.012,-0.004 c 0.008,0 0.184,-0.048 0.283,-0.04 l 1.895,-0.22 c 0.156,-0.022 0.331,-0.063 0.344,-0.087 l 0.032,0.006 v 1.688 L 8.121,17.208 C 8.116,17.207 7.665,17.119 7.287,17.119 c -0.211,0 -0.357,0.026 -0.439,0.078 l -0.01,0.007 -0.009,-0.007 c -10e-4,-0.002 -0.08,-0.058 -0.324,-0.058 -0.237,0 -0.547,0.053 -0.917,0.156 z m 0.042,-1.409 -0.008,1.363 c 0.363,-0.1 0.668,-0.151 0.904,-0.151 0.211,0 0.305,0.042 0.333,0.059 0.089,-0.052 0.241,-0.079 0.449,-0.079 0.335,0 0.728,0.069 0.821,0.086 V 15.56 C 8.033,15.599 7.855,15.626 7.769,15.638 L 5.871,15.859 H 5.845 c -0.08,-10e-4 -0.199,0.026 -0.236,0.036"
   id="path6773"
   inkscape:connector-curvature="0"
   style="fill:#1d1d1b" />
	<path
   clip-path="url(#SVGID_6_)"
   d="m 5.747,15.669 c 0,0 0.144,0.025 0.463,-0.121 0,0 0.589,-0.343 0.645,-0.101 0,0 0.293,-0.242 0.538,-0.071 0,0 0.383,0.123 0.488,-0.009 v 1.701 c 0,0 -0.83,-0.25 -1.043,0.075 0,0 -0.268,-0.303 -1.091,-0.035 z"
   id="path6775"
   inkscape:connector-curvature="0"
   style="fill:#ffffff" />
	<path
   clip-path="url(#SVGID_6_)"
   d="M 6.84,17.171 6.826,17.155 c -10e-4,-0.001 -0.13,-0.14 -0.469,-0.14 -0.178,0 -0.38,0.035 -0.604,0.111 L 5.73,17.133 v -1.484 l 0.02,0.004 c 0.001,0 0.01,10e-4 0.027,10e-4 0.062,0 0.197,-0.016 0.425,-0.121 0.013,-0.007 0.325,-0.189 0.518,-0.189 0.087,0 0.126,0.038 0.143,0.077 0.048,-0.036 0.184,-0.123 0.334,-0.123 0.074,0 0.142,0.021 0.202,0.064 0.021,0.006 0.17,0.051 0.299,0.051 0.084,0 0.142,-0.02 0.171,-0.055 l 0.029,-0.037 v 1.771 L 7.876,17.086 c -0.003,0 -0.306,-0.091 -0.588,-0.091 -0.22,0 -0.367,0.053 -0.435,0.159 z M 6.357,16.983 c 0.294,0 0.436,0.098 0.479,0.136 0.079,-0.105 0.231,-0.157 0.452,-0.157 0.243,0 0.502,0.066 0.576,0.085 v -1.64 c -0.037,0.024 -0.094,0.04 -0.166,0.04 -0.144,0 -0.304,-0.052 -0.312,-0.055 L 7.383,15.391 c -0.056,-0.04 -0.118,-0.06 -0.186,-0.06 -0.174,0 -0.33,0.129 -0.331,0.13 L 6.845,15.48 6.838,15.454 C 6.827,15.403 6.788,15.379 6.72,15.379 c -0.183,0 -0.499,0.183 -0.502,0.185 -0.255,0.116 -0.402,0.128 -0.454,0.125 v 1.398 c 0.219,-0.071 0.42,-0.104 0.593,-0.104"
   id="path6777"
   inkscape:connector-curvature="0"
   style="fill:#1d1d1b" />
	<path
   clip-path="url(#SVGID_6_)"
   d="M 7.575,17.779 5.837,17.406 v 0.357 H 5.803 v -0.365 l -0.055,-0.01 v 0.343 H 5.715 v -0.35 l -0.387,-0.083 0.008,-0.033 2.246,0.48 z M 6.864,17.169 H 6.83 L 6.846,15.44 H 6.88 Z"
   id="path6779"
   inkscape:connector-curvature="0"
   style="fill:#1d1d1b" />
	<path
   clip-path="url(#SVGID_6_)"
   d="m 3.24,13.611 c 0,-0.741 0.601,-1.344 1.343,-1.344 h 0.052 c 0.022,-0.053 0.068,-0.092 0.128,-0.092 h 0.182 c 0.155,0 0.178,0.17 0.296,0.264 0.41,0.231 0.687,0.669 0.687,1.172 0,0.741 -0.603,1.345 -1.345,1.345 -0.742,0 -1.343,-0.604 -1.343,-1.345"
   id="path6781"
   inkscape:connector-curvature="0"
   style="fill:#ffffff" />
	<path
   clip-path="url(#SVGID_6_)"
   d="m 4.583,14.972 c -0.75,0 -1.361,-0.61 -1.361,-1.361 0,-0.75 0.611,-1.36 1.361,-1.36 0.014,0 0.028,0 0.041,0.001 0.027,-0.058 0.079,-0.092 0.139,-0.092 h 0.181 c 0.107,0 0.158,0.074 0.207,0.146 0.03,0.042 0.059,0.086 0.101,0.12 0.425,0.24 0.692,0.694 0.692,1.185 0,0.751 -0.61,1.361 -1.361,1.361 m 0,-2.686 c -0.731,0 -1.327,0.595 -1.327,1.325 0,0.733 0.596,1.327 1.327,1.327 0.732,0 1.327,-0.594 1.327,-1.327 0,-0.478 -0.259,-0.923 -0.678,-1.157 C 5.186,12.417 5.154,12.371 5.123,12.326 5.075,12.255 5.033,12.194 4.944,12.194 H 4.763 c -0.049,0 -0.092,0.029 -0.113,0.081 L 4.645,12.287 4.634,12.286 Z"
   id="path6783"
   inkscape:connector-curvature="0"
   style="fill:#1d1d1b" />
	<path
   clip-path="url(#SVGID_6_)"
   d="m 3.45,13.611 c 0,-0.625 0.507,-1.134 1.133,-1.134 0.626,0 1.133,0.509 1.133,1.134 0,0.626 -0.507,1.134 -1.133,1.134 -0.626,0 -1.133,-0.508 -1.133,-1.134"
   id="path6785"
   inkscape:connector-curvature="0"
   style="fill:#ffffff" />
	<path
   clip-path="url(#SVGID_6_)"
   d="m 4.583,14.761 c -0.634,0 -1.149,-0.516 -1.149,-1.151 0,-0.633 0.515,-1.148 1.149,-1.148 0.634,0 1.149,0.516 1.149,1.148 0,0.636 -0.515,1.151 -1.149,1.151 m 0,-2.265 c -0.615,0 -1.117,0.501 -1.117,1.114 0,0.616 0.502,1.116 1.117,1.116 0.616,0 1.116,-0.5 1.116,-1.116 0,-0.613 -0.5,-1.114 -1.116,-1.114"
   id="path6787"
   inkscape:connector-curvature="0"
   style="fill:#1d1d1b" />
	<path
   clip-path="url(#SVGID_6_)"
   d="M 4.634,12.491 4.606,12.47 C 4.638,12.427 4.673,12.408 4.712,12.387 4.703,12.377 4.694,12.369 4.686,12.363 4.651,12.33 4.623,12.302 4.574,12.273 l 0.018,-0.027 c 0.051,0.03 0.083,0.059 0.117,0.093 0.013,0.011 0.027,0.024 0.044,0.039 l 0.017,0.016 -0.038,0.021 c -0.041,0.019 -0.071,0.036 -0.098,0.076"
   id="path6789"
   inkscape:connector-curvature="0"
   style="fill:#1d1d1b" />
	<path
   clip-path="url(#SVGID_6_)"
   d="m 4.815,12.306 c 0,-0.026 0.021,-0.049 0.048,-0.049 0.026,0 0.047,0.022 0.047,0.049 0,0.025 -0.021,0.047 -0.047,0.047 -0.027,0 -0.048,-0.021 -0.048,-0.047"
   id="path6791"
   inkscape:connector-curvature="0"
   style="fill:#1d1d1b" />
	<path
   clip-path="url(#SVGID_6_)"
   d="M 5.606,14.128 H 3.572 l 0.016,-0.024 0.986,-1.617 0.014,0.021 z M 3.632,14.094 H 5.545 L 4.574,12.549 Z m 0.951,-0.112 c -0.205,0 -0.372,-0.166 -0.372,-0.371 0,-0.204 0.167,-0.371 0.372,-0.371 0.205,0 0.371,0.167 0.371,0.371 0,0.205 -0.166,0.371 -0.371,0.371 m 0,-0.708 c -0.186,0 -0.337,0.15 -0.337,0.337 0,0.187 0.151,0.339 0.337,0.339 0.186,0 0.337,-0.152 0.337,-0.339 0,-0.187 -0.151,-0.337 -0.337,-0.337"
   id="path6793"
   inkscape:connector-curvature="0"
   style="fill:#1d1d1b" />
	<path
   clip-path="url(#SVGID_6_)"
   d="m 4.47,13.611 c 0,-0.067 0.055,-0.121 0.123,-0.121 0.067,0 0.121,0.054 0.121,0.121 0,0.067 -0.054,0.122 -0.121,0.122 -0.068,0 -0.123,-0.055 -0.123,-0.122"
   id="path6795"
   inkscape:connector-curvature="0"
   style="fill:#1d1d1b" />
	<path
   clip-path="url(#SVGID_6_)"
   d="m 4.638,13.987 c -0.219,0 -0.45,-0.103 -0.685,-0.305 l -0.057,-0.06 0.008,-0.013 c 0.003,-0.004 0.271,-0.373 0.675,-0.373 0.237,0 0.472,0.125 0.7,0.372 L 5.288,13.619 5.28,13.63 C 5.278,13.633 5.045,13.987 4.638,13.987 M 3.94,13.621 3.976,13.657 c 0.227,0.195 0.45,0.297 0.662,0.297 0.349,0 0.566,-0.273 0.608,-0.331 C 5.027,13.389 4.803,13.27 4.579,13.27 c -0.348,0 -0.591,0.288 -0.639,0.351"
   id="path6797"
   inkscape:connector-curvature="0"
   style="fill:#1d1d1b" />
	<path
   clip-path="url(#SVGID_6_)"
   d="m 5.42,8.705 c 0,0 -0.402,0.151 -0.251,-0.219 0,0 0.101,-0.335 0.537,-0.268 0,0 0.286,0.033 0.05,0.336 l 2.723,4.198 0.033,0.135 -0.135,-0.051 z"
   id="path6799"
   inkscape:connector-curvature="0"
   style="fill:#e03829" />
	<path
   clip-path="url(#SVGID_6_)"
   d="M 8.536,12.916 8.367,12.85 8.364,12.846 5.414,8.724 C 5.388,8.734 5.325,8.752 5.263,8.752 5.203,8.752 5.161,8.733 5.137,8.699 5.106,8.654 5.111,8.582 5.153,8.48 c 0,-0.002 0.09,-0.288 0.442,-0.288 0.037,0 0.075,0.003 0.114,0.008 0.004,0.001 0.112,0.014 0.147,0.098 0.027,0.065 0,0.151 -0.079,0.256 l 2.717,4.194 z M 8.388,12.823 8.488,12.86 8.463,12.759 5.736,8.552 5.743,8.543 C 5.82,8.447 5.847,8.366 5.825,8.311 5.798,8.247 5.705,8.236 5.705,8.236 5.666,8.228 5.629,8.226 5.595,8.226 5.269,8.226 5.188,8.48 5.184,8.492 5.148,8.581 5.141,8.646 5.166,8.681 c 0.016,0.024 0.049,0.037 0.097,0.037 0.072,0 0.151,-0.029 0.152,-0.029 l 0.012,-0.004 0.008,0.01 z"
   id="path6801"
   inkscape:connector-curvature="0"
   style="fill:#1d1d1b" />
	<path
   clip-path="url(#SVGID_6_)"
   d="m 6.245,8.72 c 0,0 -0.371,-0.033 -0.354,0.875 0,0 -0.033,0.738 0.521,0.705 0,0 -0.051,0.084 0.336,-0.049 0,0 0.152,-0.086 0.302,0.268 0,0 0.118,-0.135 0.118,-0.268 0,0 0.017,-0.354 -0.437,-0.336 0,0 -0.486,0.1 -0.486,-0.287 0,0 0.016,-0.369 0.134,-0.369 0,0 0.184,0.252 0.251,0.084 0,0 0.219,-0.588 -0.218,-0.623 z"
   id="path6803"
   inkscape:connector-curvature="0"
   style="fill:#ffffff" />
	<path
   clip-path="url(#SVGID_6_)"
   d="M 7.045,10.55 7.035,10.525 C 6.891,10.191 6.757,10.265 6.756,10.265 6.606,10.317 6.504,10.343 6.449,10.343 6.421,10.343 6.404,10.337 6.397,10.322 6.396,10.321 6.394,10.319 6.394,10.317 6.256,10.324 6.142,10.279 6.056,10.188 5.858,9.983 5.873,9.61 5.874,9.593 5.865,9.099 5.974,8.882 6.065,8.788 6.157,8.694 6.245,8.704 6.245,8.704 H 6.412 C 6.522,8.714 6.601,8.755 6.648,8.829 6.767,9.015 6.651,9.335 6.646,9.349 6.623,9.406 6.588,9.417 6.563,9.417 6.485,9.417 6.396,9.308 6.371,9.276 6.301,9.29 6.266,9.497 6.261,9.628 c 0,0.106 0.039,0.183 0.115,0.229 0.07,0.043 0.16,0.053 0.223,0.053 0.071,0 0.128,-0.012 0.128,-0.012 0.014,0 0.024,-10e-4 0.035,-10e-4 0.146,0 0.257,0.039 0.33,0.116 0.098,0.102 0.093,0.232 0.093,0.238 0,0.139 -0.118,0.273 -0.122,0.278 z M 6.79,10.224 c 0.066,0 0.166,0.047 0.264,0.263 0.031,-0.042 0.097,-0.14 0.097,-0.235 0,-0.004 0.004,-0.123 -0.084,-0.216 C 6.996,9.96 6.883,9.925 6.732,9.931 c 0,0 -0.057,0.012 -0.133,0.012 C 6.501,9.943 6.42,9.923 6.358,9.886 6.271,9.833 6.227,9.748 6.227,9.628 6.229,9.587 6.248,9.241 6.378,9.241 h 0.009 l 0.005,0.006 c 0.028,0.039 0.112,0.137 0.171,0.137 0.008,0 0.033,0 0.052,-0.049 0,0 0.115,-0.315 0.005,-0.486 C 6.578,8.784 6.508,8.745 6.41,8.739 H 6.245 6.239 c -0.018,0 -0.082,0.005 -0.15,0.073 -0.088,0.089 -0.19,0.298 -0.181,0.783 0,0.004 -0.015,0.375 0.173,0.57 0.082,0.086 0.191,0.127 0.329,0.118 l 0.032,-0.002 -0.016,0.026 c 0.003,0 0.009,0.002 0.023,0.002 0.034,0 0.114,-0.014 0.294,-0.076 0,10e-4 0.016,-0.009 0.047,-0.009"
   id="path6805"
   inkscape:connector-curvature="0"
   style="fill:#1d1d1b" />
	<path
   clip-path="url(#SVGID_6_)"
   d="m 6.681,10.486 c 0,0 -0.186,0.234 -0.169,0.369 0,0 0.034,0.286 0.353,0.286 0,0 0.538,-0.067 0.589,0.033 0,0 0.386,-0.353 -0.186,-0.47 0,0 -0.336,0.117 -0.403,0.016 z"
   id="path6807"
   inkscape:connector-curvature="0"
   style="fill:#ffffff" />
	<path
   clip-path="url(#SVGID_6_)"
   d="M 7.448,11.202 7.439,11.181 C 7.431,11.167 7.395,11.134 7.201,11.134 7.044,11.134 6.87,11.156 6.87,11.156 H 6.868 C 6.535,11.157 6.496,10.86 6.496,10.856 6.478,10.715 6.66,10.484 6.667,10.473 l 0.014,-0.016 0.197,0.252 c 0.02,0.027 0.068,0.034 0.105,0.034 0.117,0 0.279,-0.055 0.28,-0.057 l 0.005,-0.002 0.004,0.001 c 0.186,0.039 0.294,0.105 0.319,0.203 0.041,0.143 -0.12,0.289 -0.126,0.296 z M 7.201,11.101 c 0.167,0 0.229,0.023 0.254,0.048 C 7.491,11.112 7.587,11 7.56,10.898 7.537,10.816 7.44,10.757 7.269,10.722 7.242,10.731 7.097,10.779 6.983,10.779 6.917,10.779 6.873,10.761 6.852,10.73 L 6.681,10.511 c -0.041,0.058 -0.165,0.234 -0.152,0.342 0.002,0.011 0.036,0.271 0.336,0.271 0,10e-4 0.177,-0.023 0.336,-0.023"
   id="path6809"
   inkscape:connector-curvature="0"
   style="fill:#1d1d1b" />
	<path
   clip-path="url(#SVGID_6_)"
   d="m 7.168,11.191 c 0,0 -0.335,0.354 0.017,0.537 0,0 0.37,0.066 0.336,0.285 0,0 0.034,0.304 0.117,0.304 0,0 0.134,0.084 0.134,0.185 0,0 0.018,0.184 0.119,0 0,0 0.1,-0.354 -0.051,-0.42 -0.151,-0.068 -0.084,-0.22 -0.084,-0.22 0,0 -0.034,-0.317 -0.27,-0.386 0,0 -0.067,0.033 -0.2,-0.168 z"
   id="path6811"
   inkscape:connector-curvature="0"
   style="fill:#ffffff" />
	<path
   clip-path="url(#SVGID_6_)"
   d="M 7.815,12.6 C 7.767,12.6 7.757,12.519 7.756,12.501 7.756,12.418 7.653,12.346 7.633,12.332 7.542,12.323 7.51,12.067 7.504,12.015 V 12.013 12.01 C 7.534,11.811 7.185,11.745 7.182,11.745 L 7.177,11.743 C 7.08,11.691 7.023,11.624 7.01,11.54 6.981,11.364 7.149,11.186 7.155,11.179 l 0.012,-0.012 0.13,0.129 c 0.103,0.154 0.161,0.166 0.177,0.166 0.004,0 0.006,-0.002 0.006,-0.002 l 0.006,-0.002 0.006,0.002 c 0.243,0.069 0.28,0.387 0.28,0.401 l 10e-4,0.004 -10e-4,0.002 c -0.004,0.007 -0.058,0.139 0.074,0.198 0.163,0.072 0.064,0.425 0.06,0.44 C 7.871,12.571 7.843,12.6 7.815,12.6 M 7.538,12.014 c 0.012,0.116 0.053,0.285 0.1,0.285 h 0.005 l 0.003,0.003 c 0.006,0.004 0.144,0.091 0.144,0.198 0.003,0.033 0.015,0.066 0.025,0.066 0.004,0 0.023,-0.003 0.06,-0.074 C 7.901,12.401 7.946,12.145 7.832,12.096 7.683,12.029 7.728,11.887 7.738,11.86 7.734,11.824 7.691,11.555 7.487,11.493 c -0.004,0 -0.008,0.002 -0.013,0.002 -0.039,0 -0.105,-0.031 -0.203,-0.177 L 7.168,11.214 c -0.037,0.045 -0.147,0.187 -0.125,0.32 0.012,0.071 0.061,0.133 0.147,0.178 0.036,0.006 0.38,0.079 0.348,0.302"
   id="path6813"
   inkscape:connector-curvature="0"
   style="fill:#1d1d1b" />
	<path
   clip-path="url(#SVGID_6_)"
   d="m 6.462,8.991 c 0,-0.047 0.034,-0.084 0.076,-0.084 0.042,0 0.076,0.037 0.076,0.084 0,0.046 -0.034,0.084 -0.076,0.084 -0.042,0 -0.076,-0.038 -0.076,-0.084"
   id="path6815"
   inkscape:connector-curvature="0"
   style="fill:#1d1d1b" />
	<polygon
   clip-path="url(#SVGID_6_)"
   points="0.983,14.488 0.991,14.484 1.008,14.458 2.798,15.597 2.779,15.626 1.337,14.708 2.62,15.638 2.601,15.666 1.299,14.721 2.442,15.687 2.419,15.713 1.364,14.821 2.319,15.749 2.295,15.772 1.354,14.855 2.222,15.822 2.198,15.844 1.349,14.903 2.119,15.893 2.092,15.916 1.257,14.839 2.044,15.996 2.016,16.014 1.308,14.973 1.964,16.1 1.935,16.118 1.143,14.755 1.892,16.214 1.862,16.229 1.258,15.053 1.813,16.372 1.782,16.385 1.158,14.905 1.77,16.689 1.738,16.7 1.008,14.567 0.975,14.504 0.985,14.5 0.983,14.494 0.986,14.494 "
   id="polygon6817"
   style="fill:#1d1d1b" />
	<path
   clip-path="url(#SVGID_6_)"
   d="m 1.958,16.729 c 0,-0.503 0.408,-0.912 0.912,-0.912 0.504,0 0.913,0.409 0.913,0.912 0,0.504 -0.409,0.913 -0.913,0.913 -0.504,0 -0.912,-0.409 -0.912,-0.913"
   id="path6819"
   inkscape:connector-curvature="0"
   style="fill:#373d5a" />
	<path
   clip-path="url(#SVGID_6_)"
   d="m 2.87,17.659 c -0.512,0 -0.929,-0.419 -0.929,-0.93 0,-0.513 0.417,-0.929 0.929,-0.929 0.513,0 0.93,0.416 0.93,0.929 0,0.511 -0.417,0.93 -0.93,0.93 m 0,-1.826 c -0.494,0 -0.895,0.4 -0.895,0.896 0,0.494 0.401,0.896 0.895,0.896 0.494,0 0.896,-0.401 0.896,-0.896 0,-0.495 -0.402,-0.896 -0.896,-0.896"
   id="path6821"
   inkscape:connector-curvature="0"
   style="fill:#1d1d1b" />
	<path
   clip-path="url(#SVGID_6_)"
   d="m 2.479,15.928 c 0.05,0.032 0.042,0.088 0.081,0.131 h 0.1 c 0.011,-0.055 0.033,-0.113 0.09,-0.113 0.034,0 0.052,0.005 0.086,0.007 0.008,0.052 0,0.078 0,0.129 0,0.031 0.006,0.049 0.02,0.075 -0.103,0.033 -0.189,0.018 -0.261,0.095 -0.021,0.023 -0.029,0.062 -0.061,0.062 -0.031,0 -0.049,-0.006 -0.078,-0.01 v -0.09 c 0,-0.021 0.012,-0.03 0.016,-0.051 -0.021,-0.005 -0.035,-0.007 -0.058,-0.007 -0.042,0 -0.079,0.036 -0.079,0.078 0,0.236 0.213,0.309 0.38,0.475 0.095,0.096 0.253,0.103 0.253,0.237 0,0.061 -0.09,0.048 -0.116,0.104 -0.092,0.191 -0.066,0.378 -0.246,0.489 -0.003,-0.013 -0.02,-0.018 -0.02,-0.034 0,-0.038 0.025,-0.057 0.025,-0.095 V 17.2 c 0,-0.023 0.016,-0.036 0.016,-0.06 V 16.993 C 2.502,16.97 2.423,16.866 2.423,16.742 c 0,-0.054 0.041,-0.078 0.041,-0.132 0,-0.19 -0.3,-0.196 -0.3,-0.386 0,-0.053 0.065,-0.054 0.097,-0.094 0.084,-0.101 0.157,-0.148 0.283,-0.196 v 0.025 z"
   id="path6823"
   inkscape:connector-curvature="0"
   style="clip-rule:evenodd;fill:#ffffff;fill-rule:evenodd" />
	<path
   clip-path="url(#SVGID_6_)"
   d="m 2.896,15.817 c 0,0.042 -0.003,0.062 -0.003,0.105 0,0.081 0.079,0.104 0.148,0.146 0,-0.058 0.01,-0.091 0.04,-0.141 -0.068,-0.043 -0.106,-0.085 -0.185,-0.11"
   id="path6825"
   inkscape:connector-curvature="0"
   style="fill:#ffffff" />
	<path
   clip-path="url(#SVGID_6_)"
   d="m 3.3,16.03 c 0.014,0.063 0.082,0.079 0.082,0.144 0,0.07 -0.09,0.085 -0.09,0.156 0,0.033 0.032,0.045 0.032,0.08 0,0.027 -0.04,0.036 -0.04,0.062 0,0.121 0.276,0.025 0.276,0.146 0,0.043 -0.065,0.046 -0.065,0.089 0,0.055 0.03,0.087 0.065,0.129 -0.013,0.012 -0.023,0.022 -0.033,0.041 v 0.16 c 0.061,-0.007 0.097,0 0.157,0 0.026,-0.111 0.01,-0.174 0.049,-0.278 L 3.717,16.71 V 16.53 C 3.717,16.452 3.662,16.42 3.628,16.35 3.55,16.202 3.493,16.109 3.34,16.03 Z"
   id="path6827"
   inkscape:connector-curvature="0"
   style="fill:#ffffff" />
	<polygon
   clip-path="url(#SVGID_6_)"
   points="1.224,16.819 0.908,17.672 1.332,16.947 "
   id="polygon6829"
   style="fill:#f6cd48" />
	<path
   clip-path="url(#SVGID_6_)"
   d="m 0.922,17.682 -0.031,-0.016 0.328,-0.88 0.133,0.16 z M 1.23,16.851 0.99,17.497 1.312,16.949 Z"
   id="path6831"
   inkscape:connector-curvature="0"
   style="fill:#1d1d1b" />
	<polygon
   clip-path="url(#SVGID_6_)"
   points="1.447,16.836 1.764,17.691 1.34,16.967 "
   id="polygon6833"
   style="fill:#f6cd48" />
	<path
   clip-path="url(#SVGID_6_)"
   d="M 1.75,17.7 1.32,16.966 1.453,16.805 1.781,17.688 Z M 1.361,16.968 1.682,17.517 1.442,16.87 Z"
   id="path6835"
   inkscape:connector-curvature="0"
   style="fill:#1d1d1b" />
	<polygon
   clip-path="url(#SVGID_6_)"
   points="0.819,17.682 0.819,18.071 3.319,18.071 3.319,18.885 3.677,18.885 3.677,17.69 "
   id="polygon6837"
   style="fill:#ffffff" />
	<path
   clip-path="url(#SVGID_6_)"
   d="M 3.695,18.903 H 3.3 V 18.089 H 0.801 v -0.424 h 0.017 l 2.877,0.009 z M 3.335,18.869 H 3.66 V 17.707 L 0.835,17.698 v 0.357 h 2.5 z"
   id="path6839"
   inkscape:connector-curvature="0"
   style="fill:#1d1d1b" />
	<polygon
   clip-path="url(#SVGID_6_)"
   points="1.055,14.213 1.125,14.425 1.347,14.425 1.167,14.557 1.235,14.77 1.055,14.638 0.875,14.77 0.943,14.557 0.764,14.425 0.986,14.425 "
   id="polygon6841"
   style="fill:#ffffff" />
	<path
   clip-path="url(#SVGID_6_)"
   d="m 1.16,16.8 c 0,-0.096 0.077,-0.172 0.172,-0.172 0.094,0 0.172,0.076 0.172,0.172 0,0.095 -0.078,0.172 -0.172,0.172 -0.095,0 -0.172,-0.077 -0.172,-0.172"
   id="path6843"
   inkscape:connector-curvature="0"
   style="fill:#f6cd48" />
	<path
   clip-path="url(#SVGID_6_)"
   d="m 1.332,16.989 c -0.104,0 -0.189,-0.084 -0.189,-0.189 0,-0.104 0.085,-0.188 0.189,-0.188 0.104,0 0.188,0.084 0.188,0.188 0,0.105 -0.084,0.189 -0.188,0.189 m 0,-0.344 c -0.086,0 -0.156,0.068 -0.156,0.154 0,0.084 0.07,0.155 0.156,0.155 0.085,0 0.155,-0.071 0.155,-0.155 0,-0.086 -0.07,-0.154 -0.155,-0.154"
   id="path6845"
   inkscape:connector-curvature="0"
   style="fill:#1d1d1b" />
</g>
</svg>