<?xml version="1.0" encoding="UTF-8" standalone="no"?>
<!-- Generator: Adobe Illustrator 16.0.0, SVG Export Plug-In . SVG Version: 6.00 Build 0)  -->
<svg xmlns:ns0="&amp;#38;ns_sfw;" xmlns:dc="http://purl.org/dc/elements/1.1/" xmlns:cc="http://creativecommons.org/ns#" xmlns:rdf="http://www.w3.org/1999/02/22-rdf-syntax-ns#" xmlns:svg="http://www.w3.org/2000/svg" xmlns="http://www.w3.org/2000/svg" xmlns:sodipodi="http://sodipodi.sourceforge.net/DTD/sodipodi-0.dtd" xmlns:inkscape="http://www.inkscape.org/namespaces/inkscape" version="1.1" id="Layer_1" x="0px" y="0px" width="755.64301" height="780.28351" viewBox="0 0 755.64304 780.2835" enable-background="new 0 0 685.576 612" xml:space="preserve" sodipodi:docname="logo-cmm.svg" inkscape:version="0.92.2 2405546, 2018-03-11"><defs id="defs1066"/><sodipodi:namedview pagecolor="#ffffff" bordercolor="#666666" borderopacity="1" objecttolerance="10" gridtolerance="10" guidetolerance="10" inkscape:pageopacity="0" inkscape:pageshadow="2" inkscape:window-width="2560" inkscape:window-height="1016" id="namedview1064" showgrid="false" fit-margin-top="0" fit-margin-left="0" fit-margin-right="0" fit-margin-bottom="0" inkscape:zoom="0.12175062" inkscape:cx="716.88939" inkscape:cy="403.09886" inkscape:window-x="0" inkscape:window-y="22" inkscape:window-maximized="1" inkscape:current-layer="Layer_1"/>
<metadata id="metadata991">
	<ns0:sfw>
		<ns0:slices/>
		<ns0:sliceSourceBounds height="554.75" width="632.016" y="-597.179" x="20.441" bottomLeftOrigin="true"/>
	</ns0:sfw>
<rdf:RDF><cc:Work rdf:about=""><dc:format>image/svg+xml</dc:format><dc:type rdf:resource="http://purl.org/dc/dcmitype/StillImage"/><dc:title/></cc:Work></rdf:RDF></metadata>
<g id="g1061" transform="matrix(1.0672054,0,0,1.0672054,18.761096,48.845496)">
	<path d="m 122.305,42.428 c 12.482,0.547 24.507,3.125 35.959,8.181 14.245,6.29 26.33,15.455 36.281,27.428 0.496,0.596 1.126,1.12 1.337,2.101 -9.45,8.236 -18.953,16.518 -28.522,24.858 -0.785,-0.475 -1.087,-1.232 -1.543,-1.834 -8.24,-10.875 -18.862,-18.214 -32.12,-21.622 -6.121,-1.574 -12.318,-1.592 -18.559,-0.848 -9.719,1.158 -18.722,4.323 -26.829,9.792 -14.513,9.789 -23.194,23.376 -25.728,40.722 -2.225,15.219 0.354,29.584 8.749,42.602 8.324,12.909 20.269,20.935 35.021,24.889 6.842,1.834 13.818,2.481 20.87,1.872 6.762,-0.586 13.085,-2.721 19.052,-5.92 8.132,-4.36 14.925,-10.249 20.243,-17.812 0.226,-0.321 0.47,-0.629 0.712,-0.938 0.047,-0.061 0.124,-0.097 0.37,-0.283 9.509,8.284 19.054,16.599 28.513,24.839 0.059,0.814 -0.455,1.144 -0.784,1.546 -15.269,18.664 -34.672,30.742 -58.417,34.875 -33.304,5.799 -62.547,-3.114 -86.916,-26.638 -14.956,-14.437 -24.061,-32.219 -27.665,-52.741 -0.572,-3.257 -0.953,-6.548 -1.423,-9.824 -0.055,-0.386 -0.068,-0.79 -0.416,-1.063 0,-3.314 0,-6.63 0,-9.944 -0.222,-1.211 0.371,-2.302 0.509,-3.464 0.538,-4.533 1.004,-9.08 2.021,-13.541 C 28.556,95.4 41.28,75.786 61.357,61.089 76.044,50.34 92.542,44.226 110.732,42.806 c 1.507,0.088 2.982,-0.215 4.469,-0.378 2.368,0 4.736,0 7.104,0 z" id="path993" inkscape:connector-curvature="0" style="clip-rule:evenodd;fill:#ee3625;fill-rule:evenodd"/>
	<path d="m 231.904,46.684 c 12.279,0 24.425,0 36.832,0 18.629,35.468 37.308,71.029 55.954,106.527 0.256,-0.021 0.342,-0.01 0.412,-0.038 0.067,-0.026 0.142,-0.081 0.174,-0.145 18.712,-35.4 37.419,-70.801 56.169,-106.283 12.276,0 24.547,0 36.924,0 0,62.52 0,124.917 0,187.25 -0.089,0.127 -0.121,0.201 -0.178,0.25 -0.059,0.05 -0.136,0.098 -0.209,0.105 -0.467,0.045 -0.935,0.112 -1.402,0.112 -11.759,-0.003 -23.519,-0.011 -35.278,-0.03 -0.221,0 -0.442,-0.133 -0.808,-0.25 0,-35.076 0,-70.171 0,-105.409 -0.385,0.361 -0.072,0.054 -0.385,0.095 -0.062,0.008 -0.137,0.04 -0.175,0.085 -0.1,0.121 -0.197,0.25 -0.269,0.389 -18.107,34.825 -36.213,69.652 -54.323,104.476 -0.024,0.045 -0.111,0.058 -0.345,0.174 -18.12,-35.119 -36.243,-70.241 -54.365,-105.364 -0.155,0.04 -0.311,0.08 -0.465,0.12 -0.15,35.134 -0.143,70.269 -0.53,105.378 -1.755,0.417 -34.583,0.528 -37.607,0.149 -0.407,-1.737 -0.553,-183.601 -0.126,-187.591 z" id="path995" inkscape:connector-curvature="0" style="clip-rule:evenodd;fill:#ee3625;fill-rule:evenodd"/>
	<path d="m 558.566,234.31 c -18.308,-35.477 -36.424,-70.589 -54.54,-105.7 -0.134,0.044 -0.268,0.088 -0.402,0.132 -0.173,35.138 -0.346,70.275 -0.521,105.556 -12.675,0 -25.178,0 -37.68,0 -0.375,-1.716 -0.488,-184.08 -0.104,-187.535 12.184,0 24.385,0 36.861,0 18.602,35.414 37.281,70.979 56.173,106.943 9.594,-18.062 18.922,-35.828 28.292,-53.573 9.384,-17.774 18.765,-35.549 28.176,-53.381 12.318,0 24.583,0 36.944,0 0,62.525 0,124.923 0,187.309 -1.704,0.481 -32.76,0.676 -37.503,0.251 -0.074,-0.066 -0.137,-0.112 -0.186,-0.168 -0.053,-0.059 -0.102,-0.124 -0.133,-0.196 -0.029,-0.069 -0.044,-0.147 -0.047,-0.225 -0.014,-0.236 -0.027,-0.472 -0.027,-0.709 -0.016,-34.647 -0.028,-69.292 -0.045,-103.939 0,-0.058 -0.063,-0.116 -0.098,-0.173 -0.076,-0.018 -0.157,-0.061 -0.229,-0.05 -0.063,0.01 -0.12,0.077 -0.17,0.127 -0.055,0.056 -0.111,0.116 -0.146,0.185 -18.128,34.899 -36.257,69.801 -54.615,105.146 z" id="path997" inkscape:connector-curvature="0" style="clip-rule:evenodd;fill:#ee3625;fill-rule:evenodd"/>
	<path d="m 104.484,462.359 c 0,-16.965 0,-33.805 0,-50.646 -0.163,-0.029 -0.325,-0.059 -0.488,-0.088 -5.787,16.879 -11.574,33.758 -17.411,50.783 -3.747,0 -7.504,0 -11.554,0 -2.927,-8.32 -5.608,-16.865 -8.449,-25.355 -2.819,-8.426 -5.55,-16.881 -8.482,-25.818 -0.52,1.238 -0.384,2.061 -0.384,2.842 -0.009,15.229 -0.003,30.459 -0.017,45.688 0,0.85 0.195,1.734 -0.298,2.676 -4.794,0 -9.637,0 -14.607,0 0,-22.654 0,-45.18 0,-67.846 7.49,0 14.879,0 22.56,0 5.237,14.477 10.253,29.125 15.641,44.121 1.587,-3.1 2.333,-6.047 3.391,-8.867 1.108,-2.949 2.139,-5.93 3.191,-8.9 1.026,-2.896 2.032,-5.801 3.058,-8.699 1.053,-2.971 2.123,-5.936 3.181,-8.904 1.029,-2.889 2.054,-5.779 3.111,-8.752 7.49,0 14.876,0 22.246,0 0.459,1.762 0.644,63.275 0.219,67.611 -1.614,0.449 -11.146,0.58 -14.908,0.154 z" id="path999" inkscape:connector-curvature="0" style="clip-rule:evenodd;fill:#6c747d;fill-rule:evenodd"/>
	<path d="m 57.606,522.916 c 0,16.975 0,33.949 0,51.061 -5.057,0 -9.832,0 -14.59,0 -0.43,-1.805 -0.595,-63.6 -0.198,-67.654 1.652,-0.449 18.293,-0.605 22.625,-0.18 5.118,14.488 10.275,29.092 15.626,44.24 2.062,-5.297 3.672,-10.186 5.417,-15.023 1.738,-4.82 3.427,-9.656 5.142,-14.484 1.739,-4.898 3.482,-9.793 5.254,-14.777 7.511,0 14.966,0 22.398,0 0.346,2.197 0.359,65.672 0.013,67.871 -4.749,0 -9.524,0 -14.453,0 -0.493,-2.438 -0.156,-4.869 -0.217,-7.273 -0.062,-2.445 -0.014,-4.893 -0.014,-7.34 0,-2.447 0,-4.893 0,-7.34 0,-2.367 0,-4.736 0,-7.104 0,-2.445 0,-4.893 0,-7.34 0,-2.445 0,-4.893 0,-7.34 0,-2.426 0,-4.854 0,-7.475 -0.363,0.441 -0.077,0.031 -0.381,0.115 -0.069,0.02 -0.147,0.084 -0.177,0.148 -0.125,0.285 -0.247,0.57 -0.347,0.863 -5.685,16.549 -11.367,33.098 -17.053,49.645 -0.024,0.072 -0.082,0.135 -0.134,0.193 -0.05,0.059 -0.113,0.107 -0.298,0.275 -3.556,0 -7.243,0 -11.188,0 -5.621,-17.02 -11.258,-34.092 -16.896,-51.164 -0.176,0.028 -0.352,0.056 -0.529,0.083 z" id="path1001" inkscape:connector-curvature="0" style="clip-rule:evenodd;fill:#6c747d;fill-rule:evenodd"/>
	<path d="m 413.761,590.172 c 2.715,-4.041 5.297,-7.885 7.884,-11.738 1.694,1.111 3.157,2.184 4.723,3.076 4.79,2.732 9.92,3.557 15.279,2.223 5.031,-1.254 7.705,-4.625 8.024,-9.813 0.082,-1.336 0.038,-2.68 0.031,-4.02 0,-0.215 -0.104,-0.432 -0.149,-0.611 -0.306,-0.148 -0.506,-0.02 -0.666,0.148 -3.736,3.93 -8.438,5.404 -13.704,5.152 -6.324,-0.299 -11.815,-2.566 -16.055,-7.424 -3.16,-3.623 -4.855,-7.936 -5.434,-12.633 -0.748,-6.08 0.065,-11.953 3.081,-17.396 3.062,-5.523 7.52,-9.422 13.792,-10.582 7.48,-1.383 14.26,0.182 19.638,6.006 0.101,0.107 0.253,0.168 0.667,0.432 0,-1.898 0,-3.637 0,-5.303 2.115,-0.469 10.853,-0.502 13.139,-0.111 0.353,0.395 0.226,0.893 0.226,1.346 -0.005,14.432 0.003,28.863 -0.054,43.293 -0.014,3.486 -0.669,6.896 -1.856,10.184 -2.624,7.268 -7.842,11.77 -15.239,13.51 -8.693,2.043 -17.371,1.643 -25.831,-1.381 -2.663,-0.952 -5.175,-2.262 -7.496,-4.358 z m 37.178,-39.809 c -0.019,-5.338 -4.08,-11.531 -11.622,-11.518 -6.446,0.014 -11.387,5.088 -11.388,11.486 -10e-4,6.811 5.514,11.559 11.594,11.543 6.155,-0.015 11.413,-5.349 11.416,-11.511 z" id="path1003" inkscape:connector-curvature="0" style="clip-rule:evenodd;fill:#6c747d;fill-rule:evenodd"/>
	<path d="m 376.829,422.813 c 0.409,-0.566 0.646,-0.873 0.86,-1.193 2.756,-4.16 6.662,-6.383 11.589,-6.861 2.613,-0.254 5.205,-0.084 7.748,0.582 4.523,1.184 7.58,4.033 9.344,8.324 1.371,3.34 1.824,6.875 1.864,10.42 0.103,8.996 0.036,17.994 0.032,26.99 0,0.383 -0.046,0.764 -0.068,1.109 -1.77,0.469 -10.887,0.594 -14.21,0.217 -0.544,-0.768 -0.282,-1.664 -0.284,-2.502 -0.023,-8.127 -0.022,-16.258 -0.007,-24.385 0.003,-1.434 -0.085,-2.84 -0.586,-4.193 -0.901,-2.434 -2.768,-3.768 -5.397,-3.867 -4.769,-0.184 -7.998,2.449 -8.724,7.174 -0.216,1.4 -0.336,2.813 -0.33,4.24 0.027,6.945 0.019,13.891 0.004,20.834 -10e-4,0.852 0.158,1.725 -0.183,2.545 -1.719,0.395 -10.66,0.502 -13.922,0.164 -0.55,-0.76 -0.286,-1.656 -0.288,-2.49 -0.023,-7.654 -0.026,-15.311 -0.006,-22.967 0.004,-1.668 -0.13,-3.314 -0.566,-4.92 -0.831,-3.061 -2.874,-4.584 -6.048,-4.586 -4.297,-0.004 -7.152,2.318 -7.984,6.572 -0.348,1.779 -0.516,3.584 -0.508,5.41 0.031,6.865 0.019,13.732 0.003,20.598 -10e-4,0.766 0.179,1.566 -0.274,2.416 -4.592,0 -9.204,0 -13.793,0 -0.405,-1.857 -0.529,-42.965 -0.163,-46.143 1.593,-0.463 10.076,-0.594 13.444,-0.197 0.572,1.713 0.008,3.545 0.416,5.639 1.829,-2.307 3.725,-4.225 6.242,-5.396 2.553,-1.191 5.224,-1.756 8.026,-1.672 2.793,0.086 5.479,0.674 7.963,1.988 2.516,1.331 4.329,3.376 5.806,6.15 z" id="path1005" inkscape:connector-curvature="0" style="clip-rule:evenodd;fill:#6c747d;fill-rule:evenodd"/>
	<path d="m 224.728,532.045 c 0,-10.418 0,-20.408 0,-30.35 1.833,-0.471 11.086,-0.582 14.216,-0.211 0.397,1.676 0.544,68.852 0.158,72.283 -1.663,0.434 -10.257,0.514 -12.989,0.1 -0.422,-1.729 0.003,-3.545 -0.25,-5.313 -0.361,-0.193 -0.577,0.035 -0.79,0.271 -5.359,5.93 -12.039,7.471 -19.588,5.68 -7.159,-1.695 -12.403,-5.955 -14.989,-12.852 -3.707,-9.891 -2.785,-19.426 3.72,-27.973 4.52,-5.939 10.804,-8.164 18.167,-7.461 1.018,0.096 2.042,0.217 3.038,0.436 3.788,0.839 5.761,1.968 9.307,5.39 z m -10.46,30.375 c 3.743,0.035 6.988,-1.105 9.337,-4.152 3.222,-4.18 3.051,-11.305 -0.178,-15.486 -3.905,-5.059 -13.249,-5.248 -17.52,-0.598 -1.783,1.941 -2.666,4.275 -2.926,6.826 -0.741,7.26 3.311,13.392 11.287,13.41 z" id="path1007" inkscape:connector-curvature="0" style="clip-rule:evenodd;fill:#6c747d;fill-rule:evenodd"/>
	<path d="m 98.515,291.586 c -3.623,2.964 -7.333,6 -10.879,8.902 -0.706,0.104 -0.972,-0.212 -1.239,-0.49 -5.933,-6.18 -17.006,-6.112 -23.679,-0.854 -4.032,3.178 -6.396,7.366 -7.499,12.265 -1.208,5.369 -0.827,10.691 1.377,15.766 2.491,5.734 6.584,9.854 12.82,11.279 6.927,1.584 12.98,0.02 17.636,-5.674 0.245,-0.299 0.521,-0.57 0.885,-0.967 4.086,3.053 8.113,6.059 12.161,9.082 -0.134,1.117 -0.877,1.742 -1.48,2.428 -3.938,4.471 -8.908,7.32 -14.648,8.627 -10.018,2.281 -19.643,0.928 -28.552,-4.197 -9.14,-5.262 -14.171,-13.473 -15.907,-23.746 -1.136,-6.721 -0.73,-13.404 1.55,-19.843 4.094,-11.561 12.409,-18.603 24.165,-21.538 7.398,-1.848 14.842,-1.844 22.135,0.781 4.001,1.441 7.517,3.63 10.37,6.817 0.305,0.341 0.703,0.632 0.784,1.362 z" id="path1009" inkscape:connector-curvature="0" style="clip-rule:evenodd;fill:#6c747d;fill-rule:evenodd"/>
	<path d="m 237.791,462.467 c -5.013,0 -9.646,0 -14.255,0 -0.4,-1.824 -0.522,-68.803 -0.154,-72.162 1.632,-0.447 10.411,-0.582 14.34,-0.189 0.022,1.977 0.056,4 0.067,6.021 0.012,2.131 0.002,4.262 0.002,6.391 0,2.051 0,4.102 0,6.154 0,2.129 0,4.26 0,6.389 0,2.049 0,4.098 0,6.184 0.796,-0.01 0.815,-0.684 1.104,-1.064 2.725,-3.592 6.511,-5.107 10.842,-5.477 2.693,-0.23 5.354,0.115 7.95,0.877 4.131,1.211 6.976,3.846 8.6,7.82 1.117,2.73 1.712,5.602 1.806,8.516 0.316,9.938 0.119,19.879 0.119,29.816 0,0.15 -0.069,0.301 -0.108,0.449 -1.638,0.479 -11.418,0.563 -14.114,0.1 -0.275,-0.791 -0.142,-1.66 -0.143,-2.506 -0.013,-7.1 -0.001,-14.199 -0.011,-21.299 -0.003,-2.055 -0.168,-4.102 -0.763,-6.078 -1.005,-3.344 -3.112,-4.908 -6.61,-4.963 -4.484,-0.072 -7.089,1.951 -8.198,6.279 -0.397,1.551 -0.473,3.111 -0.472,4.691 0.002,7.18 0,14.357 0,21.535 -0.002,0.776 -0.002,1.549 -0.002,2.516 z" id="path1011" inkscape:connector-curvature="0" style="clip-rule:evenodd;fill:#6c747d;fill-rule:evenodd"/>
	<path d="m 154.658,575.164 c -6.414,-0.07 -12.3,-1.771 -17.328,-5.891 -5.304,-4.346 -7.98,-10.057 -8.394,-16.846 -0.173,-2.842 -0.025,-5.67 0.739,-8.445 2.044,-7.422 6.643,-12.676 13.693,-15.598 8.221,-3.406 16.514,-3.258 24.5,0.748 7.714,3.867 11.949,10.289 12.764,18.9 0.749,7.92 -1.429,14.832 -7.3,20.373 -3.663,3.457 -8.105,5.391 -13.02,6.291 -1.864,0.341 -3.741,0.605 -5.654,0.468 z m 0.257,-12.752 c 5.191,-0.012 8.994,-2.533 10.639,-7.059 0.826,-2.271 1.027,-4.623 0.634,-6.982 -0.63,-3.779 -2.413,-6.832 -6.059,-8.447 -3.317,-1.469 -6.738,-1.557 -10.105,-0.197 -4.148,1.678 -6.14,4.98 -6.599,9.303 -0.817,7.699 3.7,13.505 11.49,13.382 z" id="path1013" inkscape:connector-curvature="0" style="clip-rule:evenodd;fill:#6c747d;fill-rule:evenodd"/>
	<path d="m 444.425,303.317 c 6.234,-0.027 11.488,1.389 16.21,4.57 6.089,4.102 9.346,9.951 10.111,17.145 0.581,5.451 -0.308,10.715 -3.208,15.479 -4.193,6.889 -10.558,10.445 -18.365,11.57 -5.32,0.766 -10.571,0.268 -15.539,-1.887 -8.428,-3.654 -13.351,-10.012 -14.501,-19.207 -0.678,-5.412 0.159,-10.561 2.841,-15.305 3.731,-6.602 9.603,-10.268 16.902,-11.812 2.011,-0.425 4.053,-0.622 5.549,-0.553 z m 0.655,12.775 c -5.299,-0.254 -10.426,2.703 -11.484,9.283 -1.009,6.271 1.458,13.67 10.541,14.232 5.636,0.348 10.282,-2.369 11.801,-8.035 0.243,-0.906 0.396,-1.855 0.439,-2.793 0.4,-8.593 -5.006,-12.8 -11.297,-12.687 z" id="path1015" inkscape:connector-curvature="0" style="clip-rule:evenodd;fill:#6c747d;fill-rule:evenodd"/>
	<path d="m 324.968,443.879 c -11.14,0 -22,0 -32.854,0 -0.104,3.029 2.246,6.463 5.592,7.816 6.107,2.469 11.055,0.518 15.096,-4.574 3.395,2.492 6.672,4.896 10.006,7.346 -1.23,1.861 -2.732,3.119 -4.311,4.291 -11.046,8.191 -26.824,5.756 -34.898,-2.744 -3.675,-3.871 -5.761,-8.484 -6.29,-13.717 -0.755,-7.471 0.992,-14.252 6.312,-19.836 3.837,-4.027 8.615,-6.279 14.018,-7.295 3.681,-0.693 7.375,-0.744 11.036,0.117 7.469,1.754 12.261,6.475 14.798,13.594 1.7,4.768 1.735,9.717 1.495,15.002 z m -33.043,-10.078 c 4.5,0.482 17.118,0.291 18.616,-0.266 -0.561,-5.369 -4.23,-8.654 -9.411,-8.418 -5.166,0.233 -9.187,3.965 -9.205,8.684 z" id="path1017" inkscape:connector-curvature="0" style="clip-rule:evenodd;fill:#6c747d;fill-rule:evenodd"/>
	<path d="m 264.194,555.537 c 0.922,3.838 3.029,6.678 6.867,7.947 5.789,1.916 10.299,-0.23 13.943,-4.723 1.731,0.752 8.568,5.715 10.107,7.348 -2.233,2.955 -5.126,5.145 -8.484,6.578 -10.123,4.32 -19.765,3.273 -28.523,-3.402 -5.287,-4.029 -7.887,-9.715 -8.416,-16.32 -0.325,-4.057 0.074,-8.039 1.643,-11.83 2.867,-6.932 8.056,-11.373 15.093,-13.656 4.64,-1.506 9.429,-1.932 14.235,-0.879 8.596,1.883 13.611,7.457 15.852,15.748 1.01,3.738 1.225,7.742 0.85,12.473 -0.723,0.67 -1.636,0.361 -2.462,0.365 -9.307,0.023 -18.612,0.01 -27.918,0.023 -0.854,0 -1.735,-0.184 -2.787,0.328 z m -0.027,-10.385 c 3.059,0.365 16.999,0.264 18.643,-0.123 0.077,-3.826 -2.242,-7.047 -5.907,-8.096 -5.73,-1.64 -12.237,1.805 -12.736,8.219 z" id="path1019" inkscape:connector-curvature="0" style="clip-rule:evenodd;fill:#6c747d;fill-rule:evenodd"/>
	<path d="m 119.565,332.508 c 0.238,3.512 2.857,6.803 6.386,8.141 4.923,1.863 9.043,0.527 14.454,-4.809 3.348,2.203 6.51,4.75 9.751,7.043 0.023,0.896 -0.569,1.264 -0.986,1.689 -5.645,5.754 -12.535,8.182 -20.534,7.705 -5.498,-0.328 -10.515,-1.982 -14.877,-5.369 -5.624,-4.363 -8.512,-10.203 -8.966,-17.268 -0.304,-4.732 0.443,-9.281 2.718,-13.49 3.746,-6.926 9.741,-10.749 17.311,-12.295 3.425,-0.701 6.888,-0.797 10.336,-0.166 8.243,1.507 13.425,6.49 16.044,14.309 1.527,4.559 1.58,9.262 1.364,14.121 -2.235,0.439 -4.426,0.164 -6.597,0.213 -2.207,0.051 -4.415,0.012 -6.622,0.012 -2.208,0 -4.416,0 -6.624,0 -2.208,0 -4.416,-0.035 -6.623,0.01 -2.175,0.044 -4.367,-0.2 -6.535,0.154 z m 18.289,-10.182 c 0.368,-4.627 -3.329,-8.434 -8.148,-8.557 -5.769,-0.146 -10.297,3.621 -10.13,8.557 6.093,0 12.192,0 18.278,0 z" id="path1021" inkscape:connector-curvature="0" style="clip-rule:evenodd;fill:#6c747d;fill-rule:evenodd"/>
	<path d="m 302.754,343.074 c -2.094,2.76 -4.559,4.664 -7.35,6.189 -10.209,5.59 -24.578,3.463 -32.241,-5.045 -3.56,-3.953 -5.563,-8.566 -5.942,-13.861 -0.308,-4.297 0.024,-8.514 1.818,-12.512 3.551,-7.91 9.842,-12.291 18.16,-13.988 3.504,-0.715 7.039,-0.779 10.577,-0.11 6.67,1.261 11.495,4.946 14.472,11.022 2.685,5.477 3.001,11.324 2.695,17.539 -3.732,0.068 -7.335,0.025 -10.937,0.033 -3.709,0.008 -7.418,0.002 -11.128,0.002 -3.62,0 -7.239,0 -10.771,0 -0.47,0.918 -0.14,1.574 0.112,2.221 2.77,7.098 12.101,9.102 17.948,3.838 0.868,-0.781 1.643,-1.666 2.591,-2.637 3.322,2.428 6.552,4.79 9.996,7.309 z m -12.417,-20.715 c 0.032,-3.771 -2.022,-6.844 -5.381,-8.014 -3.606,-1.254 -7.024,-0.691 -10.019,1.666 -1.965,1.547 -3.097,3.641 -3.253,6.348 6.258,0 12.366,0 18.653,0 z" id="path1023" inkscape:connector-curvature="0" style="clip-rule:evenodd;fill:#6c747d;fill-rule:evenodd"/>
	<path d="m 373.237,573.996 c -4.626,0 -9.245,0 -13.84,0 -0.423,-1.818 -0.566,-42.809 -0.183,-46.338 1.657,-0.422 10.035,-0.531 13.559,-0.15 0.283,1.777 0.008,3.645 0.154,5.42 0.398,0.178 0.547,-0.041 0.673,-0.223 3.073,-4.445 7.48,-6.404 12.712,-6.625 2.924,-0.123 5.826,0.281 8.576,1.389 3.576,1.438 5.916,4.07 7.326,7.611 1.184,2.971 1.717,6.104 1.76,9.246 0.129,9.541 0.071,19.088 0.077,28.631 0,0.299 -0.097,0.596 -0.171,1.018 -4.682,0 -9.3,0 -13.894,0 -0.638,-0.814 -0.39,-1.715 -0.395,-2.557 -0.045,-7.729 -0.059,-15.459 -0.098,-23.188 -0.008,-1.5 -0.141,-2.99 -0.581,-4.439 -0.804,-2.648 -2.446,-4.373 -5.248,-4.82 -4.109,-0.656 -8.286,0.947 -9.49,5.703 -0.511,2.018 -0.591,4.053 -0.598,6.1 -0.021,6.861 -0.003,13.725 -0.015,20.588 0.002,0.847 0.167,1.73 -0.324,2.634 z" id="path1025" inkscape:connector-curvature="0" style="clip-rule:evenodd;fill:#6c747d;fill-rule:evenodd"/>
	<path d="m 159.814,432.709 c -0.15,-3.482 -1.766,-5.738 -4.591,-7.105 -3.427,-1.66 -6.893,-1.252 -10.305,0.15 -2.223,0.916 -4.038,2.428 -5.724,4.064 -1.463,-0.824 -5.947,-5.248 -7.771,-7.666 1.259,-1.398 2.816,-2.441 4.449,-3.363 6.333,-3.574 13.15,-4.668 20.318,-3.887 2.042,0.223 4.052,0.605 5.987,1.313 5.344,1.951 8.38,5.912 9.832,11.275 0.957,3.535 1.171,7.16 1.217,10.777 0.096,7.492 0.032,14.988 0.025,22.482 0,0.543 0.101,1.111 -0.34,1.68 -4.229,0 -8.524,0 -13.093,0 0,-1.723 0,-3.316 0,-4.857 -0.667,-0.094 -0.808,0.244 -0.988,0.465 -2.187,2.666 -5.027,4.236 -8.335,5.057 -4.824,1.197 -9.557,0.994 -14.085,-1.123 -4.982,-2.33 -7.802,-6.213 -8.066,-11.826 -0.278,-5.893 1.908,-10.438 7.154,-13.357 3.291,-1.832 6.888,-2.645 10.566,-3.205 3.989,-0.609 8.017,-0.547 12.028,-0.77 0.463,-0.026 0.925,-0.057 1.722,-0.104 z m -0.096,9.5 c -3.642,-0.17 -7.01,-0.166 -10.34,0.482 -1.855,0.361 -3.674,0.906 -5.192,2.107 -2.976,2.357 -2.601,6.395 0.745,8.164 0.345,0.184 0.705,0.363 1.08,0.465 4.253,1.146 8.092,0.316 11.449,-2.529 1.231,-1.045 1.999,-2.439 2.242,-4.045 0.223,-1.468 0.209,-2.955 0.016,-4.644 z" id="path1027" inkscape:connector-curvature="0" style="clip-rule:evenodd;fill:#6c747d;fill-rule:evenodd"/>
	<path d="m 627.513,462.457 c -4.298,0 -8.532,0 -12.821,0 -0.526,-1.662 0,-3.336 -0.345,-4.832 -0.428,-0.207 -0.57,0.033 -0.706,0.201 -2.255,2.834 -5.229,4.496 -8.705,5.32 -5.169,1.225 -10.2,0.881 -14.911,-1.688 -4.509,-2.457 -6.874,-6.303 -7.073,-11.496 -0.274,-7.148 3.184,-11.566 9.028,-14.088 4.182,-1.805 8.62,-2.455 13.116,-2.744 2.981,-0.193 5.972,-0.262 9.021,-0.387 0.474,-0.889 0.221,-1.705 -0.056,-2.514 -1.076,-3.135 -4.185,-5.385 -7.781,-5.631 -3.973,-0.27 -7.448,0.986 -10.51,3.469 -0.723,0.586 -1.415,1.211 -2.006,1.719 -2.638,-2.518 -5.185,-4.947 -7.827,-7.473 0.83,-1.111 1.874,-1.809 2.904,-2.49 6.676,-4.412 14.061,-5.732 21.909,-4.926 2.118,0.217 4.198,0.637 6.209,1.387 5.258,1.955 8.212,5.887 9.654,11.143 0.947,3.451 1.186,6.998 1.229,10.537 0.09,7.572 0.029,15.145 0.023,22.717 -10e-4,0.544 0.105,1.11 -0.352,1.776 z m -13.209,-20.246 c -3.675,-0.174 -7.12,-0.172 -10.521,0.527 -1.773,0.365 -3.511,0.9 -4.967,2.051 -2.984,2.355 -2.628,6.395 0.717,8.166 0.345,0.184 0.705,0.361 1.078,0.465 4.157,1.145 7.938,0.359 11.274,-2.352 1.387,-1.125 2.243,-2.639 2.465,-4.428 0.171,-1.394 0.19,-2.804 -0.046,-4.429 z" id="path1029" inkscape:connector-curvature="0" style="clip-rule:evenodd;fill:#6c747d;fill-rule:evenodd"/>
	<path d="m 461.705,462.463 c -4.326,0 -8.554,0 -12.883,0 -0.441,-1.676 0.003,-3.34 -0.296,-4.895 -0.464,-0.223 -0.649,0.104 -0.828,0.322 -3.349,4.094 -7.902,5.604 -12.948,5.887 -4.016,0.225 -7.821,-0.625 -11.33,-2.705 -8.696,-5.152 -8.392,-18.559 -0.371,-23.58 3.56,-2.23 7.487,-3.248 11.563,-3.893 3.987,-0.629 8.021,-0.545 12.033,-0.787 0.542,-0.033 1.104,0.094 1.791,-0.277 0.365,-1.117 -0.136,-2.209 -0.657,-3.221 -1.6,-3.098 -4.326,-4.49 -7.685,-4.715 -3.982,-0.268 -7.425,1.135 -10.452,3.65 -0.604,0.502 -1.17,1.047 -1.963,1.762 -2.626,-2.471 -5.06,-5.084 -7.643,-7.732 1.776,-1.963 3.854,-3.229 6.036,-4.289 5.974,-2.904 12.286,-3.857 18.873,-3.059 1.723,0.207 3.418,0.508 5.09,1.016 5.254,1.6 8.593,5.096 10.301,10.23 0.824,2.48 1.339,5.053 1.429,7.65 0.323,9.309 0.131,18.623 0.126,27.936 0,0.147 -0.076,0.296 -0.186,0.7 z m -13.172,-20.258 c -2.494,0 -4.701,-0.139 -6.884,0.035 -2.498,0.203 -5.017,0.498 -7.311,1.68 -2.521,1.297 -3.602,3.02 -3.343,5.42 0.272,2.516 2.044,3.629 4.21,4.188 3.915,1.012 7.483,0.131 10.656,-2.318 1.494,-1.154 2.346,-2.76 2.639,-4.607 0.22,-1.39 0.175,-2.8 0.033,-4.398 z" id="path1031" inkscape:connector-curvature="0" style="clip-rule:evenodd;fill:#6c747d;fill-rule:evenodd"/>
	<path d="m 192.869,350.918 c 0,-0.717 0,-1.484 0,-2.254 0,-7.021 -0.002,-14.043 0,-21.064 0,-1.895 -0.065,-3.779 -0.46,-5.646 -0.753,-3.566 -2.723,-5.541 -5.895,-5.832 -4.337,-0.396 -7.345,1.162 -8.683,4.592 -0.871,2.232 -1.079,4.588 -1.075,6.969 0.009,6.865 0.003,13.727 0.003,20.592 0,0.859 0,1.719 0,2.539 -1.802,0.502 -11.815,0.57 -14.233,0.115 0,-15.398 0,-30.816 0,-46.37 4.524,0 8.909,0 13.417,0 0.637,1.802 0.042,3.706 0.376,5.516 0.664,-0.078 0.788,-0.594 1.062,-0.93 3.081,-3.784 7.094,-5.643 11.931,-5.81 2.616,-0.091 5.191,0.131 7.708,0.93 3.84,1.22 6.557,3.663 8.161,7.347 1.145,2.631 1.758,5.396 1.896,8.25 0.366,7.568 0.095,15.145 0.165,22.715 0.025,2.76 0.003,5.518 0.003,8.24 -1.762,0.494 -11.598,0.572 -14.376,0.101 z" id="path1033" inkscape:connector-curvature="0" style="clip-rule:evenodd;fill:#6c747d;fill-rule:evenodd"/>
	<path d="m 403.794,304.448 c 3.466,0 6.821,0 10.118,0 0.531,2.218 0.512,9.582 -0.032,11.628 -3.298,0 -6.656,0 -10.255,0 0,11.76 0,23.307 0,34.996 -4.919,0 -9.596,0 -14.455,0 0,-11.598 0,-23.09 0,-34.598 -1.649,-0.75 -3.232,-0.303 -4.762,-0.41 -1.482,-0.104 -2.982,0.129 -4.435,-0.135 -0.493,-1.674 -0.618,-7.564 -0.227,-11.333 2.947,-0.441 6.008,0.035 8.959,-0.261 0.609,-0.804 0.382,-1.618 0.392,-2.374 0.046,-3.467 -0.093,-6.938 0.271,-10.396 0.257,-2.452 0.812,-4.815 1.979,-7.001 2.104,-3.936 5.64,-5.832 9.822,-6.669 4.535,-0.907 9.094,-0.733 13.635,0.045 0.301,0.051 0.58,0.225 0.847,0.334 0.215,1.516 -0.229,10.163 -0.594,11.745 -0.634,0.311 -1.226,0.018 -1.821,-0.149 -1.628,-0.457 -3.292,-0.426 -4.93,-0.197 -2.223,0.311 -3.764,1.5 -4.291,3.798 -0.212,0.924 -0.416,1.843 -0.413,2.798 0.009,2.365 -0.002,4.73 0.006,7.096 0,0.228 0.075,0.454 0.186,1.083 z" id="path1035" inkscape:connector-curvature="0" style="clip-rule:evenodd;fill:#6c747d;fill-rule:evenodd"/>
	<path d="m 250.243,304.371 c 0,3.606 0.004,6.833 -0.005,10.059 -0.001,0.461 0.086,0.949 -0.426,1.586 -3.801,0 -7.792,0 -11.513,0 -0.78,0.645 -0.627,1.236 -0.628,1.76 -0.015,4.895 -0.019,9.787 0,14.68 0.003,0.945 0.064,1.896 0.191,2.832 0.363,2.693 1.652,4.043 4.278,4.678 2.305,0.559 4.54,0.24 6.764,-0.393 0.37,-0.105 0.731,-0.234 1.231,-0.396 0,3.961 0,7.799 0,11.643 -1.081,0.705 -2.265,0.852 -3.411,1.035 -4.393,0.703 -8.798,0.854 -13.152,-0.223 -4.645,-1.146 -8.164,-3.682 -9.738,-8.412 -0.605,-1.82 -0.702,-3.707 -0.699,-5.609 0.01,-6.314 0.003,-12.627 0.002,-18.939 0,-0.773 0,-1.547 0,-2.535 -3.102,0 -5.989,0 -8.794,0 -0.627,-1.795 -0.734,-8.816 -0.221,-11.534 2.832,-0.458 5.751,0.044 8.708,-0.288 0.599,-1.436 0.231,-2.939 0.293,-4.398 0.063,-1.496 0.014,-2.998 0.014,-4.497 0,-1.493 0,-2.985 0,-4.437 1.744,-0.463 11.315,-0.574 14.378,-0.175 0.41,4.409 -0.112,8.892 0.294,13.565 4.099,-0.002 8.088,-0.002 12.434,-0.002 z" id="path1037" inkscape:connector-curvature="0" style="clip-rule:evenodd;fill:#6c747d;fill-rule:evenodd"/>
	<path d="m 214.976,450.443 c 0,4.115 0,7.885 0,11.627 -0.764,0.768 -1.735,0.818 -2.642,1.008 -4.931,1.02 -9.873,1.125 -14.745,-0.238 -4.833,-1.354 -8.191,-4.334 -9.329,-9.381 -0.396,-1.762 -0.5,-3.586 -0.493,-5.408 0.023,-5.994 0.014,-11.988 0.002,-17.982 -0.001,-0.775 0.134,-1.57 -0.266,-2.586 -2.776,0 -5.653,0 -8.462,0 -0.464,-2.004 -0.528,-8.586 -0.136,-11.447 2.812,-0.311 5.713,0.07 8.834,-0.24 0,-4.561 0,-9.014 0,-13.383 1.944,-0.531 11.705,-0.615 14.549,-0.154 0,4.406 0,8.865 0,13.578 4.301,0.186 8.38,0.006 12.404,0.115 0.449,1.816 0.532,8.258 0.152,11.352 -1.968,0.25 -4,0.08 -6.017,0.109 -2.042,0.031 -4.086,0.008 -5.983,0.008 -0.709,0.635 -0.501,1.309 -0.503,1.908 -0.017,4.813 -0.014,9.623 -0.005,14.434 0.002,1.104 0.066,2.195 0.333,3.285 0.711,2.9 2.268,4.299 5.266,4.512 2.292,0.165 4.559,0.006 7.041,-1.117 z" id="path1039" inkscape:connector-curvature="0" style="clip-rule:evenodd;fill:#6c747d;fill-rule:evenodd"/>
	<path d="m 503.561,462.385 c -4.212,1.359 -8.419,1.672 -12.689,1.275 -1.564,-0.146 -3.126,-0.369 -4.645,-0.83 -6.171,-1.867 -9.573,-6.268 -9.644,-12.74 -0.072,-6.625 -0.019,-13.248 -0.021,-19.873 0,-0.848 0,-1.695 0,-2.779 -3.107,0 -5.986,0 -9.004,0 0,-3.9 0,-7.555 0,-11.477 2.954,0 5.83,0 8.974,0 0.072,-4.711 -0.005,-9.172 0.047,-13.586 1.747,-0.484 10.829,-0.607 14.467,-0.201 0.254,4.461 -0.043,8.99 0.175,13.699 4.175,0 8.17,0 12.093,0 0.611,1.881 0.667,9.211 0.109,11.535 -3.95,0 -7.949,0 -11.782,0 -0.688,0.699 -0.484,1.363 -0.486,1.965 -0.019,4.969 -0.014,9.936 -0.006,14.904 0.002,0.709 0.007,1.424 0.099,2.125 0.426,3.236 2.193,4.934 5.448,5.152 1.175,0.078 2.373,0.053 3.54,-0.092 1.073,-0.131 2.119,-0.482 3.177,-0.736 0.469,1.62 0.577,8.616 0.148,11.659 z" id="path1041" inkscape:connector-curvature="0" style="clip-rule:evenodd;fill:#6c747d;fill-rule:evenodd"/>
	<path d="m 579.101,421.016 c -3.175,3.32 -6.218,6.502 -9.189,9.609 -0.709,0.127 -0.938,-0.361 -1.253,-0.67 -4.639,-4.566 -13.879,-2.686 -16.563,3.623 -1.591,3.744 -1.583,7.506 -0.033,11.262 2.551,6.182 11.886,8.41 16.496,3.643 0.27,-0.277 0.587,-0.51 1.072,-0.93 3.123,3.271 6.203,6.494 9.188,9.619 0.033,0.859 -0.518,1.119 -0.916,1.461 -2.882,2.488 -6.291,3.904 -9.974,4.619 -6.129,1.191 -12.12,0.596 -17.762,-2.129 -8.755,-4.227 -13.273,-11.279 -13.622,-21.014 -0.207,-5.797 1.194,-11.088 4.75,-15.736 3.771,-4.928 8.859,-7.719 14.822,-9.027 5.531,-1.215 10.972,-0.863 16.262,1.211 2.437,0.955 4.64,2.297 6.722,4.459 z" id="path1043" inkscape:connector-curvature="0" style="clip-rule:evenodd;fill:#6c747d;fill-rule:evenodd"/>
	<path d="m 307.517,501.383 c 4.784,0 9.333,0 13.861,0 0.473,1.805 0.541,70.211 0.069,72.6 -4.583,0 -9.191,0 -13.93,0 0,-24.213 0,-48.295 0,-72.6 z" id="path1045" inkscape:connector-curvature="0" style="clip-rule:evenodd;fill:#6c747d;fill-rule:evenodd"/>
	<path d="m 652.2,462.463 c -4.707,0 -9.264,0 -13.807,0 -0.063,-0.059 -0.123,-0.111 -0.177,-0.166 -0.055,-0.057 -0.152,-0.117 -0.152,-0.176 -0.032,-23.672 -0.059,-47.342 -0.079,-71.014 0,-0.303 -0.044,-0.637 0.367,-1.023 4.463,0 9.073,0 13.67,0 0.446,1.764 0.622,68.203 0.178,72.379 z" id="path1047" inkscape:connector-curvature="0" style="clip-rule:evenodd;fill:#6c747d;fill-rule:evenodd"/>
	<path d="m 347.476,303.805 c 0,4.373 0,8.597 0,12.828 -0.908,0.281 -1.651,-0.064 -2.398,-0.203 -2.908,-0.541 -5.803,-0.537 -8.667,0.215 -3.04,0.797 -5.123,2.689 -6.167,5.668 -0.845,2.408 -1.062,4.914 -1.058,7.451 0.011,6.309 0.011,12.617 -0.005,18.926 -0.003,0.766 0.188,1.566 -0.272,2.408 -4.666,0 -9.354,0 -14.17,0 0,-15.531 0,-30.945 0,-46.34 1.788,-0.416 11.594,-0.486 14.391,-0.082 0,2.097 0,4.247 0,6.395 2.767,-3.508 5.616,-6.573 10.103,-7.418 2.719,-0.512 5.443,-0.532 8.243,0.152 z" id="path1049" inkscape:connector-curvature="0" style="clip-rule:evenodd;fill:#6c747d;fill-rule:evenodd"/>
	<path d="m 512.989,303.728 c 0,4.432 0,8.665 0,13.079 -0.846,-0.143 -1.593,-0.266 -2.338,-0.395 -2.909,-0.508 -5.813,-0.539 -8.675,0.24 -3.023,0.822 -5.11,2.697 -6.133,5.705 -0.51,1.504 -0.801,3.035 -0.919,4.621 -0.525,7.014 -0.196,14.035 -0.289,21.057 -0.013,0.941 -0.002,1.883 -0.002,2.791 -1.78,0.484 -9.129,0.619 -13.98,0.283 -0.046,-0.051 -0.101,-0.107 -0.153,-0.164 -0.05,-0.059 -0.134,-0.117 -0.139,-0.18 -0.037,-0.471 -0.08,-0.943 -0.079,-1.416 0.014,-14.754 0.032,-29.508 0.06,-44.262 0.001,-0.135 0.131,-0.27 0.265,-0.529 4.546,0 9.156,0 13.845,0 0.403,2.341 0.008,4.604 0.325,7.389 2.569,-4.291 5.515,-7.472 10.202,-8.327 2.643,-0.482 5.29,-0.447 8.01,0.108 z" id="path1051" inkscape:connector-curvature="0" style="clip-rule:evenodd;fill:#6c747d;fill-rule:evenodd"/>
	<path d="m 512.283,416.035 c 4.737,0 9.364,0 13.955,0 0.09,0.096 0.145,0.15 0.193,0.209 0.051,0.061 0.136,0.125 0.136,0.189 0.033,14.977 0.06,29.955 0.08,44.932 10e-4,0.301 -0.071,0.604 -0.146,1.178 -4.741,0.057 -9.423,0.018 -14.059,0.027 -0.413,-1.947 -0.54,-42.593 -0.159,-46.535 z" id="path1053" inkscape:connector-curvature="0" style="clip-rule:evenodd;fill:#6c747d;fill-rule:evenodd"/>
	<path d="m 333.575,527.316 c 0.682,0 1.222,0 1.761,0 4.014,0 8.027,0 11.909,0 0.187,0.189 0.247,0.242 0.297,0.303 0.048,0.057 0.121,0.123 0.124,0.188 0.035,0.705 0.083,1.414 0.082,2.121 -0.014,14.506 -0.033,29.014 -0.061,43.52 0,0.135 -0.131,0.27 -0.269,0.535 -4.542,0 -9.152,0 -13.734,0 -0.418,-1.795 -0.53,-43.467 -0.109,-46.667 z" id="path1055" inkscape:connector-curvature="0" style="clip-rule:evenodd;fill:#6c747d;fill-rule:evenodd"/>
	<path d="m 332.132,512.678 c -0.047,-4.66 3.696,-8.48 8.338,-8.51 4.636,-0.027 8.442,3.756 8.463,8.41 0.02,4.496 -3.73,8.314 -8.249,8.398 -4.655,0.087 -8.504,-3.648 -8.552,-8.298 z" id="path1057" inkscape:connector-curvature="0" style="clip-rule:evenodd;fill:#6c747d;fill-rule:evenodd"/>
	<path d="m 519.406,409.488 c -3.714,0.32 -8.398,-3.002 -8.398,-8.363 0,-4.748 4.197,-8.479 8.484,-8.326 4.62,0.164 8.181,3.664 8.261,8.295 0.086,5.062 -4.294,8.662 -8.347,8.394 z" id="path1059" inkscape:connector-curvature="0" style="clip-rule:evenodd;fill:#6c747d;fill-rule:evenodd"/>
</g>
</svg>