<?xml version="1.0" encoding="UTF-8" standalone="no"?>
<!-- Created with Inkscape (http://www.inkscape.org/) -->
<svg width="56.151867mm" height="11.097857mm" viewBox="0 0 56.151867 11.097857" version="1.1" id="svg896" inkscape:version="1.2.2 (b0a84865, 2022-12-01)" sodipodi:docname="hackerlab.svg" xmlns:inkscape="http://www.inkscape.org/namespaces/inkscape" xmlns:sodipodi="http://sodipodi.sourceforge.net/DTD/sodipodi-0.dtd" xmlns="http://www.w3.org/2000/svg" xmlns:svg="http://www.w3.org/2000/svg">
  <sodipodi:namedview id="namedview898" pagecolor="#ffffff" bordercolor="#666666" borderopacity="1.0" inkscape:showpageshadow="2" inkscape:pageopacity="0.0" inkscape:pagecheckerboard="0" inkscape:deskcolor="#d1d1d1" inkscape:document-units="mm" showgrid="false" inkscape:zoom="0.80265853" inkscape:cx="9.9668784" inkscape:cy="136.42165" inkscape:window-width="1390" inkscape:window-height="1027" inkscape:window-x="0" inkscape:window-y="38" inkscape:window-maximized="0" inkscape:current-layer="layer1"/>
  <defs id="defs893"/>
  <g inkscape:label="Layer 1" inkscape:groupmode="layer" id="layer1" transform="translate(-103.58532,-113.77848)">
    <g aria-label="hacker" id="text18844-0" style="font-size:10.5833px;line-height:1.25;fill:#ef167a;stroke-width:0.264583">
      <path d="m 114.02809,121.83026 q -0.3175,0 -0.48683,-0.16933 -0.16933,-0.17991 -0.16933,-0.508 v -6.28648 q 0,-0.32808 0.16933,-0.49741 0.16933,-0.16933 0.48683,-0.16933 0.3175,0 0.48683,0.16933 0.17992,0.16933 0.17992,0.49741 v 2.74108 h -0.14817 q 0.23284,-0.56092 0.71967,-0.84667 0.49741,-0.29633 1.12183,-0.29633 0.62441,0 1.02658,0.23283 0.40216,0.23284 0.60325,0.70908 0.20108,0.46567 0.20108,1.18533 v 2.56116 q 0,0.32809 -0.16933,0.508 -0.16934,0.16933 -0.48684,0.16933 -0.31749,0 -0.49741,-0.16933 -0.16933,-0.17991 -0.16933,-0.508 v -2.49766 q 0,-0.60324 -0.23284,-0.87841 -0.22225,-0.27517 -0.69849,-0.27517 -0.58209,0 -0.93133,0.37042 -0.33867,0.35983 -0.33867,0.96308 v 2.31774 q 0,0.67733 -0.66675,0.67733 z" style="font-weight:bold;font-family:Nunito;-inkscape-font-specification:'Nunito Bold';fill:#ef1654" id="path789"/>
      <path d="m 121.26706,121.85143 q -0.56092,0 -1.00541,-0.21167 -0.43392,-0.22224 -0.68792,-0.59266 -0.24341,-0.37042 -0.24341,-0.83608 0,-0.5715 0.29633,-0.89958 0.29633,-0.33867 0.96308,-0.48683 0.66675,-0.14817 1.78858,-0.14817 h 0.52916 v 0.762 h -0.51858 q -0.65616,0 -1.04775,0.0635 -0.39158,0.0635 -0.56091,0.22225 -0.15875,0.14816 -0.15875,0.42333 0,0.34925 0.24341,0.5715 0.24342,0.22225 0.67734,0.22225 0.34924,0 0.61383,-0.15875 0.27516,-0.16934 0.43391,-0.45508 0.15875,-0.28575 0.15875,-0.65617 v -1.21708 q 0,-0.52916 -0.23283,-0.762 -0.23283,-0.23283 -0.78316,-0.23283 -0.30692,0 -0.66675,0.0741 -0.34925,0.0741 -0.74083,0.254 -0.20109,0.0952 -0.35984,0.0529 -0.14816,-0.0423 -0.23283,-0.16933 -0.0847,-0.13759 -0.0847,-0.29633 0,-0.15875 0.0847,-0.30692 0.0847,-0.15875 0.28575,-0.23283 0.48683,-0.20109 0.93133,-0.28575 0.45508,-0.0847 0.8255,-0.0847 0.762,0 1.24883,0.23283 0.49741,0.23284 0.74083,0.70908 0.24341,0.46567 0.24341,1.2065 v 2.53999 q 0,0.32809 -0.15875,0.508 -0.15874,0.16933 -0.45508,0.16933 -0.29633,0 -0.46566,-0.16933 -0.15875,-0.17991 -0.15875,-0.508 v -0.508 h 0.0847 q -0.0741,0.37042 -0.29633,0.64559 -0.21166,0.26458 -0.53975,0.41274 -0.32808,0.14817 -0.75141,0.14817 z" style="font-weight:bold;font-family:Nunito;-inkscape-font-specification:'Nunito Bold';fill:#ef1654" id="path791"/>
      <path d="m 127.74403,121.85143 q -0.81492,0 -1.41816,-0.32808 -0.60325,-0.33867 -0.93133,-0.9525 -0.32809,-0.61383 -0.32809,-1.43933 0,-0.62441 0.17992,-1.11124 0.1905,-0.49742 0.53975,-0.83608 0.34925,-0.34925 0.84666,-0.52917 0.49742,-0.1905 1.11125,-0.1905 0.34925,0 0.75141,0.0953 0.41275,0.0952 0.77258,0.3175 0.16934,0.10583 0.22225,0.254 0.0529,0.14817 0.0212,0.30691 -0.0317,0.14817 -0.13758,0.26459 -0.0953,0.10583 -0.24342,0.13758 -0.14817,0.0212 -0.32808,-0.0741 -0.23283,-0.13759 -0.47625,-0.20109 -0.24342,-0.0741 -0.46567,-0.0741 -0.34924,0 -0.61383,0.11642 -0.26458,0.10583 -0.45508,0.3175 -0.17992,0.20108 -0.27516,0.508 -0.0952,0.30691 -0.0952,0.70908 0,0.78316 0.37041,1.23824 0.381,0.4445 1.06891,0.4445 0.22225,0 0.45509,-0.0635 0.24341,-0.0635 0.48683,-0.20108 0.17991,-0.0953 0.3175,-0.0635 0.14816,0.0318 0.24341,0.14816 0.0952,0.10584 0.11642,0.26459 0.0212,0.14816 -0.0423,0.29633 -0.0529,0.14817 -0.21167,0.24342 -0.34925,0.21166 -0.74083,0.30691 -0.39158,0.0952 -0.74083,0.0952 z" style="font-weight:bold;font-family:Nunito;-inkscape-font-specification:'Nunito Bold';fill:#ef1654" id="path793"/>
      <path d="m 131.00367,121.83026 q -0.3175,0 -0.48684,-0.16933 -0.16933,-0.17991 -0.16933,-0.508 v -6.28648 q 0,-0.32808 0.16933,-0.49741 0.16934,-0.16933 0.48684,-0.16933 0.31749,0 0.48683,0.16933 0.17991,0.16933 0.17991,0.49741 v 3.90524 h 0.0212 l 1.74624,-1.84149 q 0.21167,-0.21167 0.37042,-0.32809 0.15875,-0.11641 0.43391,-0.11641 0.27517,0 0.41275,0.14816 0.14817,0.13759 0.14817,0.33867 0,0.20108 -0.1905,0.40217 l -1.84149,1.94732 v -0.55033 l 2.02141,2.18016 q 0.1905,0.20108 0.16933,0.41275 -0.0106,0.20108 -0.16933,0.33866 -0.15875,0.127 -0.40217,0.127 -0.29633,0 -0.47625,-0.11641 -0.16933,-0.11642 -0.381,-0.34925 l -1.84149,-1.92616 h -0.0212 v 1.71449 q 0,0.67733 -0.66674,0.67733 z" style="font-weight:bold;font-family:Nunito;-inkscape-font-specification:'Nunito Bold';fill:#ef1654" id="path795"/>
      <path d="m 138.46486,121.85143 q -0.87841,0 -1.51341,-0.32808 -0.635,-0.32808 -0.98425,-0.93133 -0.33866,-0.60325 -0.33866,-1.42875 0,-0.80433 0.32808,-1.40758 0.33867,-0.60324 0.92075,-0.94191 0.59266,-0.34925 1.34408,-0.34925 0.55033,0 0.98424,0.17992 0.4445,0.17991 0.75142,0.51858 0.3175,0.33866 0.47625,0.8255 0.16933,0.47624 0.16933,1.07949 0,0.1905 -0.13758,0.29634 -0.127,0.0952 -0.37042,0.0952 h -3.39724 v -0.762 h 2.97391 l -0.16934,0.15875 q 0,-0.48683 -0.14816,-0.81492 -0.13758,-0.32808 -0.41275,-0.49741 -0.26458,-0.17992 -0.66675,-0.17992 -0.4445,0 -0.762,0.21167 -0.30691,0.20108 -0.47624,0.58208 -0.15875,0.37041 -0.15875,0.889 v 0.0741 q 0,0.86783 0.40216,1.30175 0.41275,0.42333 1.2065,0.42333 0.27516,0 0.61383,-0.0635 0.34925,-0.0741 0.65616,-0.24342 0.22225,-0.127 0.39159,-0.10583 0.16933,0.0106 0.26458,0.11641 0.10583,0.10584 0.127,0.26459 0.0212,0.14816 -0.0635,0.30691 -0.0741,0.15875 -0.26458,0.27517 -0.37042,0.23283 -0.85725,0.34925 -0.47625,0.10583 -0.889,0.10583 z" style="font-weight:bold;font-family:Nunito;-inkscape-font-specification:'Nunito Bold';fill:#ef1654" id="path797"/>
      <path d="m 142.32776,121.83026 q -0.32808,0 -0.50799,-0.16933 -0.16934,-0.17991 -0.16934,-0.508 v -4.00048 q 0,-0.32809 0.16934,-0.49742 0.16933,-0.16933 0.47624,-0.16933 0.30692,0 0.47625,0.16933 0.16934,0.16933 0.16934,0.49742 v 0.66674 h -0.10584 q 0.14817,-0.63499 0.58208,-0.96308 0.43392,-0.32808 1.15358,-0.39158 0.22225,-0.0212 0.34925,0.11642 0.13759,0.127 0.15875,0.40216 0.0212,0.26459 -0.127,0.43392 -0.13758,0.15875 -0.42333,0.1905 l -0.23283,0.0212 q -0.64558,0.0635 -0.97367,0.40217 -0.32808,0.32808 -0.32808,0.93133 v 2.19074 q 0,0.32809 -0.16933,0.508 -0.16933,0.16933 -0.49742,0.16933 z" style="font-weight:bold;font-family:Nunito;-inkscape-font-specification:'Nunito Bold';fill:#ef1654" id="path799"/>
    </g>
    <g aria-label="lab" transform="scale(0.94898269,1.05376)" id="text18844-4-8" style="font-size:10.9116px;line-height:1.25;fill:#ef167a;stroke-width:0.272792">
      <path d="m 155.27441,115.86289 q -0.90566,0 -1.36395,-0.51284 -0.45829,-0.52376 -0.45829,-1.52763 v -5.16118 q 0,-0.33826 0.17459,-0.51285 0.17459,-0.17458 0.50193,-0.17458 0.32735,0 0.50194,0.17458 0.18549,0.17459 0.18549,0.51285 v 5.09571 q 0,0.50194 0.20732,0.74199 0.21824,0.24006 0.61105,0.24006 0.0873,0 0.16368,0 0.0764,-0.0109 0.15276,-0.0218 0.15276,-0.0218 0.20732,0.0873 0.0546,0.0982 0.0546,0.41464 0,0.27279 -0.10912,0.42555 -0.10911,0.15276 -0.36008,0.1855 -0.10912,0.0109 -0.22914,0.0218 -0.12003,0.0109 -0.24006,0.0109 z" style="font-weight:bold;font-family:Nunito;-inkscape-font-specification:'Nunito Bold';fill:#000000" id="path802"/>
      <path d="m 158.68972,115.86289 q -0.57831,0 -1.0366,-0.21823 -0.44737,-0.22914 -0.70925,-0.61105 -0.25097,-0.38191 -0.25097,-0.86202 0,-0.58922 0.30553,-0.92748 0.30552,-0.34917 0.99295,-0.50194 0.68743,-0.15276 1.84406,-0.15276 h 0.54558 v 0.78564 h -0.53467 q -0.67652,0 -1.08024,0.0655 -0.40373,0.0655 -0.57832,0.22914 -0.16367,0.15276 -0.16367,0.43646 0,0.36009 0.25096,0.58923 0.25097,0.22914 0.69835,0.22914 0.36008,0 0.63287,-0.16367 0.2837,-0.17458 0.44737,-0.4692 0.16368,-0.29461 0.16368,-0.67652 v -1.25483 q 0,-0.54558 -0.24006,-0.78564 -0.24005,-0.24005 -0.80746,-0.24005 -0.31643,0 -0.68743,0.0764 -0.36008,0.0764 -0.76381,0.26188 -0.20732,0.0982 -0.37099,0.0546 -0.15277,-0.0436 -0.24006,-0.17459 -0.0873,-0.14185 -0.0873,-0.30552 0,-0.16368 0.0873,-0.31644 0.0873,-0.16367 0.29462,-0.24006 0.50193,-0.20732 0.96022,-0.29461 0.46919,-0.0873 0.8511,-0.0873 0.78564,0 1.28757,0.24005 0.51284,0.24006 0.76381,0.73108 0.25097,0.48011 0.25097,1.24392 v 2.61879 q 0,0.33826 -0.16368,0.52375 -0.16367,0.17459 -0.46919,0.17459 -0.30553,0 -0.48011,-0.17459 -0.16368,-0.18549 -0.16368,-0.52375 v -0.52376 h 0.0873 q -0.0764,0.38191 -0.30552,0.66561 -0.21823,0.27279 -0.55649,0.42555 -0.33826,0.15276 -0.77473,0.15276 z" style="font-weight:bold;font-family:Nunito;-inkscape-font-specification:'Nunito Bold';fill:#000000" id="path804"/>
      <path d="m 165.97866,115.86289 q -0.67652,0 -1.18936,-0.33826 -0.50194,-0.33826 -0.66561,-0.90566 l 0.12003,-0.27279 v 0.79655 q 0,0.33826 -0.17459,0.52375 -0.17458,0.17459 -0.49102,0.17459 -0.32735,0 -0.50193,-0.17459 -0.17459,-0.18549 -0.17459,-0.52375 v -6.48149 q 0,-0.33826 0.17459,-0.51285 0.17458,-0.17458 0.50193,-0.17458 0.32735,0 0.50193,0.17458 0.1855,0.17459 0.1855,0.51285 v 2.83701 h -0.13094 q 0.17459,-0.53467 0.67652,-0.86201 0.50193,-0.32735 1.16754,-0.32735 0.70926,0 1.23301,0.33826 0.52376,0.33826 0.81837,0.96022 0.29462,0.61105 0.29462,1.47306 0,0.85111 -0.29462,1.48398 -0.29461,0.62196 -0.82928,0.96022 -0.52376,0.33826 -1.2221,0.33826 z m -0.3819,-1.0366 q 0.40372,0 0.70925,-0.19641 0.30552,-0.19641 0.4692,-0.57831 0.17458,-0.39282 0.17458,-0.97114 0,-0.87292 -0.37099,-1.29848 -0.371,-0.43646 -0.98204,-0.43646 -0.40373,0 -0.70926,0.19641 -0.30552,0.1855 -0.48011,0.57831 -0.16367,0.38191 -0.16367,0.96022 0,0.86202 0.37099,1.3094 0.371,0.43646 0.98205,0.43646 z" style="font-weight:bold;font-family:Nunito;-inkscape-font-specification:'Nunito Bold';fill:#000000" id="path806"/>
    </g>
    <path style="color:#000000;fill:#000000;stroke-width:0.9367;stroke-linecap:round;stroke-linejoin:round" d="m 105.98527,120.73925 a 1.2546911,1.2546911 0 0 1 1.25503,-1.25503 h 1.35017 v -3.67362 a 1.2546911,1.2546911 0 0 1 1.25503,-1.25504 1.2546911,1.2546911 0 0 1 1.25503,1.25504 v 4.92865 a 1.2548166,1.2548166 0 0 1 -1.25503,1.25321 h -2.6052 a 1.2546911,1.2546911 0 0 1 -1.25503,-1.25321 z" id="path42782"/>
    <ellipse style="fill:#ef1654;fill-opacity:1;stroke:none;stroke-width:2.8835;stroke-linecap:round;stroke-linejoin:round;stroke-dasharray:none;stroke-dashoffset:0;stroke-opacity:1;paint-order:fill markers stroke" id="path23770-4-7-37-8-1" cx="105" cy="118.00455" rx="1.4146813" ry="1.4804786"/>
    <g aria-label="Universidad de Chile" id="text698" style="font-size:2.82222px;line-height:1.25;stroke-width:0.264583">
      <path d="m 126.84266,124.22728 q 0,0.33762 -0.13781,0.49334 -0.13642,0.15571 -0.41617,0.15571 -0.56361,0 -0.56361,-0.64354 v -1.33807 h 0.226 v 1.3174 q 0,0.46578 0.33761,0.46578 0.1695,0 0.24805,-0.11025 0.0799,-0.11024 0.0799,-0.35829 v -1.31464 h 0.226 z" style="font-family:'Andale Mono';-inkscape-font-specification:'Andale Mono';fill:#333333" id="path809"/>
      <path d="m 128.53351,124.83913 h -0.21498 v -0.92053 q 0,-0.19155 -0.062,-0.27699 -0.0606,-0.0868 -0.19155,-0.0868 -0.19705,0 -0.42305,0.24529 v 1.03904 h -0.21498 v -1.43592 h 0.21498 v 0.21084 q 0.23151,-0.24529 0.48782,-0.24529 0.40377,0 0.40377,0.48783 z" style="font-family:'Andale Mono';-inkscape-font-specification:'Andale Mono';fill:#333333" id="path811"/>
      <path d="m 129.76409,122.86027 q 0.0606,0 0.10336,0.0441 0.0427,0.0427 0.0427,0.10336 0,0.0634 -0.0427,0.1061 -0.0413,0.0427 -0.10336,0.0427 -0.0565,0 -0.10059,-0.0441 -0.0427,-0.0455 -0.0427,-0.10473 0,-0.0593 0.0427,-0.10336 0.0441,-0.0441 0.10059,-0.0441 z m 0.10474,1.97886 h -0.21498 v -1.24988 h -0.42306 v -0.18604 h 0.63804 z" style="font-family:'Andale Mono';-inkscape-font-specification:'Andale Mono';fill:#333333" id="path813"/>
      <path d="m 131.98549,123.40321 -0.54432,1.43592 h -0.19569 l -0.54156,-1.43592 h 0.23426 l 0.40652,1.14239 0.40652,-1.14239 z" style="font-family:'Andale Mono';-inkscape-font-specification:'Andale Mono';fill:#333333" id="path815"/>
      <path d="m 133.65705,124.12806 h -0.9853 q 0,0.24391 0.14056,0.40239 0.14194,0.15847 0.34727,0.15847 0.19568,0 0.40376,-0.0703 l 0.0372,0.17226 q -0.19017,0.0854 -0.44373,0.0854 -0.3197,0 -0.51538,-0.20532 -0.19569,-0.20533 -0.19569,-0.55397 0,-0.34176 0.17502,-0.54433 0.17638,-0.20395 0.45475,-0.20395 0.24804,0 0.41479,0.18879 0.16674,0.18879 0.16674,0.50299 z m -0.23427,-0.17501 q 0,-0.16812 -0.10473,-0.2825 -0.10473,-0.11575 -0.23426,-0.11575 -0.16675,0 -0.27699,0.11024 -0.10886,0.11024 -0.12127,0.28801 z" style="font-family:'Andale Mono';-inkscape-font-specification:'Andale Mono';fill:#333333" id="path817"/>
      <path d="m 135.32999,123.4418 -0.0868,0.2067 q -0.14194,-0.062 -0.24529,-0.062 -0.0951,0 -0.18604,0.0551 -0.0909,0.0537 -0.16812,0.15572 -0.0758,0.1006 -0.0758,0.113 v 0.9288 h -0.21359 v -1.43592 h 0.21359 v 0.29077 q 0.17226,-0.32522 0.44649,-0.32522 0.1626,0 0.31557,0.073 z" style="font-family:'Andale Mono';-inkscape-font-specification:'Andale Mono';fill:#333333" id="path819"/>
      <path d="m 136.85134,123.60854 q -0.18052,-0.0593 -0.34038,-0.0593 -0.17501,0 -0.27698,0.0593 -0.10198,0.0579 -0.10198,0.15572 0,0.062 0.0469,0.10886 0.0469,0.0455 0.18741,0.0854 l 0.20533,0.0593 q 0.14194,0.04 0.23151,0.0965 0.0896,0.0551 0.13367,0.13505 0.0455,0.0785 0.0455,0.18328 0,0.20532 -0.17225,0.32521 -0.17226,0.11851 -0.43822,0.11851 -0.26458,0 -0.43684,-0.0799 l 0.0413,-0.18604 q 0.18052,0.0854 0.38722,0.0854 0.17915,0 0.29077,-0.0661 0.113,-0.0675 0.113,-0.17776 0,-0.0744 -0.0565,-0.13229 -0.0551,-0.0593 -0.26183,-0.12265 -0.16674,-0.051 -0.24529,-0.0758 -0.0786,-0.0262 -0.14607,-0.0758 -0.0675,-0.0496 -0.10335,-0.11851 -0.0344,-0.0689 -0.0344,-0.15434 0,-0.18604 0.1626,-0.2949 0.16261,-0.10887 0.43133,-0.10887 0.17363,0 0.38585,0.0593 z" style="font-family:'Andale Mono';-inkscape-font-specification:'Andale Mono';fill:#333333" id="path821"/>
      <path d="m 138.23213,122.86027 q 0.0606,0 0.10336,0.0441 0.0427,0.0427 0.0427,0.10336 0,0.0634 -0.0427,0.1061 -0.0413,0.0427 -0.10336,0.0427 -0.0565,0 -0.10059,-0.0441 -0.0427,-0.0455 -0.0427,-0.10473 0,-0.0593 0.0427,-0.10336 0.0441,-0.0441 0.10059,-0.0441 z m 0.10473,1.97886 h -0.21497 v -1.24988 h -0.42306 v -0.18604 h 0.63803 z" style="font-family:'Andale Mono';-inkscape-font-specification:'Andale Mono';fill:#333333" id="path823"/>
      <path d="m 140.38325,124.83913 h -0.21498 v -0.20671 q -0.0661,0.10611 -0.19016,0.17501 -0.12265,0.0689 -0.25908,0.0689 -0.24666,0 -0.38998,-0.2191 -0.14332,-0.22049 -0.14332,-0.55811 0,-0.31557 0.14883,-0.52228 0.15021,-0.20808 0.39688,-0.20808 0.27147,0 0.43683,0.22049 v -0.69453 h 0.21498 z m -0.21498,-0.4396 v -0.59669 q -0.15434,-0.24804 -0.37207,-0.24804 -0.17776,0 -0.28111,0.15847 -0.10336,0.1571 -0.10336,0.39825 0,0.24805 0.0965,0.41066 0.0978,0.16123 0.26733,0.16123 0.0813,0 0.16399,-0.0441 0.0827,-0.0441 0.15572,-0.13229 0.073,-0.0882 0.073,-0.10749 z" style="font-family:'Andale Mono';-inkscape-font-specification:'Andale Mono';fill:#333333" id="path825"/>
      <path d="m 142.1182,124.83913 h -0.2136 q -0.0262,-0.0868 -0.0262,-0.23151 -0.18328,0.26871 -0.49885,0.26871 -0.15985,0 -0.2825,-0.113 -0.12127,-0.11437 -0.12127,-0.29352 0,-0.10611 0.0427,-0.18741 0.0427,-0.0813 0.1254,-0.13643 0.0827,-0.0565 0.2012,-0.0882 0.11851,-0.0331 0.28112,-0.0455 l 0.24115,-0.0193 v -0.0689 q 0,-0.36931 -0.3445,-0.36931 -0.0813,0 -0.20671,0.0358 -0.12402,0.0345 -0.2136,0.0827 l -0.0565,-0.15434 q 0.29353,-0.15021 0.54571,-0.15021 0.49058,0 0.49058,0.51952 v 0.61736 q 0,0.18741 0.0358,0.33349 z m -0.25081,-0.42582 v -0.26045 q -0.29076,0.0262 -0.39963,0.0496 -0.10748,0.022 -0.18741,0.0841 -0.0786,0.062 -0.0786,0.16812 0,0.0965 0.0675,0.15572 0.0675,0.0593 0.17225,0.0593 0.11438,0 0.22738,-0.0675 0.113,-0.0689 0.19843,-0.18879 z" style="font-family:'Andale Mono';-inkscape-font-specification:'Andale Mono';fill:#333333" id="path827"/>
      <path d="m 143.77046,124.83913 h -0.21497 v -0.20671 q -0.0661,0.10611 -0.19017,0.17501 -0.12264,0.0689 -0.25907,0.0689 -0.24667,0 -0.38998,-0.2191 -0.14332,-0.22049 -0.14332,-0.55811 0,-0.31557 0.14883,-0.52228 0.1502,-0.20808 0.39687,-0.20808 0.27148,0 0.43684,0.22049 v -0.69453 h 0.21497 z m -0.21497,-0.4396 v -0.59669 q -0.15434,-0.24804 -0.37207,-0.24804 -0.17777,0 -0.28112,0.15847 -0.10335,0.1571 -0.10335,0.39825 0,0.24805 0.0965,0.41066 0.0978,0.16123 0.26734,0.16123 0.0813,0 0.16399,-0.0441 0.0827,-0.0441 0.15571,-0.13229 0.073,-0.0882 0.073,-0.10749 z" style="font-family:'Andale Mono';-inkscape-font-specification:'Andale Mono';fill:#333333" id="path829"/>
      <path d="m 147.15768,124.83913 h -0.21497 v -0.20671 q -0.0661,0.10611 -0.19017,0.17501 -0.12265,0.0689 -0.25907,0.0689 -0.24667,0 -0.38999,-0.2191 -0.14332,-0.22049 -0.14332,-0.55811 0,-0.31557 0.14883,-0.52228 0.15021,-0.20808 0.39688,-0.20808 0.27147,0 0.43684,0.22049 v -0.69453 h 0.21497 z m -0.21497,-0.4396 v -0.59669 q -0.15435,-0.24804 -0.37207,-0.24804 -0.17777,0 -0.28112,0.15847 -0.10336,0.1571 -0.10336,0.39825 0,0.24805 0.0965,0.41066 0.0978,0.16123 0.26733,0.16123 0.0813,0 0.16399,-0.0441 0.0827,-0.0441 0.15572,-0.13229 0.073,-0.0882 0.073,-0.10749 z" style="font-family:'Andale Mono';-inkscape-font-specification:'Andale Mono';fill:#333333" id="path831"/>
      <path d="m 148.89952,124.12806 h -0.9853 q 0,0.24391 0.14056,0.40239 0.14194,0.15847 0.34727,0.15847 0.19568,0 0.40376,-0.0703 l 0.0372,0.17226 q -0.19017,0.0854 -0.44373,0.0854 -0.3197,0 -0.51539,-0.20532 -0.19568,-0.20533 -0.19568,-0.55397 0,-0.34176 0.17501,-0.54433 0.17639,-0.20395 0.45476,-0.20395 0.24804,0 0.41479,0.18879 0.16674,0.18879 0.16674,0.50299 z m -0.23427,-0.17501 q 0,-0.16812 -0.10473,-0.2825 -0.10473,-0.11575 -0.23427,-0.11575 -0.16674,0 -0.27698,0.11024 -0.10887,0.11024 -0.12127,0.28801 z" style="font-family:'Andale Mono';-inkscape-font-specification:'Andale Mono';fill:#333333" id="path833"/>
      <path d="m 152.31705,124.71786 q -0.22875,0.15847 -0.53054,0.15847 -0.37759,0 -0.57464,-0.25907 -0.19569,-0.25907 -0.19569,-0.74965 0,-0.47404 0.19017,-0.74138 0.19017,-0.26872 0.58016,-0.26872 0.14056,0 0.27836,0.0358 0.1378,0.0358 0.22186,0.0951 l -0.0744,0.17777 q -0.1943,-0.11024 -0.42581,-0.11024 -0.26872,0 -0.39963,0.19568 -0.13092,0.1943 -0.13092,0.61598 0,0.81029 0.53055,0.81029 0.22462,0 0.46026,-0.13781 z" style="font-family:'Andale Mono';-inkscape-font-specification:'Andale Mono';fill:#333333" id="path835"/>
      <path d="m 153.93762,124.83913 h -0.21497 v -0.92053 q 0,-0.19155 -0.062,-0.27699 -0.0606,-0.0868 -0.19155,-0.0868 -0.19706,0 -0.42306,0.24529 v 1.03904 h -0.21497 v -1.94441 h 0.21497 v 0.71933 q 0.23151,-0.24529 0.48783,-0.24529 0.40376,0 0.40376,0.48783 z" style="font-family:'Andale Mono';-inkscape-font-specification:'Andale Mono';fill:#333333" id="path837"/>
      <path d="m 155.16821,122.86027 q 0.0606,0 0.10335,0.0441 0.0427,0.0427 0.0427,0.10336 0,0.0634 -0.0427,0.1061 -0.0413,0.0427 -0.10335,0.0427 -0.0565,0 -0.1006,-0.0441 -0.0427,-0.0455 -0.0427,-0.10473 0,-0.0593 0.0427,-0.10336 0.0441,-0.0441 0.1006,-0.0441 z m 0.10473,1.97886 h -0.21497 v -1.24988 h -0.42306 v -0.18604 h 0.63803 z" style="font-family:'Andale Mono';-inkscape-font-specification:'Andale Mono';fill:#333333" id="path839"/>
      <path d="m 157.22011,124.83913 h -0.58705 v -1.75838 h -0.37482 v -0.18603 h 0.5898 v 1.75837 h 0.37207 z" style="font-family:'Andale Mono';-inkscape-font-specification:'Andale Mono';fill:#333333" id="path841"/>
      <path d="m 159.06117,124.12806 h -0.9853 q 0,0.24391 0.14056,0.40239 0.14194,0.15847 0.34726,0.15847 0.19569,0 0.40377,-0.0703 l 0.0372,0.17226 q -0.19017,0.0854 -0.44373,0.0854 -0.31971,0 -0.51539,-0.20532 -0.19568,-0.20533 -0.19568,-0.55397 0,-0.34176 0.17501,-0.54433 0.17639,-0.20395 0.45475,-0.20395 0.24805,0 0.41479,0.18879 0.16675,0.18879 0.16675,0.50299 z m -0.23427,-0.17501 q 0,-0.16812 -0.10473,-0.2825 -0.10473,-0.11575 -0.23427,-0.11575 -0.16674,0 -0.27698,0.11024 -0.10887,0.11024 -0.12127,0.28801 z" style="font-family:'Andale Mono';-inkscape-font-specification:'Andale Mono';fill:#333333" id="path843"/>
    </g>
  </g>
</svg>